0
SECTION
2
HEADER
9
$INSUNITS
70
4
9
$ACADVER
1
AC1014
9
$HANDSEED
5
FFFF
0
ENDSEC
0
SECTION
2
TABLES
0
TABLE
2
VPORT
5
8
100
AcDbSymbolTable
0
ENDTAB
0
TABLE
2
LTYPE
5
5
100
AcDbSymbolTable
0
LTYPE
5
14
100
AcDbSymbolTableRecord
100
AcDbLinetypeTableRecord
2
BYBLOCK
70
0
0
LTYPE
5
15
100
AcDbSymbolTableRecord
100
AcDbLinetypeTableRecord
2
BYLAYER
70
0
0
ENDTAB
0
TABLE
2
LAYER
5
2
100
AcDbSymbolTable
70
2
0
LAYER
5
50
100
AcDbSymbolTableRecord
100
AcDbLayerTableRecord
2
0
70
0
6
CONTINUOUS
0
ENDTAB
0
TABLE
2
STYLE
5
3
100
AcDbSymbolTable
70
1
0
STYLE
5
11
100
AcDbSymbolTableRecord
100
AcDbTextStyleTableRecord
2
STANDARD
70
0
0
ENDTAB
0
TABLE
2
VIEW
5
6
100
AcDbSymbolTable
70
0
0
ENDTAB
0
TABLE
2
UCS
5
7
100
AcDbSymbolTable
70
0
0
ENDTAB
0
TABLE
2
APPID
5
9
100
AcDbSymbolTable
70
2
0
APPID
5
12
100
AcDbSymbolTableRecord
100
AcDbRegAppTableRecord
2
ACAD
70
0
0
ENDTAB
0
TABLE
2
DIMSTYLE
5
A
100
AcDbSymbolTable
70
1
0
ENDTAB
0
TABLE
2
BLOCK_RECORD
5
1
100
AcDbSymbolTable
70
1
0
BLOCK_RECORD
5
1F
100
AcDbSymbolTableRecord
100
AcDbBlockTableRecord
2
*MODEL_SPACE
0
BLOCK_RECORD
5
1B
100
AcDbSymbolTableRecord
100
AcDbBlockTableRecord
2
*PAPER_SPACE
0
ENDTAB
0
ENDSEC
0
SECTION
2
BLOCKS
0
BLOCK
5
20
100
AcDbEntity
100
AcDbBlockBegin
2
*MODEL_SPACE
0
ENDBLK
5
21
100
AcDbEntity
100
AcDbBlockEnd
0
BLOCK
5
1C
100
AcDbEntity
100
AcDbBlockBegin
2
*PAPER_SPACE
0
ENDBLK
5
1D
100
AcDbEntity
100
AcDbBlockEnd
0
ENDSEC
0
SECTION
2
ENTITIES
0
CIRCLE
5
100
100
AcDbEntity
8
0
100
AcDbCircle
10
-47.73500013411045
20
405.87000640749932
30
0
40
1.5500000000000025
0
CIRCLE
5
101
100
AcDbEntity
8
0
100
AcDbCircle
10
-47.73500013411045
20
355.07000640749936
30
0
40
1.5499999999999934
0
CIRCLE
5
102
100
AcDbEntity
8
0
100
AcDbCircle
10
-115.68016324605983
20
37.200000134110454
30
0
40
1.5500000000000114
0
CIRCLE
5
103
100
AcDbEntity
8
0
100
AcDbCircle
10
-47.73500013411045
20
164.57000640749939
30
0
40
1.5500000000000025
0
CIRCLE
5
104
100
AcDbEntity
8
0
100
AcDbCircle
10
-47.73500013411045
20
304.27000640749941
30
0
40
1.5499999999999934
0
CIRCLE
5
105
100
AcDbEntity
8
0
100
AcDbCircle
10
-47.73500013411045
20
113.77000640749939
30
0
40
1.5500000000000114
0
CIRCLE
5
106
100
AcDbEntity
8
0
100
AcDbCircle
10
-76.30000202655792
20
99.150000134110456
30
0
40
1.5500000000000025
0
CIRCLE
5
107
100
AcDbEntity
8
0
100
AcDbCircle
10
-115.68000202655793
20
99.150000134110456
30
0
40
1.5499999999999934
0
CIRCLE
5
108
100
AcDbEntity
8
0
100
AcDbCircle
10
-47.73500013411045
20
215.3700064074994
30
0
40
1.5500000000000025
0
CIRCLE
5
109
100
AcDbEntity
8
0
100
AcDbCircle
10
-47.73500013411045
20
253.4700064074994
30
0
40
1.5500000000000114
0
CIRCLE
5
110
100
AcDbEntity
8
0
100
AcDbCircle
10
-47.73500013411045
20
62.97000640749939
30
0
40
1.5500000000000025
0
CIRCLE
5
111
100
AcDbEntity
8
0
100
AcDbCircle
10
-76.305343360250163
20
37.200000134110454
30
0
40
1.5500000000000025
0
LWPOLYLINE
5
112
100
AcDbEntity
8
0
100
AcDbPolyline
90
108
70
1
43
0.0
10
-56.400000000000006
20
431
10
-42.300000000000004
20
431
10
-42.300000000000004
20
435
10
-28.200000000000003
20
435
10
-28.200000000000003
20
431
10
-14.100000000000001
20
431
10
-14.100000000000001
20
435
10
0
20
435
10
0
20
413.25
10
-4
20
413.25
10
-4
20
391.5
10
0
20
391.5
10
0
20
369.74999999999994
10
-4
20
369.74999999999994
10
-4
20
348
10
0
20
348
10
0
20
326.25
10
-4
20
326.25
10
-4
20
304.5
10
0
20
304.5
10
0
20
282.75
10
-4
20
282.75
10
-4
20
261
10
0
20
261
10
0
20
239.25
10
-4
20
239.25
10
-4
20
195.75
10
0
20
195.75
10
0
20
174
10
-4
20
174
10
-4
20
152.25
10
0
20
152.25
10
0
20
130.5
10
-4
20
130.5
10
-4
20
108.75
10
0
20
108.75
10
0
20
87.000000000000014
10
-4
20
87.000000000000014
10
-4
20
65.250000000000028
10
0
20
65.250000000000028
10
0
20
43.500000000000014
10
-4
20
43.500000000000014
10
-4
20
21.750000000000007
10
0
20
21.750000000000007
10
0
20
0
10
-14.100000000000001
20
0
10
-14.100000000000001
20
4
10
-28.200000000000003
20
4
10
-28.200000000000003
20
0
10
-42.300000000000004
20
0
10
-42.300000000000004
20
4
10
-56.400000000000006
20
4
10
-56.400000000000006
20
0
10
-84.600000000000009
20
0
10
-84.600000000000009
20
4
10
-98.700000000000017
20
4
10
-98.700000000000017
20
0
10
-112.80000000000001
20
0
10
-112.80000000000001
20
4
10
-126.90000000000001
20
4
10
-126.90000000000001
20
0
10
-141
20
0
10
-141
20
21.750000000000007
10
-137
20
21.750000000000007
10
-137
20
43.500000000000014
10
-141
20
43.500000000000014
10
-141
20
65.250000000000028
10
-137
20
65.250000000000028
10
-137
20
87.000000000000014
10
-141
20
87.000000000000014
10
-141
20
108.75
10
-137
20
108.75
10
-137
20
130.5
10
-141
20
130.5
10
-141
20
152.25
10
-137
20
152.25
10
-137
20
174
10
-141
20
174
10
-141
20
195.75
10
-137
20
195.75
10
-137
20
239.25
10
-141
20
239.25
10
-141
20
261
10
-137
20
261
10
-137
20
282.75
10
-141
20
282.75
10
-141
20
304.5
10
-137
20
304.5
10
-137
20
326.25
10
-141
20
326.25
10
-141
20
348
10
-137
20
348
10
-137
20
369.74999999999994
10
-141
20
369.74999999999994
10
-141
20
391.5
10
-137
20
391.5
10
-137
20
413.25
10
-141
20
413.25
10
-141
20
435
10
-126.90000000000001
20
435
10
-126.90000000000001
20
431
10
-112.80000000000001
20
431
10
-112.80000000000001
20
435
10
-98.700000000000017
20
435
10
-98.700000000000017
20
431
10
-84.600000000000009
20
431
10
-84.600000000000009
20
435
10
-56.400000000000006
20
435
0
ENDSEC
0
SECTION
2
OBJECTS
0
DICTIONARY
5
C
100
AcDbDictionary
3
ACAD_GROUP
350
D
3
ACAD_MLINESTYLE
350
17
0
DICTIONARY
5
D
100
AcDbDictionary
0
DICTIONARY
5
1A
330
C
100
AcDbDictionary
0
DICTIONARY
5
17
100
AcDbDictionary
0
ENDSEC
0
EOF
