0
SECTION
2
HEADER
9
$INSUNITS
70
4
9
$ACADVER
1
AC1014
9
$HANDSEED
5
FFFF
0
ENDSEC
0
SECTION
2
TABLES
0
TABLE
2
VPORT
5
8
100
AcDbSymbolTable
0
ENDTAB
0
TABLE
2
LTYPE
5
5
100
AcDbSymbolTable
0
LTYPE
5
14
100
AcDbSymbolTableRecord
100
AcDbLinetypeTableRecord
2
BYBLOCK
70
0
0
LTYPE
5
15
100
AcDbSymbolTableRecord
100
AcDbLinetypeTableRecord
2
BYLAYER
70
0
0
ENDTAB
0
TABLE
2
LAYER
5
2
100
AcDbSymbolTable
70
2
0
LAYER
5
50
100
AcDbSymbolTableRecord
100
AcDbLayerTableRecord
2
0
70
0
6
CONTINUOUS
0
ENDTAB
0
TABLE
2
STYLE
5
3
100
AcDbSymbolTable
70
1
0
STYLE
5
11
100
AcDbSymbolTableRecord
100
AcDbTextStyleTableRecord
2
STANDARD
70
0
0
ENDTAB
0
TABLE
2
VIEW
5
6
100
AcDbSymbolTable
70
0
0
ENDTAB
0
TABLE
2
UCS
5
7
100
AcDbSymbolTable
70
0
0
ENDTAB
0
TABLE
2
APPID
5
9
100
AcDbSymbolTable
70
2
0
APPID
5
12
100
AcDbSymbolTableRecord
100
AcDbRegAppTableRecord
2
ACAD
70
0
0
ENDTAB
0
TABLE
2
DIMSTYLE
5
A
100
AcDbSymbolTable
70
1
0
ENDTAB
0
TABLE
2
BLOCK_RECORD
5
1
100
AcDbSymbolTable
70
1
0
BLOCK_RECORD
5
1F
100
AcDbSymbolTableRecord
100
AcDbBlockTableRecord
2
*MODEL_SPACE
0
BLOCK_RECORD
5
1B
100
AcDbSymbolTableRecord
100
AcDbBlockTableRecord
2
*PAPER_SPACE
0
ENDTAB
0
ENDSEC
0
SECTION
2
BLOCKS
0
BLOCK
5
20
100
AcDbEntity
100
AcDbBlockBegin
2
*MODEL_SPACE
0
ENDBLK
5
21
100
AcDbEntity
100
AcDbBlockEnd
0
BLOCK
5
1C
100
AcDbEntity
100
AcDbBlockBegin
2
*PAPER_SPACE
0
ENDBLK
5
1D
100
AcDbEntity
100
AcDbBlockEnd
0
ENDSEC
0
SECTION
2
ENTITIES
0
LWPOLYLINE
5
100
100
AcDbEntity
8
0
100
AcDbPolyline
90
4
70
1
43
0.0
10
-401
20
34
10
-371
20
34
10
-371
20
44
10
-401
20
44
0
CIRCLE
5
101
100
AcDbEntity
8
0
100
AcDbCircle
10
-415
20
40
30
0
40
2.5500000000000012
0
CIRCLE
5
102
100
AcDbEntity
8
0
100
AcDbCircle
10
-20
20
40
30
0
40
2.5500000000000012
0
LWPOLYLINE
5
103
100
AcDbEntity
8
0
100
AcDbPolyline
90
4
70
1
43
0.0
10
-63.999999999999986
20
34
10
-34
20
34
10
-34
20
44
10
-63.999999999999986
20
44
0
LWPOLYLINE
5
104
100
AcDbEntity
8
0
100
AcDbPolyline
90
64
70
1
43
0.0
10
-195.75
20
0
10
-239.25
20
0
10
-239.25
20
3.9999999999999991
10
-261
20
3.9999999999999991
10
-261
20
0
10
-282.75
20
0
10
-282.75
20
3.9999999999999991
10
-304.5
20
3.9999999999999991
10
-304.5
20
0
10
-326.25
20
0
10
-326.25
20
3.9999999999999991
10
-348
20
3.9999999999999991
10
-348
20
0
10
-369.74999999999994
20
0
10
-369.74999999999994
20
3.9999999999999991
10
-391.5
20
3.9999999999999991
10
-391.5
20
0
10
-413.25
20
0
10
-413.25
20
3.9999999999999991
10
-435
20
3.9999999999999858
10
-435
20
16.857142857142851
10
-431
20
16.857142857142851
10
-431
20
29.714285714285715
10
-435
20
29.714285714285715
10
-435
20
42.571428571428569
10
-431
20
42.571428571428569
10
-431
20
55.428571428571431
10
-435
20
55.428571428571431
10
-435
20
68.285714285714292
10
-431
20
68.285714285714292
10
-431
20
81.142857142857139
10
-435
20
81.142857142857139
10
-435
20
94
10
0
20
94
10
0
20
81.142857142857139
10
-3.9999999999999991
20
81.142857142857139
10
-3.9999999999999991
20
68.285714285714292
10
0
20
68.285714285714292
10
0
20
55.428571428571431
10
-3.9999999999999991
20
55.428571428571431
10
-3.9999999999999991
20
42.571428571428569
10
0
20
42.571428571428569
10
0
20
29.714285714285715
10
-3.9999999999999991
20
29.714285714285715
10
-3.9999999999999991
20
16.857142857142851
10
0
20
16.857142857142851
10
0
20
3.9999999999999858
10
-21.750000000000007
20
3.9999999999999991
10
-21.750000000000007
20
0
10
-43.500000000000014
20
0
10
-43.500000000000014
20
3.9999999999999991
10
-65.250000000000028
20
3.9999999999999991
10
-65.250000000000028
20
0
10
-87.000000000000014
20
0
10
-87.000000000000014
20
3.9999999999999991
10
-108.75
20
3.9999999999999991
10
-108.75
20
0
10
-130.5
20
0
10
-130.5
20
3.9999999999999991
10
-152.25
20
3.9999999999999991
10
-152.25
20
0
10
-174
20
0
10
-174
20
3.9999999999999991
10
-195.75
20
3.9999999999999991
0
SPLINE
5
105
100
AcDbEntity
8
0
100
AcDbSpline
70
1064
71
3
72
8
73
4
74
0
42
0.000000001
43
0.0000000001
44
0.0000000001
40
0
40
0
40
0
40
0
40
1
40
1
40
1
40
1
10
-232.71907264410842
20
25.981540374976007
30
0
10
-242.28209923127682
20
26.867718518795183
30
0
10
-248.79626072267087
20
28.266583392045508
30
0
10
-253.81998710651587
20
30.512788340470802
30
0
0
SPLINE
5
106
100
AcDbEntity
8
0
100
AcDbSpline
70
1064
71
3
72
8
73
4
74
0
42
0.000000001
43
0.0000000001
44
0.0000000001
40
0
40
0
40
0
40
0
40
1
40
1
40
1
40
1
10
-253.81998710651587
20
30.512788340470802
30
0
10
-256.2507031601607
20
31.599608307104923
30
0
10
-259.7415208500563
20
33.960252329728618
30
0
10
-260.67071659584235
20
35.145548197648537
30
0
0
SPLINE
5
107
100
AcDbEntity
8
0
100
AcDbSpline
70
1064
71
3
72
8
73
4
74
0
42
0.000000001
43
0.0000000001
44
0.0000000001
40
0
40
0
40
0
40
0
40
1
40
1
40
1
40
1
10
-260.67071659584235
20
35.145548197648537
30
0
10
-261.80700665334257
20
36.595015602331969
30
0
10
-263.47738979676757
20
40.436019846818461
30
0
10
-263.6212309441903
20
41.930171216549098
30
0
0
SPLINE
5
108
100
AcDbEntity
8
0
100
AcDbSpline
70
1064
71
3
72
8
73
4
74
0
42
0.000000001
43
0.0000000001
44
0.0000000001
40
0
40
0
40
0
40
0
40
1
40
1
40
1
40
1
10
-263.6212309441903
20
41.930171216549098
30
0
10
-263.76591788946979
20
43.433123728654408
30
0
10
-263.26712626635424
20
47.644470354936139
30
0
10
-262.73501747468504
20
49.412531039140234
30
0
0
SPLINE
5
109
100
AcDbEntity
8
0
100
AcDbSpline
70
1064
71
3
72
8
73
4
74
0
42
0.000000001
43
0.0000000001
44
0.0000000001
40
0
40
0
40
0
40
0
40
1
40
1
40
1
40
1
10
-262.73501747468504
20
49.412531039140234
30
0
10
-262.52458135306233
20
50.11175354025923
30
0
10
-262.35240597744178
20
51.729395434281841
30
0
10
-262.35240597744178
20
53.007280934871858
30
0
0
SPLINE
5
110
100
AcDbEntity
8
0
100
AcDbSpline
70
1064
71
3
72
8
73
4
74
0
42
0.000000001
43
0.0000000001
44
0.0000000001
40
0
40
0
40
0
40
0
40
1
40
1
40
1
40
1
10
-262.35240597744178
20
53.007280934871858
30
0
10
-262.35240597744178
20
54.805749969702582
30
0
10
-262.20601734339584
20
55.737799021623147
30
0
10
-261.70450463314245
20
57.132416738094506
30
0
0
SPLINE
5
111
100
AcDbEntity
8
0
100
AcDbSpline
70
1064
71
3
72
8
73
4
74
0
42
0.000000001
43
0.0000000001
44
0.0000000001
40
0
40
0
40
0
40
0
40
1
40
1
40
1
40
1
10
-261.70450463314245
20
57.132416738094506
30
0
10
-261.34815626958402
20
58.123352699499947
30
0
10
-260.83104878285917
20
59.946158104163032
30
0
10
-260.55537419338418
20
61.183081957719345
30
0
0
SPLINE
5
112
100
AcDbEntity
8
0
100
AcDbSpline
70
1064
71
3
72
8
73
4
74
0
42
0.000000001
43
0.0000000001
44
0.0000000001
40
0
40
0
40
0
40
0
40
1
40
1
40
1
40
1
10
-260.55537419338418
20
61.183081957719345
30
0
10
-259.9925815107365
20
63.708266970536727
30
0
10
-259.16609368343541
20
65.526833292863387
30
0
10
-258.39328878739866
20
65.940430463375264
30
0
0
SPLINE
5
113
100
AcDbEntity
8
0
100
AcDbSpline
70
1064
71
3
72
8
73
4
74
0
42
0.000000001
43
0.0000000001
44
0.0000000001
40
0
40
0
40
0
40
0
40
1
40
1
40
1
40
1
10
-258.39328878739866
20
65.940430463375264
30
0
10
-257.72140231151769
20
66.300009613257274
30
0
10
-255.88496119200579
20
65.899266955277938
30
0
10
-255.11733403225136
20
65.225559692602971
30
0
0
SPLINE
5
114
100
AcDbEntity
8
0
100
AcDbSpline
70
1064
71
3
72
8
73
4
74
0
42
0.000000001
43
0.0000000001
44
0.0000000001
40
0
40
0
40
0
40
0
40
1
40
1
40
1
40
1
10
-255.11733403225136
20
65.225559692602971
30
0
10
-254.80375700016211
20
64.95035039287967
30
0
10
-253.69795200049271
20
63.957977180701121
30
0
10
-252.65998644848059
20
63.020276018998644
30
0
0
SPLINE
5
115
100
AcDbEntity
8
0
100
AcDbSpline
70
1064
71
3
72
8
73
4
74
0
42
0.000000001
43
0.0000000001
44
0.0000000001
40
0
40
0
40
0
40
0
40
1
40
1
40
1
40
1
10
-252.65998644848059
20
63.020276018998644
30
0
10
-250.42930461584916
20
61.00508894624474
30
0
10
-248.43977206567317
20
59.762012367468699
30
0
10
-246.06625940024247
20
58.900477422298607
30
0
0
SPLINE
5
116
100
AcDbEntity
8
0
100
AcDbSpline
70
1064
71
3
72
8
73
4
74
0
42
0.000000001
43
0.0000000001
44
0.0000000001
40
0
40
0
40
0
40
0
40
1
40
1
40
1
40
1
10
-246.06625940024247
20
58.900477422298607
30
0
10
-244.681030241841
20
58.397665736100699
30
0
10
-243.8122747264245
20
58.272665291052675
30
0
10
-241.70287102082762
20
58.272665291052675
30
0
0
SPLINE
5
117
100
AcDbEntity
8
0
100
AcDbSpline
70
1064
71
3
72
8
73
4
74
0
42
0.000000001
43
0.0000000001
44
0.0000000001
40
0
40
0
40
0
40
0
40
1
40
1
40
1
40
1
10
-241.70287102082762
20
58.272665291052675
30
0
10
-240.25428373038164
20
58.272665291052675
30
0
10
-239.06907264410845
20
58.372707634192331
30
0
10
-239.06907264410845
20
58.494978917659935
30
0
0
SPLINE
5
118
100
AcDbEntity
8
0
100
AcDbSpline
70
1064
71
3
72
8
73
4
74
0
42
0.000000001
43
0.0000000001
44
0.0000000001
40
0
40
0
40
0
40
0
40
1
40
1
40
1
40
1
10
-239.06907264410845
20
58.494978917659935
30
0
10
-239.06907264410845
20
58.617250201127547
30
0
10
-239.42638287563514
20
59.361390826127547
30
0
10
-239.86309717515499
20
60.148624750993271
30
0
0
SPLINE
5
119
100
AcDbEntity
8
0
100
AcDbSpline
70
1064
71
3
72
8
73
4
74
0
42
0.000000001
43
0.0000000001
44
0.0000000001
40
0
40
0
40
0
40
0
40
1
40
1
40
1
40
1
10
-239.86309717515499
20
60.148624750993271
30
0
10
-242.80478615780066
20
65.45140185060265
30
0
10
-242.16336455364416
20
71.337262706976759
30
0
10
-238.16904279410235
20
75.693840294104447
30
0
0
SPLINE
5
120
100
AcDbEntity
8
0
100
AcDbSpline
70
1064
71
3
72
8
73
4
74
0
42
0.000000001
43
0.0000000001
44
0.0000000001
40
0
40
0
40
0
40
0
40
1
40
1
40
1
40
1
10
-238.16904279410235
20
75.693840294104447
30
0
10
-235.01116464952023
20
79.138110841335475
30
0
10
-230.47041710237056
20
80.492909444393348
30
0
10
-225.49267265021197
20
79.476026261867702
30
0
0
SPLINE
5
121
100
AcDbEntity
8
0
100
AcDbSpline
70
1064
71
3
72
8
73
4
74
0
42
0.000000001
43
0.0000000001
44
0.0000000001
40
0
40
0
40
0
40
0
40
1
40
1
40
1
40
1
10
-225.49267265021197
20
79.476026261867702
30
0
10
-222.18312013963254
20
78.799933001420527
30
0
10
-219.86846006730588
20
77.710642255367461
30
0
10
-218.0135183813114
20
75.956320235154649
30
0
0
SPLINE
5
122
100
AcDbEntity
8
0
100
AcDbSpline
70
1064
71
3
72
8
73
4
74
0
42
0.000000001
43
0.0000000001
44
0.0000000001
40
0
40
0
40
0
40
0
40
1
40
1
40
1
40
1
10
-218.0135183813114
20
75.956320235154649
30
0
10
-216.45895403245478
20
74.486077289801472
30
0
10
-214.04565656999139
20
71.424075076005479
30
0
10
-213.30369200725744
20
69.980481828273952
30
0
0
SPLINE
5
123
100
AcDbEntity
8
0
100
AcDbSpline
70
1064
71
3
72
8
73
4
74
0
42
0.000000001
43
0.0000000001
44
0.0000000001
40
0
40
0
40
0
40
0
40
1
40
1
40
1
40
1
10
-213.30369200725744
20
69.980481828273952
30
0
10
-212.88109990774981
20
69.158265381079531
30
0
10
-212.79371425330032
20
69.120585994940626
30
0
10
-211.3093369962711
20
69.120585994940626
30
0
0
SPLINE
5
124
100
AcDbEntity
8
0
100
AcDbSpline
70
1064
71
3
72
8
73
4
74
0
42
0.000000001
43
0.0000000001
44
0.0000000001
40
0
40
0
40
0
40
0
40
1
40
1
40
1
40
1
10
-211.3093369962711
20
69.120585994940626
30
0
10
-210.11609991410762
20
69.120585994940626
30
0
10
-209.71850628872107
20
69.020434646826601
30
0
10
-209.59082512874795
20
68.687694943966093
30
0
0
SPLINE
5
125
100
AcDbEntity
8
0
100
AcDbSpline
70
1064
71
3
72
8
73
4
74
0
42
0.000000001
43
0.0000000001
44
0.0000000001
40
0
40
0
40
0
40
0
40
1
40
1
40
1
40
1
10
-209.59082512874795
20
68.687694943966093
30
0
10
-209.43702718436114
20
68.286895764888953
30
0
10
-209.38924667059769
20
68.286895764888953
30
0
10
-208.94637157141557
20
68.687694943966093
30
0
0
SPLINE
5
126
100
AcDbEntity
8
0
100
AcDbSpline
70
1064
71
3
72
8
73
4
74
0
42
0.000000001
43
0.0000000001
44
0.0000000001
40
0
40
0
40
0
40
0
40
1
40
1
40
1
40
1
10
-208.94637157141557
20
68.687694943966093
30
0
10
-207.86292672176552
20
69.66819872560265
30
0
10
-206.78087067623326
20
68.776630891384315
30
0
10
-206.58540457109007
20
66.742359873673934
30
0
0
SPLINE
5
127
100
AcDbEntity
8
0
100
AcDbSpline
70
1064
71
3
72
8
73
4
74
0
42
0.000000001
43
0.0000000001
44
0.0000000001
40
0
40
0
40
0
40
0
40
1
40
1
40
1
40
1
10
-206.58540457109007
20
66.742359873673934
30
0
10
-206.46415874182571
20
65.480550588192173
30
0
10
-206.50584708868851
20
65.37333814007205
30
0
10
-207.45614438076211
20
64.50289708477419
30
0
0
SPLINE
5
128
100
AcDbEntity
8
0
100
AcDbSpline
70
1064
71
3
72
8
73
4
74
0
42
0.000000001
43
0.0000000001
44
0.0000000001
40
0
40
0
40
0
40
0
40
1
40
1
40
1
40
1
10
-207.45614438076211
20
64.50289708477419
30
0
10
-208.4316097102502
20
63.609403496008738
30
0
10
-208.44435925502967
20
63.573633715531848
30
0
10
-208.01894110063105
20
62.924367790442332
30
0
0
SPLINE
5
129
100
AcDbEntity
8
0
100
AcDbSpline
70
1064
71
3
72
8
73
4
74
0
42
0.000000001
43
0.0000000001
44
0.0000000001
40
0
40
0
40
0
40
0
40
1
40
1
40
1
40
1
10
-208.01894110063105
20
62.924367790442332
30
0
10
-207.56926732082553
20
62.2380886207239
30
0
10
-207.46112631181268
20
61.281097615780055
30
0
10
-207.74857646643511
20
60.531999283057075
30
0
0
SPLINE
5
130
100
AcDbEntity
8
0
100
AcDbSpline
70
1064
71
3
72
8
73
4
74
0
42
0.000000001
43
0.0000000001
44
0.0000000001
40
0
40
0
40
0
40
0
40
1
40
1
40
1
40
1
10
-207.74857646643511
20
60.531999283057075
30
0
10
-207.97878689785193
20
59.932076276363553
30
0
10
-209.54334740657995
20
59.190519472978131
30
0
10
-211.42011027355383
20
58.791787351192653
30
0
0
SPLINE
5
131
100
AcDbEntity
8
0
100
AcDbSpline
70
1064
71
3
72
8
73
4
74
0
42
0.000000001
43
0.0000000001
44
0.0000000001
40
0
40
0
40
0
40
0
40
1
40
1
40
1
40
1
10
-211.42011027355383
20
58.791787351192653
30
0
10
-213.00595501283198
20
58.45486508709353
30
0
10
-215.64285397548866
20
56.836213887752713
30
0
10
-215.9623838903446
20
56.003528925797958
30
0
0
SPLINE
5
132
100
AcDbEntity
8
0
100
AcDbSpline
70
1064
71
3
72
8
73
4
74
0
42
0.000000001
43
0.0000000001
44
0.0000000001
40
0
40
0
40
0
40
0
40
1
40
1
40
1
40
1
10
-215.9623838903446
20
56.003528925797958
30
0
10
-216.24072607377559
20
55.278185603044051
30
0
10
-214.42896246929359
20
53.000877901933222
30
0
10
-212.08900113125037
20
51.134858080766215
30
0
0
SPLINE
5
133
100
AcDbEntity
8
0
100
AcDbSpline
70
1064
71
3
72
8
73
4
74
0
42
0.000000001
43
0.0000000001
44
0.0000000001
40
0
40
0
40
0
40
0
40
1
40
1
40
1
40
1
10
-212.08900113125037
20
51.134858080766215
30
0
10
-206.14314312954139
20
46.393278961401805
30
0
10
-203.75249447841833
20
42.084296175858995
30
0
10
-204.30569876054318
20
37.106014773271099
30
0
0
SPLINE
5
134
100
AcDbEntity
8
0
100
AcDbSpline
70
1064
71
3
72
8
73
4
74
0
42
0.000000001
43
0.0000000001
44
0.0000000001
40
0
40
0
40
0
40
0
40
1
40
1
40
1
40
1
10
-204.30569876054318
20
37.106014773271099
30
0
10
-204.80304404913772
20
32.630432014685482
30
0
10
-209.0342699529667
20
28.506257070125756
30
0
10
-214.48614970862258
20
27.183130467952896
30
0
0
SPLINE
5
135
100
AcDbEntity
8
0
100
AcDbSpline
70
1064
71
3
72
8
73
4
74
0
42
0.000000001
43
0.0000000001
44
0.0000000001
40
0
40
0
40
0
40
0
40
1
40
1
40
1
40
1
10
-214.48614970862258
20
27.183130467952896
30
0
10
-219.26680912990761
20
26.022905744136988
30
0
10
-227.38909274756304
20
25.487626724463315
30
0
10
-232.71907264410842
20
25.981540374976007
30
0
0
ENDSEC
0
SECTION
2
OBJECTS
0
DICTIONARY
5
C
100
AcDbDictionary
3
ACAD_GROUP
350
D
3
ACAD_MLINESTYLE
350
17
0
DICTIONARY
5
D
100
AcDbDictionary
0
DICTIONARY
5
1A
330
C
100
AcDbDictionary
0
DICTIONARY
5
17
100
AcDbDictionary
0
ENDSEC
0
EOF
