0
SECTION
2
HEADER
9
$INSUNITS
70
4
9
$ACADVER
1
AC1014
9
$HANDSEED
5
FFFF
0
ENDSEC
0
SECTION
2
TABLES
0
TABLE
2
VPORT
5
8
100
AcDbSymbolTable
0
ENDTAB
0
TABLE
2
LTYPE
5
5
100
AcDbSymbolTable
0
LTYPE
5
14
100
AcDbSymbolTableRecord
100
AcDbLinetypeTableRecord
2
BYBLOCK
70
0
0
LTYPE
5
15
100
AcDbSymbolTableRecord
100
AcDbLinetypeTableRecord
2
BYLAYER
70
0
0
ENDTAB
0
TABLE
2
LAYER
5
2
100
AcDbSymbolTable
70
2
0
LAYER
5
50
100
AcDbSymbolTableRecord
100
AcDbLayerTableRecord
2
0
70
0
6
CONTINUOUS
0
ENDTAB
0
TABLE
2
STYLE
5
3
100
AcDbSymbolTable
70
1
0
STYLE
5
11
100
AcDbSymbolTableRecord
100
AcDbTextStyleTableRecord
2
STANDARD
70
0
0
ENDTAB
0
TABLE
2
VIEW
5
6
100
AcDbSymbolTable
70
0
0
ENDTAB
0
TABLE
2
UCS
5
7
100
AcDbSymbolTable
70
0
0
ENDTAB
0
TABLE
2
APPID
5
9
100
AcDbSymbolTable
70
2
0
APPID
5
12
100
AcDbSymbolTableRecord
100
AcDbRegAppTableRecord
2
ACAD
70
0
0
ENDTAB
0
TABLE
2
DIMSTYLE
5
A
100
AcDbSymbolTable
70
1
0
ENDTAB
0
TABLE
2
BLOCK_RECORD
5
1
100
AcDbSymbolTable
70
1
0
BLOCK_RECORD
5
1F
100
AcDbSymbolTableRecord
100
AcDbBlockTableRecord
2
*MODEL_SPACE
0
BLOCK_RECORD
5
1B
100
AcDbSymbolTableRecord
100
AcDbBlockTableRecord
2
*PAPER_SPACE
0
ENDTAB
0
ENDSEC
0
SECTION
2
BLOCKS
0
BLOCK
5
20
100
AcDbEntity
100
AcDbBlockBegin
2
*MODEL_SPACE
0
ENDBLK
5
21
100
AcDbEntity
100
AcDbBlockEnd
0
BLOCK
5
1C
100
AcDbEntity
100
AcDbBlockBegin
2
*PAPER_SPACE
0
ENDBLK
5
1D
100
AcDbEntity
100
AcDbBlockEnd
0
ENDSEC
0
SECTION
2
ENTITIES
0
CIRCLE
5
100
100
AcDbEntity
8
0
100
AcDbCircle
10
132
20
80
30
0
40
2.5499999999999989
0
CIRCLE
5
101
100
AcDbEntity
8
0
100
AcDbCircle
10
9
20
80
30
0
40
2.5499999999999989
0
LWPOLYLINE
5
102
100
AcDbEntity
8
0
100
AcDbPolyline
90
44
70
1
43
0.0
10
4
20
81.142857142857139
10
4.0000000000000036
20
94
10
137
20
94
10
137
20
81.142857142857139
10
141
20
81.142857142857139
10
141
20
68.285714285714292
10
137
20
68.285714285714292
10
137
20
55.428571428571431
10
141
20
55.428571428571431
10
141
20
42.571428571428569
10
137
20
42.571428571428569
10
137
20
29.714285714285715
10
141
20
29.714285714285715
10
141
20
16.857142857142851
10
137
20
16.857142857142851
10
137
20
4
10
126.90000000000001
20
4.0000000000000036
10
126.90000000000001
20
0
10
112.80000000000001
20
0
10
112.80000000000001
20
4.0000000000000036
10
98.700000000000017
20
4.0000000000000036
10
98.700000000000017
20
0
10
84.600000000000009
20
0
10
84.600000000000009
20
4.0000000000000036
10
56.400000000000006
20
4.0000000000000036
10
56.400000000000006
20
0
10
42.300000000000004
20
0
10
42.300000000000004
20
4.0000000000000036
10
28.200000000000003
20
4.0000000000000036
10
28.200000000000003
20
0
10
14.100000000000001
20
0
10
14.100000000000001
20
4.0000000000000036
10
4
20
3.9999999999999991
10
4
20
16.857142857142851
10
0
20
16.857142857142851
10
0
20
29.714285714285715
10
4
20
29.714285714285715
10
4
20
42.571428571428569
10
0
20
42.571428571428569
10
0
20
55.428571428571431
10
4
20
55.428571428571431
10
4
20
68.285714285714292
10
0
20
68.285714285714292
10
0
20
81.142857142857139
0
SPLINE
5
103
100
AcDbEntity
8
0
100
AcDbSpline
70
1064
71
3
72
8
73
4
74
0
42
0.000000001
43
0.0000000001
44
0.0000000001
40
0
40
0
40
0
40
0
40
1
40
1
40
1
40
1
10
72.130490508650468
20
16.071595872698374
30
0
10
84.498560986831151
20
17.217709358745292
30
0
10
92.92346786097049
20
19.026891753472288
30
0
10
99.420762562823754
20
21.931957514539917
30
0
0
SPLINE
5
104
100
AcDbEntity
8
0
100
AcDbSpline
70
1064
71
3
72
8
73
4
74
0
42
0.000000001
43
0.0000000001
44
0.0000000001
40
0
40
0
40
0
40
0
40
1
40
1
40
1
40
1
10
99.420762562823754
20
21.931957514539917
30
0
10
102.56446055319252
20
23.337565438129815
30
0
10
107.07921106879191
20
26.390637745267576
30
0
10
108.28096015598233
20
27.923606695871594
30
0
0
SPLINE
5
105
100
AcDbEntity
8
0
100
AcDbSpline
70
1064
71
3
72
8
73
4
74
0
42
0.000000001
43
0.0000000001
44
0.0000000001
40
0
40
0
40
0
40
0
40
1
40
1
40
1
40
1
10
108.28096015598233
20
27.923606695871594
30
0
10
109.75054882508375
20
29.798234446149401
30
0
10
111.91089170974811
20
34.765888856578755
30
0
10
112.09692459722064
20
36.698307351649632
30
0
0
SPLINE
5
106
100
AcDbEntity
8
0
100
AcDbSpline
70
1064
71
3
72
8
73
4
74
0
42
0.000000001
43
0.0000000001
44
0.0000000001
40
0
40
0
40
0
40
0
40
1
40
1
40
1
40
1
10
112.09692459722064
20
36.698307351649632
30
0
10
112.28405137347471
20
38.642108555759975
30
0
10
111.63895330829763
20
44.088734831147519
30
0
10
110.95076542369478
20
46.375406205801895
30
0
0
SPLINE
5
107
100
AcDbEntity
8
0
100
AcDbSpline
70
1064
71
3
72
8
73
4
74
0
42
0.000000001
43
0.0000000001
44
0.0000000001
40
0
40
0
40
0
40
0
40
1
40
1
40
1
40
1
10
110.95076542369478
20
46.375406205801895
30
0
10
110.67860380627577
20
47.279725889004837
30
0
10
110.45592564462146
20
49.371857367607532
30
0
10
110.45592564462146
20
51.024574505877268
30
0
0
SPLINE
5
108
100
AcDbEntity
8
0
100
AcDbSpline
70
1064
71
3
72
8
73
4
74
0
42
0.000000001
43
0.0000000001
44
0.0000000001
40
0
40
0
40
0
40
0
40
1
40
1
40
1
40
1
10
110.45592564462146
20
51.024574505877268
30
0
10
110.45592564462146
20
53.350573662405637
30
0
10
110.26659803723888
20
54.556012992538108
30
0
10
109.61798073082669
20
56.359702446939636
30
0
0
SPLINE
5
109
100
AcDbEntity
8
0
100
AcDbSpline
70
1064
71
3
72
8
73
4
74
0
42
0.000000001
43
0.0000000001
44
0.0000000001
40
0
40
0
40
0
40
0
40
1
40
1
40
1
40
1
10
109.61798073082669
20
56.359702446939636
30
0
10
109.15710763431255
20
57.641301499113254
30
0
10
108.4883212639819
20
59.998775412563617
30
0
10
108.13178531580778
20
61.598515960964342
30
0
0
SPLINE
5
110
100
AcDbEntity
8
0
100
AcDbSpline
70
1064
71
3
72
8
73
4
74
0
42
0.000000001
43
0.0000000001
44
0.0000000001
40
0
40
0
40
0
40
0
40
1
40
1
40
1
40
1
10
108.13178531580778
20
61.598515960964342
30
0
10
107.40391328699518
20
64.864392712878583
30
0
10
106.33499858679625
20
67.216384128855807
30
0
10
105.33551319031193
20
67.751298353744701
30
0
0
SPLINE
5
111
100
AcDbEntity
8
0
100
AcDbSpline
70
1064
71
3
72
8
73
4
74
0
42
0.000000001
43
0.0000000001
44
0.0000000001
40
0
40
0
40
0
40
0
40
1
40
1
40
1
40
1
10
105.33551319031193
20
67.751298353744701
30
0
10
104.4665477836715
20
68.216349896547285
30
0
10
102.09143850334922
20
67.698060692567424
30
0
10
101.09864958592138
20
66.826740422726644
30
0
0
SPLINE
5
112
100
AcDbEntity
8
0
100
AcDbSpline
70
1064
71
3
72
8
73
4
74
0
42
0.000000001
43
0.0000000001
44
0.0000000001
40
0
40
0
40
0
40
0
40
1
40
1
40
1
40
1
10
101.09864958592138
20
66.826740422726644
30
0
10
100.69309358355468
20
66.470806243918034
30
0
10
99.262931903424359
20
65.187348364029702
30
0
10
97.920508457855874
20
63.974599037266401
30
0
0
SPLINE
5
113
100
AcDbEntity
8
0
100
AcDbSpline
70
1064
71
3
72
8
73
4
74
0
42
0.000000001
43
0.0000000001
44
0.0000000001
40
0
40
0
40
0
40
0
40
1
40
1
40
1
40
1
10
97.920508457855874
20
63.974599037266401
30
0
10
95.035519080392277
20
61.36831372420643
30
0
10
92.462413319897138
20
59.760615722330414
30
0
10
89.392697716858777
20
58.646373821594011
30
0
0
SPLINE
5
114
100
AcDbEntity
8
0
100
AcDbSpline
70
1064
71
3
72
8
73
4
74
0
42
0.000000001
43
0.0000000001
44
0.0000000001
40
0
40
0
40
0
40
0
40
1
40
1
40
1
40
1
10
89.392697716858777
20
58.646373821594011
30
0
10
87.601150689003688
20
57.99607652131327
30
0
10
86.477570267571394
20
57.834410724395759
30
0
10
83.749432532101267
20
57.834410724395759
30
0
0
SPLINE
5
115
100
AcDbEntity
8
0
100
AcDbSpline
70
1064
71
3
72
8
73
4
74
0
42
0.000000001
43
0.0000000001
44
0.0000000001
40
0
40
0
40
0
40
0
40
1
40
1
40
1
40
1
10
83.749432532101267
20
57.834410724395759
30
0
10
81.875943052727393
20
57.834410724395759
30
0
10
80.343083752072815
20
57.96379766476187
30
0
10
80.343083752072815
20
58.121933777591899
30
0
0
SPLINE
5
116
100
AcDbEntity
8
0
100
AcDbSpline
70
1064
71
3
72
8
73
4
74
0
42
0.000000001
43
0.0000000001
44
0.0000000001
40
0
40
0
40
0
40
0
40
1
40
1
40
1
40
1
10
80.343083752072815
20
58.121933777591899
30
0
10
80.343083752072815
20
58.280069890421927
30
0
10
80.805200853370735
20
59.242483161135482
30
0
10
81.370012964479841
20
60.260629934733139
30
0
0
SPLINE
5
117
100
AcDbEntity
8
0
100
AcDbSpline
70
1064
71
3
72
8
73
4
74
0
42
0.000000001
43
0.0000000001
44
0.0000000001
40
0
40
0
40
0
40
0
40
1
40
1
40
1
40
1
10
81.370012964479841
20
60.260629934733139
30
0
10
85.17456336812171
20
67.118827002390887
30
0
10
84.344998843321576
20
74.731138986766027
30
0
10
79.179055552854166
20
80.365595625583367
30
0
0
SPLINE
5
118
100
AcDbEntity
8
0
100
AcDbSpline
70
1064
71
3
72
8
73
4
74
0
42
0.000000001
43
0.0000000001
44
0.0000000001
40
0
40
0
40
0
40
0
40
1
40
1
40
1
40
1
10
79.179055552854166
20
80.365595625583367
30
0
10
75.094902999508292
20
84.820145708214596
30
0
10
69.222255341900748
20
86.572336236351759
30
0
10
62.784430073352581
20
85.257179078216353
30
0
0
SPLINE
5
119
100
AcDbEntity
8
0
100
AcDbSpline
70
1064
71
3
72
8
73
4
74
0
42
0.000000001
43
0.0000000001
44
0.0000000001
40
0
40
0
40
0
40
0
40
1
40
1
40
1
40
1
10
62.784430073352581
20
85.257179078216353
30
0
10
58.504113760417766
20
84.382772945512102
30
0
10
55.51051349729817
20
82.973969509109295
30
0
10
53.111477031575234
20
80.705066647694053
30
0
0
SPLINE
5
120
100
AcDbEntity
8
0
100
AcDbSpline
70
1064
71
3
72
8
73
4
74
0
42
0.000000001
43
0.0000000001
44
0.0000000001
40
0
40
0
40
0
40
0
40
1
40
1
40
1
40
1
10
53.111477031575234
20
80.705066647694053
30
0
10
51.10092511537286
20
78.803569438371696
30
0
10
47.979754968192537
20
74.843415313589773
30
0
10
47.02015604618186
20
72.976384738381896
30
0
0
SPLINE
5
121
100
AcDbEntity
8
0
100
AcDbSpline
70
1064
71
3
72
8
73
4
74
0
42
0.000000001
43
0.0000000001
44
0.0000000001
40
0
40
0
40
0
40
0
40
1
40
1
40
1
40
1
10
47.02015604618186
20
72.976384738381896
30
0
10
46.473608483797584
20
71.912994307065418
30
0
10
46.360590714458411
20
71.864262736668451
30
0
10
44.440813292132759
20
71.864262736668451
30
0
0
SPLINE
5
122
100
AcDbEntity
8
0
100
AcDbSpline
70
1064
71
3
72
8
73
4
74
0
42
0.000000001
43
0.0000000001
44
0.0000000001
40
0
40
0
40
0
40
0
40
1
40
1
40
1
40
1
10
44.440813292132759
20
71.864262736668451
30
0
10
42.897573796262378
20
71.864262736668451
30
0
10
42.383357304691117
20
71.734734817795882
30
0
10
42.218224480800131
20
71.304395316137516
30
0
0
SPLINE
5
123
100
AcDbEntity
8
0
100
AcDbSpline
70
1064
71
3
72
8
73
4
74
0
42
0.000000001
43
0.0000000001
44
0.0000000001
40
0
40
0
40
0
40
0
40
1
40
1
40
1
40
1
10
42.218224480800131
20
71.304395316137516
30
0
10
42.019314251048442
20
70.786033012191339
30
0
10
41.957518672386897
20
70.786033012191339
30
0
10
41.384738664950191
20
71.304395316137516
30
0
0
SPLINE
5
124
100
AcDbEntity
8
0
100
AcDbSpline
70
1064
71
3
72
8
73
4
74
0
42
0.000000001
43
0.0000000001
44
0.0000000001
40
0
40
0
40
0
40
0
40
1
40
1
40
1
40
1
10
41.384738664950191
20
71.304395316137516
30
0
10
39.983495853634139
20
72.572502203101052
30
0
10
38.584049212918821
20
71.419418113123996
30
0
10
38.331248643719235
20
68.788451118582572
30
0
0
SPLINE
5
125
100
AcDbEntity
8
0
100
AcDbSpline
70
1064
71
3
72
8
73
4
74
0
42
0.000000001
43
0.0000000001
44
0.0000000001
40
0
40
0
40
0
40
0
40
1
40
1
40
1
40
1
10
38.331248643719235
20
68.788451118582572
30
0
10
38.174438773135094
20
67.15652569930144
30
0
10
38.228355219713812
20
67.017865506066471
30
0
10
39.457395396111593
20
65.892105139210315
30
0
0
SPLINE
5
126
100
AcDbEntity
8
0
100
AcDbSpline
70
1064
71
3
72
8
73
4
74
0
42
0.000000001
43
0.0000000001
44
0.0000000001
40
0
40
0
40
0
40
0
40
1
40
1
40
1
40
1
10
39.457395396111593
20
65.892105139210315
30
0
10
40.718985943221341
20
64.736530428952619
30
0
10
40.735475207050072
20
64.690268593131634
30
0
10
40.185272646350363
20
63.850558837293136
30
0
0
SPLINE
5
127
100
AcDbEntity
8
0
100
AcDbSpline
70
1064
71
3
72
8
73
4
74
0
42
0.000000001
43
0.0000000001
44
0.0000000001
40
0
40
0
40
0
40
0
40
1
40
1
40
1
40
1
10
40.185272646350363
20
63.850558837293136
30
0
10
39.603699757251967
20
62.962979046374855
30
0
10
39.463838635999068
20
61.725281745395684
30
0
10
39.835604178939633
20
60.75645656335162
30
0
0
SPLINE
5
128
100
AcDbEntity
8
0
100
AcDbSpline
70
1064
71
3
72
8
73
4
74
0
42
0.000000001
43
0.0000000001
44
0.0000000001
40
0
40
0
40
0
40
0
40
1
40
1
40
1
40
1
10
39.835604178939633
20
60.75645656335162
30
0
10
40.133340341714323
20
59.980563078100474
30
0
10
42.156820509100967
20
59.021491520132443
30
0
10
44.584078783245161
20
58.505802586382686
30
0
0
SPLINE
5
129
100
AcDbEntity
8
0
100
AcDbSpline
70
1064
71
3
72
8
73
4
74
0
42
0.000000001
43
0.0000000001
44
0.0000000001
40
0
40
0
40
0
40
0
40
1
40
1
40
1
40
1
10
44.584078783245161
20
58.505802586382686
30
0
10
46.635086309373136
20
58.070053687217502
30
0
10
50.04544514469621
20
55.976616852073576
30
0
10
50.458700139943033
20
54.899687262711524
30
0
0
SPLINE
5
130
100
AcDbEntity
8
0
100
AcDbSpline
70
1064
71
3
72
8
73
4
74
0
42
0.000000001
43
0.0000000001
44
0.0000000001
40
0
40
0
40
0
40
0
40
1
40
1
40
1
40
1
10
50.458700139943033
20
54.899687262711524
30
0
10
50.818686145455594
20
53.961584952221727
30
0
10
48.475492832566225
20
51.016293323979752
30
0
10
45.449169891671218
20
48.602929264860336
30
0
0
SPLINE
5
131
100
AcDbEntity
8
0
100
AcDbSpline
70
1064
71
3
72
8
73
4
74
0
42
0.000000001
43
0.0000000001
44
0.0000000001
40
0
40
0
40
0
40
0
40
1
40
1
40
1
40
1
10
45.449169891671218
20
48.602929264860336
30
0
10
37.759262293059578
20
42.470541762680071
30
0
10
34.667384346664321
20
36.897640516920674
30
0
10
35.382855488335295
20
30.459120798692574
30
0
0
SPLINE
5
132
100
AcDbEntity
8
0
100
AcDbSpline
70
1064
71
3
72
8
73
4
74
0
42
0.000000001
43
0.0000000001
44
0.0000000001
40
0
40
0
40
0
40
0
40
1
40
1
40
1
40
1
10
35.382855488335295
20
30.459120798692574
30
0
10
36.026082977588786
20
24.67075218081261
30
0
10
41.498419555412283
20
19.336866939177479
30
0
10
48.549454334191964
20
17.625638499303911
30
0
0
SPLINE
5
133
100
AcDbEntity
8
0
100
AcDbSpline
70
1064
71
3
72
8
73
4
74
0
42
0.000000001
43
0.0000000001
44
0.0000000001
40
0
40
0
40
0
40
0
40
1
40
1
40
1
40
1
10
48.549454334191964
20
17.625638499303911
30
0
10
54.73238524164843
20
16.125094605183889
30
0
10
65.237111471493648
20
15.43280659568504
30
0
10
72.130490508650468
20
16.071595872698374
30
0
0
CIRCLE
5
134
100
AcDbEntity
8
0
100
AcDbCircle
10
9
20
61.999999999999993
30
0
40
2.5499999999999998
0
CIRCLE
5
135
100
AcDbEntity
8
0
100
AcDbCircle
10
132
20
61.999999999999993
30
0
40
2.5499999999999963
0
ENDSEC
0
SECTION
2
OBJECTS
0
DICTIONARY
5
C
100
AcDbDictionary
3
ACAD_GROUP
350
D
3
ACAD_MLINESTYLE
350
17
0
DICTIONARY
5
D
100
AcDbDictionary
0
DICTIONARY
5
1A
330
C
100
AcDbDictionary
0
DICTIONARY
5
17
100
AcDbDictionary
0
ENDSEC
0
EOF
