0
SECTION
2
HEADER
9
$INSUNITS
70
4
9
$ACADVER
1
AC1014
9
$HANDSEED
5
FFFF
0
ENDSEC
0
SECTION
2
TABLES
0
TABLE
2
VPORT
5
8
100
AcDbSymbolTable
0
ENDTAB
0
TABLE
2
LTYPE
5
5
100
AcDbSymbolTable
0
LTYPE
5
14
100
AcDbSymbolTableRecord
100
AcDbLinetypeTableRecord
2
BYBLOCK
70
0
0
LTYPE
5
15
100
AcDbSymbolTableRecord
100
AcDbLinetypeTableRecord
2
BYLAYER
70
0
0
ENDTAB
0
TABLE
2
LAYER
5
2
100
AcDbSymbolTable
70
2
0
LAYER
5
50
100
AcDbSymbolTableRecord
100
AcDbLayerTableRecord
2
0
70
0
6
CONTINUOUS
0
ENDTAB
0
TABLE
2
STYLE
5
3
100
AcDbSymbolTable
70
1
0
STYLE
5
11
100
AcDbSymbolTableRecord
100
AcDbTextStyleTableRecord
2
STANDARD
70
0
0
ENDTAB
0
TABLE
2
VIEW
5
6
100
AcDbSymbolTable
70
0
0
ENDTAB
0
TABLE
2
UCS
5
7
100
AcDbSymbolTable
70
0
0
ENDTAB
0
TABLE
2
APPID
5
9
100
AcDbSymbolTable
70
2
0
APPID
5
12
100
AcDbSymbolTableRecord
100
AcDbRegAppTableRecord
2
ACAD
70
0
0
ENDTAB
0
TABLE
2
DIMSTYLE
5
A
100
AcDbSymbolTable
70
1
0
ENDTAB
0
TABLE
2
BLOCK_RECORD
5
1
100
AcDbSymbolTable
70
1
0
BLOCK_RECORD
5
1F
100
AcDbSymbolTableRecord
100
AcDbBlockTableRecord
2
*MODEL_SPACE
0
BLOCK_RECORD
5
1B
100
AcDbSymbolTableRecord
100
AcDbBlockTableRecord
2
*PAPER_SPACE
0
ENDTAB
0
ENDSEC
0
SECTION
2
BLOCKS
0
BLOCK
5
20
100
AcDbEntity
100
AcDbBlockBegin
2
*MODEL_SPACE
0
ENDBLK
5
21
100
AcDbEntity
100
AcDbBlockEnd
0
BLOCK
5
1C
100
AcDbEntity
100
AcDbBlockBegin
2
*PAPER_SPACE
0
ENDBLK
5
1D
100
AcDbEntity
100
AcDbBlockEnd
0
ENDSEC
0
SECTION
2
ENTITIES
0
LWPOLYLINE
5
100
100
AcDbEntity
8
0
100
AcDbPolyline
90
234
70
1
43
0.0
10
20
20
-50
10
10
20
-50
10
10
20
-46
10
0
20
-46
10
0
20
-50
10
-10
20
-50
10
-10
20
-46
10
-20
20
-46
10
-20
20
-50
10
-30
20
-50
10
-30
20
-46
10
-40
20
-46
10
-40
20
-50
10
-50
20
-50
10
-50
20
-46
10
-60
20
-46
10
-60
20
-50
10
-70
20
-50
10
-70
20
-46
10
-80
20
-46
10
-80
20
-50
10
-90
20
-50
10
-90
20
-46
10
-100
20
-46
10
-100
20
-50
10
-110
20
-50
10
-110
20
-46
10
-120
20
-46
10
-120
20
-50
10
-130
20
-50
10
-130
20
-46
10
-140
20
-46
10
-140
20
-50
10
-150
20
-50
10
-150
20
-46
10
-160
20
-46
10
-160
20
-50
10
-170
20
-50
10
-170
20
-46
10
-180
20
-46
10
-180
20
-50
10
-190
20
-50
10
-190
20
-46
10
-200
20
-46
10
-200
20
-50
10
-210
20
-50
10
-210
20
-46
10
-220
20
-46
10
-220
20
-50
10
-230
20
-50
10
-230
20
-46
10
-240
20
-46
10
-240
20
-50
10
-250
20
-50
10
-250
20
-46
10
-260
20
-46
10
-260
20
-50
10
-270
20
-50
10
-270
20
-46
10
-280
20
-46
10
-280
20
-50
10
-290
20
-50
10
-290
20
-46
10
-300
20
-46
10
-300
20
-50
10
-310
20
-50
10
-310
20
-46
10
-320
20
-46
10
-320
20
-50
10
-330
20
-50
10
-330
20
-46
10
-340
20
-46
10
-340
20
-50
10
-350
20
-50
10
-350
20
-46
10
-360
20
-46
10
-360
20
-50
10
-370
20
-50
10
-370
20
-46
10
-380
20
-46
10
-380
20
-50
10
-390
20
-50
10
-390
20
-46
10
-400
20
-46
10
-400
20
-50
10
-410
20
-50
10
-410
20
-46
10
-420
20
-46
10
-420
20
-50
10
-430
20
-50
10
-430
20
-46
10
-440
20
-46
10
-440
20
-50
10
-450
20
-50
10
-450
20
-46
10
-460
20
-46
10
-460
20
-50
10
-470
20
-50
10
-470
20
-46
10
-480
20
-46
10
-480
20
-50
10
-490
20
-50
10
-490
20
-46
10
-500
20
-46
10
-500
20
-50
10
-506
20
-50
10
-506
20
-34
10
-510
20
-34
10
-510
20
-18.000000000000007
10
-506
20
-18.000000000000007
10
-506
20
-2.0000000000000018
10
-510
20
-2.0000000000000018
10
-510
20
14
10
-506
20
14
10
-506
20
30
10
-499.82756577419372
20
30
10
-499.82756577419372
20
26
10
-489.65466254838731
20
26
10
-489.65466254838731
20
30
10
-479.48175932258084
20
30
10
-479.48175932258084
20
26
10
-469.30885609677432
20
26
10
-469.30885609677432
20
30
10
-459.13595287096791
20
30
10
-459.13595287096791
20
26
10
-448.9630496451615
20
26
10
-448.9630496451615
20
30
10
-438.79014641935498
20
30
10
-438.79014641935498
20
26
10
-428.61724319354846
20
26
10
-428.61724319354846
20
30
10
-418.44433996774205
20
30
10
-418.44433996774205
20
26
10
-408.27143674193564
20
26
10
-408.27143674193564
20
30
10
-398.09853351612912
20
30
10
-398.09853351612912
20
26
10
-387.92563029032266
20
26
10
-387.92563029032266
20
30
10
-377.75272706451625
20
30
10
-377.75272706451625
20
26
10
-367.57982383870979
20
26
10
-367.57982383870979
20
30
10
-357.40692061290332
20
30
10
-357.40692061290332
20
26
10
-347.23401738709686
20
26
10
-347.23401738709686
20
30
10
-337.06111416129039
20
30
10
-337.06111416129039
20
26
10
-326.88821093548398
20
26
10
-326.88821093548398
20
30
10
-316.71530770967752
20
30
10
-316.71530770967752
20
26
10
-306.54240448387105
20
26
10
-306.54240448387105
20
30
10
-296.36950125806459
20
30
10
-296.36950125806459
20
26
10
-286.19659803225812
20
26
10
-286.19659803225812
20
30
10
-276.02369480645166
20
30
10
-276.02369480645166
20
26
10
-265.85079158064519
20
26
10
-265.85079158064519
20
30
10
-255.67788835483873
20
30
10
-255.67788835483873
20
26
10
-245.50498512903229
20
26
10
-245.50498512903229
20
30
10
-235.33208190322583
20
30
10
-235.33208190322583
20
26
10
-225.15917867741936
20
26
10
-225.15917867741936
20
30
10
-214.64046900000002
20
30
10
-214.64046900000002
20
22
10
-206.64046900000002
20
22
10
-206.64046900000002
20
26
10
-204.81337222580646
20
26
10
-204.81337222580646
20
30
10
-184.4190476190476
20
30
10
-184.4190476190476
20
26
10
-174.19809523809519
20
26
10
-174.19809523809519
20
30
10
-163.97714285714284
20
30
10
-163.97714285714284
20
26
10
-153.75619047619045
20
26
10
-153.75619047619045
20
30
10
-143.53523809523807
20
30
10
-143.53523809523807
20
26
10
-133.31428571428569
20
26
10
-133.31428571428569
20
30
10
-123.09333333333331
20
30
10
-123.09333333333331
20
26
10
-112.87238095238094
20
26
10
-112.87238095238094
20
30
10
-102.65142857142855
20
30
10
-102.65142857142855
20
26
10
-92.43047619047617
20
26
10
-92.43047619047617
20
30
10
-82.209523809523802
20
30
10
-82.209523809523802
20
26
10
-71.988571428571419
20
26
10
-71.988571428571419
20
30
10
-61.767619047619036
20
30
10
-61.767619047619036
20
26
10
-51.546666666666653
20
26
10
-51.546666666666653
20
30
10
-41.325714285714277
20
30
10
-41.325714285714277
20
26
10
-31.104761904761897
20
26
10
-31.104761904761897
20
30
10
-20.883809523809518
20
30
10
-20.883809523809518
20
26
10
-10.662857142857138
20
26
10
-10.662857142857138
20
30
10
-0.44190476190475891
20
30
10
-0.44190476190475891
20
26
10
-3.9999999999999991
20
26
10
-3.9999999999999991
20
22
10
2.0000000000000018
20
22
10
2.0000000000000018
20
26
10
8.0000000000000036
20
26
10
8.0000000000000036
20
22
10
16.000000238418579
20
22
10
16.000000238418579
20
26
10
9.7790476190476205
20
26
10
9.7790476190476205
20
30
10
20
20
30
10
20
20
14.000000000000004
10
16
20
14.000000000000004
10
16
20
-1.9999999999999929
10
20
20
-1.9999999999999929
10
20
20
-18
10
16
20
-18
10
16
20
-34
10
20
20
-34
0
LWPOLYLINE
5
101
100
AcDbEntity
8
0
100
AcDbPolyline
90
4
70
1
43
0.0
10
-359.78918738499368
20
-41.111111111111107
10
-355.78918738499368
20
-41.111111111111107
10
-355.78918738499368
20
-32.222222222222221
10
-359.78918738499368
20
-32.222222222222221
0
LWPOLYLINE
5
102
100
AcDbEntity
8
0
100
AcDbPolyline
90
4
70
1
43
0.0
10
-359.78918738499368
20
-23.333333333333336
10
-355.78918738499368
20
-23.333333333333336
10
-355.78918738499368
20
-14.444444444444446
10
-359.78918738499368
20
-14.444444444444446
0
LWPOLYLINE
5
103
100
AcDbEntity
8
0
100
AcDbPolyline
90
4
70
1
43
0.0
10
-359.78918738499368
20
-5.5555555555555536
10
-355.78918738499368
20
-5.5555555555555536
10
-355.78918738499368
20
3.3333333333333304
10
-359.78918738499368
20
3.3333333333333304
0
LWPOLYLINE
5
104
100
AcDbEntity
8
0
100
AcDbPolyline
90
4
70
1
43
0.0
10
-190.640469
20
26
10
-198.64046900000002
20
26
10
-198.64046900000002
20
22
10
-190.640469
20
22
0
LWPOLYLINE
5
105
100
AcDbEntity
8
0
100
AcDbPolyline
90
4
70
1
43
0.0
10
-202.64046878921559
20
3.3333333333333348
10
-202.64046878921559
20
-5.5555555555555536
10
-198.64046878921559
20
-5.5555555555555536
10
-198.64046878921559
20
3.3333333333333348
0
LWPOLYLINE
5
106
100
AcDbEntity
8
0
100
AcDbPolyline
90
4
70
1
43
0.0
10
-202.64046878921559
20
-14.444444444444446
10
-202.64046878921559
20
-23.333333333333329
10
-198.64046878921559
20
-23.333333333333329
10
-198.64046878921559
20
-14.444444444444446
0
LWPOLYLINE
5
107
100
AcDbEntity
8
0
100
AcDbPolyline
90
4
70
1
43
0.0
10
-202.64046878921559
20
-32.222222222222214
10
-202.64046878921559
20
-41.111111111111107
10
-198.64046878921559
20
-41.111111111111107
10
-198.64046878921559
20
-32.222222222222214
0
LWPOLYLINE
5
108
100
AcDbEntity
8
0
100
AcDbPolyline
90
4
70
1
43
0.0
10
-359.78918738499368
20
12.222222222222214
10
-355.78918738499368
20
12.222222222222214
10
-355.78918738499368
20
21.111111111111107
10
-359.78918738499368
20
21.111111111111107
0
ENDSEC
0
SECTION
2
OBJECTS
0
DICTIONARY
5
C
100
AcDbDictionary
3
ACAD_GROUP
350
D
3
ACAD_MLINESTYLE
350
17
0
DICTIONARY
5
D
100
AcDbDictionary
0
DICTIONARY
5
1A
330
C
100
AcDbDictionary
0
DICTIONARY
5
17
100
AcDbDictionary
0
ENDSEC
0
EOF
