0
SECTION
2
HEADER
9
$INSUNITS
70
4
9
$ACADVER
1
AC1014
9
$HANDSEED
5
FFFF
0
ENDSEC
0
SECTION
2
TABLES
0
TABLE
2
VPORT
5
8
100
AcDbSymbolTable
0
ENDTAB
0
TABLE
2
LTYPE
5
5
100
AcDbSymbolTable
0
LTYPE
5
14
100
AcDbSymbolTableRecord
100
AcDbLinetypeTableRecord
2
BYBLOCK
70
0
0
LTYPE
5
15
100
AcDbSymbolTableRecord
100
AcDbLinetypeTableRecord
2
BYLAYER
70
0
0
ENDTAB
0
TABLE
2
LAYER
5
2
100
AcDbSymbolTable
70
2
0
LAYER
5
50
100
AcDbSymbolTableRecord
100
AcDbLayerTableRecord
2
0
70
0
6
CONTINUOUS
0
ENDTAB
0
TABLE
2
STYLE
5
3
100
AcDbSymbolTable
70
1
0
STYLE
5
11
100
AcDbSymbolTableRecord
100
AcDbTextStyleTableRecord
2
STANDARD
70
0
0
ENDTAB
0
TABLE
2
VIEW
5
6
100
AcDbSymbolTable
70
0
0
ENDTAB
0
TABLE
2
UCS
5
7
100
AcDbSymbolTable
70
0
0
ENDTAB
0
TABLE
2
APPID
5
9
100
AcDbSymbolTable
70
2
0
APPID
5
12
100
AcDbSymbolTableRecord
100
AcDbRegAppTableRecord
2
ACAD
70
0
0
ENDTAB
0
TABLE
2
DIMSTYLE
5
A
100
AcDbSymbolTable
70
1
0
ENDTAB
0
TABLE
2
BLOCK_RECORD
5
1
100
AcDbSymbolTable
70
1
0
BLOCK_RECORD
5
1F
100
AcDbSymbolTableRecord
100
AcDbBlockTableRecord
2
*MODEL_SPACE
0
BLOCK_RECORD
5
1B
100
AcDbSymbolTableRecord
100
AcDbBlockTableRecord
2
*PAPER_SPACE
0
ENDTAB
0
ENDSEC
0
SECTION
2
BLOCKS
0
BLOCK
5
20
100
AcDbEntity
100
AcDbBlockBegin
2
*MODEL_SPACE
0
ENDBLK
5
21
100
AcDbEntity
100
AcDbBlockEnd
0
BLOCK
5
1C
100
AcDbEntity
100
AcDbBlockBegin
2
*PAPER_SPACE
0
ENDBLK
5
1D
100
AcDbEntity
100
AcDbBlockEnd
0
ENDSEC
0
SECTION
2
ENTITIES
0
CIRCLE
5
100
100
AcDbEntity
8
0
100
AcDbCircle
10
-3.386225700378418
20
-24.947569370269775
30
0
40
0.5
0
CIRCLE
5
101
100
AcDbEntity
8
0
100
AcDbCircle
10
187.95207348332411
20
-17.462765019411336
30
0
40
0.5
0
LWPOLYLINE
5
102
100
AcDbEntity
8
0
100
AcDbPolyline
90
98
70
1
43
0.0
10
206.640469
20
-31.200000000000003
10
194.640469
20
-31.200000000000003
10
194.640469
20
-36.000000536441803
10
184.4190476190476
20
-36.000000536441803
10
184.4190476190476
20
-40
10
174.19809523809519
20
-40
10
174.19809523809519
20
-36.000000536441803
10
163.97714285714284
20
-36.000000536441803
10
163.97714285714284
20
-40
10
153.75619047619045
20
-40
10
153.75619047619045
20
-36.000000536441803
10
143.53523809523807
20
-36.000000536441803
10
143.53523809523807
20
-40
10
133.31428571428569
20
-40
10
133.31428571428569
20
-36.000000536441803
10
123.09333333333331
20
-36.000000536441803
10
123.09333333333331
20
-40
10
112.87238095238094
20
-40
10
112.87238095238094
20
-36.000000536441803
10
102.65142857142855
20
-36.000000536441803
10
102.65142857142855
20
-40
10
92.43047619047617
20
-40
10
92.43047619047617
20
-36.000000536441803
10
82.209523809523802
20
-36.000000536441803
10
82.209523809523802
20
-40
10
71.988571428571419
20
-40
10
71.988571428571419
20
-36.000000536441803
10
61.767619047619036
20
-36.000000536441803
10
61.767619047619036
20
-40
10
51.546666666666653
20
-40
10
51.546666666666653
20
-36.000000536441803
10
41.325714285714277
20
-36.000000536441803
10
41.325714285714277
20
-40
10
31.104761904761897
20
-40
10
31.104761904761897
20
-36.000000536441803
10
20.883809523809518
20
-36.000000536441803
10
20.883809523809518
20
-40
10
10.662857142857138
20
-40
10
10.662857142857138
20
-36.000000536441803
10
0.44190476190475891
20
-36.000000536441803
10
0.44190476190475891
20
-40
10
-9.7790476190476205
20
-40
10
-9.7790476190476205
20
-36.000000536441803
10
-16
20
-36.000000536441803
10
-16
20
-26.400000000000002
10
-20
20
-26.400000000000002
10
-20
20
-13.599999999999998
10
-16
20
-13.599999999999998
10
-16
20
-4.7999999999999972
10
-20
20
-4.7999999999999972
10
-20
20
3.3306690738754696e-15
10
-9.7790476190476205
20
3.3306690738754696e-15
10
-9.7790476190476205
20
4.0000000000000036
10
0.44190476190475891
20
4.0000000000000036
10
0.44190476190475891
20
3.3306690738754696e-15
10
10.662857142857138
20
3.3306690738754696e-15
10
10.662857142857138
20
4.0000000000000036
10
20.883809523809518
20
4.0000000000000036
10
20.883809523809518
20
3.3306690738754696e-15
10
31.104761904761897
20
3.3306690738754696e-15
10
31.104761904761897
20
4.0000000000000036
10
41.325714285714277
20
4.0000000000000036
10
41.325714285714277
20
3.3306690738754696e-15
10
51.546666666666653
20
3.3306690738754696e-15
10
51.546666666666653
20
4.0000000000000036
10
61.767619047619036
20
4.0000000000000036
10
61.767619047619036
20
3.3306690738754696e-15
10
71.988571428571419
20
3.3306690738754696e-15
10
71.988571428571419
20
4.0000000000000036
10
82.209523809523802
20
4.0000000000000036
10
82.209523809523802
20
3.3306690738754696e-15
10
92.43047619047617
20
3.3306690738754696e-15
10
92.43047619047617
20
4.0000000000000036
10
102.65142857142855
20
4.0000000000000036
10
102.65142857142855
20
3.3306690738754696e-15
10
112.87238095238094
20
3.3306690738754696e-15
10
112.87238095238094
20
4.0000000000000036
10
123.09333333333331
20
4.0000000000000036
10
123.09333333333331
20
3.3306690738754696e-15
10
133.31428571428569
20
3.3306690738754696e-15
10
133.31428571428569
20
4.0000000000000036
10
143.53523809523807
20
4.0000000000000036
10
143.53523809523807
20
3.3306690738754696e-15
10
153.75619047619045
20
3.3306690738754696e-15
10
153.75619047619045
20
4.0000000000000036
10
163.97714285714284
20
4.0000000000000036
10
163.97714285714284
20
3.3306690738754696e-15
10
174.19809523809519
20
3.3306690738754696e-15
10
174.19809523809519
20
4.0000000000000036
10
184.4190476190476
20
4.0000000000000036
10
184.4190476190476
20
3.3306690738754696e-15
10
194.640469
20
4.4408920985006262e-15
10
194.640469
20
-4.7999999999999972
10
206.640469
20
-4.7999999999999972
10
206.640469
20
-13.599999999999998
10
194.640469
20
-13.599999999999998
10
194.640469
20
-22.400000000000002
10
206.640469
20
-22.400000000000002
0
ENDSEC
0
SECTION
2
OBJECTS
0
DICTIONARY
5
C
100
AcDbDictionary
3
ACAD_GROUP
350
D
3
ACAD_MLINESTYLE
350
17
0
DICTIONARY
5
D
100
AcDbDictionary
0
DICTIONARY
5
1A
330
C
100
AcDbDictionary
0
DICTIONARY
5
17
100
AcDbDictionary
0
ENDSEC
0
EOF
