0
SECTION
2
HEADER
9
$INSUNITS
70
4
9
$ACADVER
1
AC1014
9
$HANDSEED
5
FFFF
0
ENDSEC
0
SECTION
2
TABLES
0
TABLE
2
VPORT
5
8
100
AcDbSymbolTable
0
ENDTAB
0
TABLE
2
LTYPE
5
5
100
AcDbSymbolTable
0
LTYPE
5
14
100
AcDbSymbolTableRecord
100
AcDbLinetypeTableRecord
2
BYBLOCK
70
0
0
LTYPE
5
15
100
AcDbSymbolTableRecord
100
AcDbLinetypeTableRecord
2
BYLAYER
70
0
0
ENDTAB
0
TABLE
2
LAYER
5
2
100
AcDbSymbolTable
70
2
0
LAYER
5
50
100
AcDbSymbolTableRecord
100
AcDbLayerTableRecord
2
0
70
0
6
CONTINUOUS
0
ENDTAB
0
TABLE
2
STYLE
5
3
100
AcDbSymbolTable
70
1
0
STYLE
5
11
100
AcDbSymbolTableRecord
100
AcDbTextStyleTableRecord
2
STANDARD
70
0
0
ENDTAB
0
TABLE
2
VIEW
5
6
100
AcDbSymbolTable
70
0
0
ENDTAB
0
TABLE
2
UCS
5
7
100
AcDbSymbolTable
70
0
0
ENDTAB
0
TABLE
2
APPID
5
9
100
AcDbSymbolTable
70
2
0
APPID
5
12
100
AcDbSymbolTableRecord
100
AcDbRegAppTableRecord
2
ACAD
70
0
0
ENDTAB
0
TABLE
2
DIMSTYLE
5
A
100
AcDbSymbolTable
70
1
0
ENDTAB
0
TABLE
2
BLOCK_RECORD
5
1
100
AcDbSymbolTable
70
1
0
BLOCK_RECORD
5
1F
100
AcDbSymbolTableRecord
100
AcDbBlockTableRecord
2
*MODEL_SPACE
0
BLOCK_RECORD
5
1B
100
AcDbSymbolTableRecord
100
AcDbBlockTableRecord
2
*PAPER_SPACE
0
ENDTAB
0
ENDSEC
0
SECTION
2
BLOCKS
0
BLOCK
5
20
100
AcDbEntity
100
AcDbBlockBegin
2
*MODEL_SPACE
0
ENDBLK
5
21
100
AcDbEntity
100
AcDbBlockEnd
0
BLOCK
5
1C
100
AcDbEntity
100
AcDbBlockBegin
2
*PAPER_SPACE
0
ENDBLK
5
1D
100
AcDbEntity
100
AcDbBlockEnd
0
ENDSEC
0
SECTION
2
ENTITIES
0
LWPOLYLINE
5
100
100
AcDbEntity
8
0
100
AcDbPolyline
90
4
70
1
43
0.0
10
355.78918738499368
20
-32.000000000000007
10
359.78918738499368
20
-32.000000000000007
10
359.78918738499368
20
-24.000000000000004
10
355.78918738499368
20
-24.000000000000004
0
LWPOLYLINE
5
101
100
AcDbEntity
8
0
100
AcDbPolyline
90
4
70
1
43
0.0
10
355.78918738499368
20
-16.000000000000004
10
359.78918738499368
20
-16.000000000000004
10
359.78918738499368
20
-8.0000000000000018
10
355.78918738499368
20
-8.0000000000000018
0
LWPOLYLINE
5
102
100
AcDbEntity
8
0
100
AcDbPolyline
90
4
70
1
43
0.0
10
202.64046878921559
20
-16.160000000000004
10
202.64046878921559
20
-8.0800000000000018
10
198.64046878921559
20
-8.0800000000000018
10
198.64046878921559
20
-16.160000000000004
0
LWPOLYLINE
5
103
100
AcDbEntity
8
0
100
AcDbPolyline
90
4
70
1
43
0.0
10
202.64046878921559
20
-32.320000000000007
10
202.64046878921559
20
-24.240000000000002
10
198.64046878921559
20
-24.240000000000002
10
198.64046878921559
20
-32.320000000000007
0
LWPOLYLINE
5
104
100
AcDbEntity
8
0
100
AcDbPolyline
90
228
70
1
43
0.0
10
200
20
0
10
210
20
0
10
210
20
4
10
220
20
4
10
220
20
0
10
230
20
0
10
230
20
4
10
240
20
4
10
240
20
0
10
250
20
0
10
250
20
4
10
260
20
4
10
260
20
0
10
270
20
0
10
270
20
4
10
280
20
4
10
280
20
0
10
290
20
0
10
290
20
4
10
300
20
4
10
300
20
0
10
310
20
0
10
310
20
4
10
320
20
4
10
320
20
0
10
330
20
0
10
330
20
4
10
340
20
4
10
340
20
0
10
350
20
0
10
350
20
4
10
360
20
4
10
360
20
0
10
370
20
0
10
370
20
4
10
380
20
4
10
380
20
0
10
390
20
0
10
390
20
4
10
400
20
4
10
400
20
0
10
410
20
0
10
410
20
4
10
420
20
4
10
420
20
0
10
430
20
0
10
430
20
4
10
440
20
4
10
440
20
0
10
450
20
0
10
450
20
4
10
460
20
4
10
460
20
0
10
470
20
0
10
470
20
4
10
480
20
4
10
480
20
0
10
490
20
0
10
490
20
4
10
500
20
4
10
500
20
0
10
506
20
0
10
506
20
-4.8000000000000007
10
510
20
-4.8000000000000007
10
510
20
-13.600000000000003
10
506
20
-13.600000000000003
10
506
20
-22.400000000000006
10
510
20
-22.400000000000006
10
510
20
-31.200000000000006
10
506
20
-31.200000000000006
10
506
20
-36
10
500
20
-36
10
500
20
-40
10
490
20
-40
10
490
20
-36
10
480
20
-36
10
480
20
-40
10
470
20
-40
10
470
20
-36
10
460
20
-36
10
460
20
-40
10
450
20
-40
10
450
20
-36
10
440
20
-36
10
440
20
-40
10
430
20
-40
10
430
20
-36
10
420
20
-36
10
420
20
-40
10
410
20
-40
10
410
20
-36
10
400
20
-36
10
400
20
-40
10
390
20
-40
10
390
20
-36
10
380
20
-36
10
380
20
-40
10
370
20
-40
10
370
20
-36
10
360
20
-36
10
360
20
-40
10
350
20
-40
10
350
20
-36
10
340
20
-36
10
340
20
-40
10
330
20
-40
10
330
20
-36
10
320
20
-36
10
320
20
-40
10
310
20
-40
10
310
20
-36
10
300
20
-36
10
300
20
-40
10
290
20
-40
10
290
20
-36
10
280
20
-36
10
280
20
-40
10
270
20
-40
10
270
20
-36
10
260
20
-36
10
260
20
-40
10
250
20
-40
10
250
20
-36
10
240
20
-36
10
240
20
-40
10
230
20
-40
10
230
20
-36
10
220
20
-36
10
220
20
-40
10
210
20
-40
10
210
20
-36
10
200
20
-36
10
200
20
-40
10
190
20
-40
10
190
20
-36
10
180
20
-36
10
180
20
-40
10
170
20
-40
10
170
20
-36
10
160
20
-36
10
160
20
-40
10
150
20
-40
10
150
20
-36
10
140
20
-36
10
140
20
-40
10
130
20
-40
10
130
20
-36
10
120
20
-36
10
120
20
-40
10
110
20
-40
10
110
20
-36
10
100
20
-36
10
100
20
-40
10
90
20
-40
10
90
20
-36
10
80
20
-36
10
80
20
-40
10
70
20
-40
10
70
20
-36
10
60
20
-36
10
60
20
-40
10
50
20
-40
10
50
20
-36
10
40
20
-36
10
40
20
-40
10
30
20
-40
10
30
20
-36
10
20
20
-36
10
20
20
-40
10
10
20
-40
10
10
20
-36
10
0
20
-36
10
0
20
-40
10
-10
20
-40
10
-10
20
-36
10
-16
20
-36
10
-16
20
-31.200000000000003
10
-20
20
-31.200000000000003
10
-20
20
-22.400000000000002
10
-16
20
-22.400000000000002
10
-16
20
-13.599999999999998
10
-20
20
-13.599999999999998
10
-20
20
-4.7999999999999972
10
-16
20
-4.7999999999999972
10
-16
20
0
10
-10
20
0
10
-10
20
4
10
0
20
4
10
0
20
0
10
10
20
0
10
10
20
4
10
20
20
4
10
20
20
0
10
30
20
0
10
30
20
4
10
40
20
4
10
40
20
0
10
50
20
0
10
50
20
4
10
60
20
4
10
60
20
0
10
70
20
0
10
70
20
4
10
80
20
4
10
80
20
0
10
90
20
0
10
90
20
4
10
100
20
4
10
100
20
0
10
110
20
0
10
110
20
4
10
120
20
4
10
120
20
0
10
130
20
0
10
130
20
4
10
140
20
4
10
140
20
0
10
150
20
0
10
150
20
4
10
160
20
4
10
160
20
0
10
170
20
0
10
170
20
4
10
180
20
4
10
180
20
0
10
190
20
0
10
190
20
4
10
200
20
4
0
SPLINE
5
105
100
AcDbEntity
8
0
100
AcDbSpline
70
1064
71
3
72
8
73
4
74
0
42
0.000000001
43
0.0000000001
44
0.0000000001
40
0
40
0
40
0
40
0
40
1
40
1
40
1
40
1
10
104.00775234181893
20
-30.371348019861649
30
0
10
98.030870895528892
20
-29.756864516527799
30
0
10
94.813038928753059
20
-28.905997701533671
30
0
10
91.972361167976246
20
-27.188920595201989
30
0
0
SPLINE
5
106
100
AcDbEntity
8
0
100
AcDbSpline
70
1064
71
3
72
8
73
4
74
0
42
0.000000001
43
0.0000000001
44
0.0000000001
40
0
40
0
40
0
40
0
40
1
40
1
40
1
40
1
10
91.972361167976246
20
-27.188920595201989
30
0
10
90.499235258701404
20
-26.298474562179997
30
0
10
89.815063458510522
20
-25.536929359771477
30
0
10
89.168362973485671
20
-24.067811550669983
30
0
0
SPLINE
5
107
100
AcDbEntity
8
0
100
AcDbSpline
70
1064
71
3
72
8
73
4
74
0
42
0.000000001
43
0.0000000001
44
0.0000000001
40
0
40
0
40
0
40
0
40
1
40
1
40
1
40
1
10
89.168362973485671
20
-24.067811550669983
30
0
10
88.85256724918095
20
-23.350417144886237
30
0
10
88.552629380930227
20
-22.495021937597748
30
0
10
88.501834320248207
20
-22.166935597240677
30
0
0
SPLINE
5
108
100
AcDbEntity
8
0
100
AcDbSpline
70
1064
71
3
72
8
73
4
74
0
42
0.000000001
43
0.0000000001
44
0.0000000001
40
0
40
0
40
0
40
0
40
1
40
1
40
1
40
1
10
88.501834320248207
20
-22.166935597240677
30
0
10
88.408048837760731
20
-21.561173670528259
30
0
10
88.668942689661421
20
-19.333393858835098
30
0
10
88.921259690466442
20
-18.58545645470624
30
0
0
SPLINE
5
109
100
AcDbEntity
8
0
100
AcDbSpline
70
1064
71
3
72
8
73
4
74
0
42
0.000000001
43
0.0000000001
44
0.0000000001
40
0
40
0
40
0
40
0
40
1
40
1
40
1
40
1
10
88.921259690466442
20
-18.58545645470624
30
0
10
88.996278410950623
20
-18.36307990050144
30
0
10
89.095121574999865
20
-17.514002232326614
30
0
10
89.140910880507704
20
-16.698618106091349
30
0
0
SPLINE
5
110
100
AcDbEntity
8
0
100
AcDbSpline
70
1064
71
3
72
8
73
4
74
0
42
0.000000001
43
0.0000000001
44
0.0000000001
40
0
40
0
40
0
40
0
40
1
40
1
40
1
40
1
10
89.140910880507704
20
-16.698618106091349
30
0
10
89.192603342273941
20
-15.778116462995715
30
0
10
89.322730355405824
20
-14.935095159628755
30
0
10
89.484166923752781
20
-14.474844338080938
30
0
0
SPLINE
5
111
100
AcDbEntity
8
0
100
AcDbSpline
70
1064
71
3
72
8
73
4
74
0
42
0.000000001
43
0.0000000001
44
0.0000000001
40
0
40
0
40
0
40
0
40
1
40
1
40
1
40
1
10
89.484166923752781
20
-14.474844338080938
30
0
10
89.627169110389175
20
-14.067152274963304
30
0
10
89.886300806909659
20
-13.117499877656664
30
0
10
90.060016680610687
20
-12.364504534904741
30
0
0
SPLINE
5
112
100
AcDbEntity
8
0
100
AcDbSpline
70
1064
71
3
72
8
73
4
74
0
42
0.000000001
43
0.0000000001
44
0.0000000001
40
0
40
0
40
0
40
0
40
1
40
1
40
1
40
1
10
90.060016680610687
20
-12.364504534904741
30
0
10
90.418953978779768
20
-10.808638811199664
30
0
10
90.64231507785783
20
-10.305578024896253
30
0
10
91.15230212449157
20
-9.9044235453861535
30
0
0
SPLINE
5
113
100
AcDbEntity
8
0
100
AcDbSpline
70
1064
71
3
72
8
73
4
74
0
42
0.000000001
43
0.0000000001
44
0.0000000001
40
0
40
0
40
0
40
0
40
1
40
1
40
1
40
1
10
91.15230212449157
20
-9.9044235453861535
30
0
10
91.879519357611414
20
-9.332395262179924
30
0
10
92.369715766985934
20
-9.534072210281666
30
0
10
94.245070157985111
20
-11.176857565555169
30
0
0
SPLINE
5
114
100
AcDbEntity
8
0
100
AcDbSpline
70
1064
71
3
72
8
73
4
74
0
42
0.000000001
43
0.0000000001
44
0.0000000001
40
0
40
0
40
0
40
0
40
1
40
1
40
1
40
1
10
94.245070157985111
20
-11.176857565555169
30
0
10
95.222201382647484
20
-12.032812138286014
30
0
10
95.911077405078771
20
-12.504594730855924
30
0
10
96.858514962012535
20
-12.966696393940948
30
0
0
SPLINE
5
115
100
AcDbEntity
8
0
100
AcDbSpline
70
1064
71
3
72
8
73
4
74
0
42
0.000000001
43
0.0000000001
44
0.0000000001
40
0
40
0
40
0
40
0
40
1
40
1
40
1
40
1
10
96.858514962012535
20
-12.966696393940948
30
0
10
98.106562088438253
20
-13.575415554131705
30
0
10
98.188514266969889
20
-13.595726483511951
30
0
10
99.596057662864411
20
-13.645183025876715
30
0
0
LINE
5
116
100
AcDbEntity
8
0
100
AcDbLine
10
99.596057662864382
20
-13.645183025876715
30
0
11
101.04703928139186
21
-13.696165484264375
31
0
0
LINE
5
117
100
AcDbEntity
8
0
100
AcDbLine
10
101.04703928139186
20
-13.696165484264375
30
0
11
100.57628493412039
21
-12.769528301472903
31
0
0
SPLINE
5
118
100
AcDbEntity
8
0
100
AcDbSpline
70
1064
71
3
72
8
73
4
74
0
42
0.000000001
43
0.0000000001
44
0.0000000001
40
0
40
0
40
0
40
0
40
1
40
1
40
1
40
1
10
100.57628493412039
20
-12.769528301472903
30
0
10
99.915269218050582
20
-11.468380531344719
30
0
10
99.698122319433665
20
-10.656270338139711
30
0
10
99.696439081880115
20
-9.4789685447378247
30
0
0
SPLINE
5
119
100
AcDbEntity
8
0
100
AcDbSpline
70
1064
71
3
72
8
73
4
74
0
42
0.000000001
43
0.0000000001
44
0.0000000001
40
0
40
0
40
0
40
0
40
1
40
1
40
1
40
1
10
99.696439081880115
20
-9.4789685447378247
30
0
10
99.691007890213712
20
-5.6829223710403003
30
0
10
102.83005570222244
20
-2.6147180894814066
30
0
10
106.71917761209019
20
-2.6147180894814066
30
0
0
SPLINE
5
120
100
AcDbEntity
8
0
100
AcDbSpline
70
1064
71
3
72
8
73
4
74
0
42
0.000000001
43
0.0000000001
44
0.0000000001
40
0
40
0
40
0
40
0
40
1
40
1
40
1
40
1
10
106.71917761209019
20
-2.6147180894814066
30
0
10
108.29880711288772
20
-2.6147180894814066
30
0
10
110.26209961242343
20
-3.2864486356837199
30
0
10
111.52089395870853
20
-4.2576016421809113
30
0
0
SPLINE
5
121
100
AcDbEntity
8
0
100
AcDbSpline
70
1064
71
3
72
8
73
4
74
0
42
0.000000001
43
0.0000000001
44
0.0000000001
40
0
40
0
40
0
40
0
40
1
40
1
40
1
40
1
10
111.52089395870853
20
-4.2576016421809113
30
0
10
112.27029558414237
20
-4.8357613521017857
30
0
10
113.60856917901631
20
-6.4049922081960933
30
0
10
114.27630961933801
20
-7.4885416800213633
30
0
0
LINE
5
122
100
AcDbEntity
8
0
100
AcDbLine
10
114.27630961933799
20
-7.4885416800213616
30
0
11
114.66358587205494
21
-8.1169805285457599
31
0
0
LINE
5
123
100
AcDbEntity
8
0
100
AcDbLine
10
114.66358587205494
20
-8.1169805285457599
30
0
11
115.78499636401439
21
-8.0847141910804527
31
0
0
SPLINE
5
124
100
AcDbEntity
8
0
100
AcDbSpline
70
1064
71
3
72
8
73
4
74
0
42
0.000000001
43
0.0000000001
44
0.0000000001
40
0
40
0
40
0
40
0
40
1
40
1
40
1
40
1
10
115.78499636401439
20
-8.0847141910804527
30
0
10
116.4017707978732
20
-8.0669687337198344
30
0
10
117.03345273206889
20
-8.0994458614713221
30
0
10
117.18873216756876
20
-8.1568887850691318
30
0
0
SPLINE
5
125
100
AcDbEntity
8
0
100
AcDbSpline
70
1064
71
3
72
8
73
4
74
0
42
0.000000001
43
0.0000000001
44
0.0000000001
40
0
40
0
40
0
40
0
40
1
40
1
40
1
40
1
10
117.18873216756876
20
-8.1568887850691318
30
0
10
117.58172752063567
20
-8.3022672465902367
30
0
10
117.8894936774048
20
-8.9611966529495177
30
0
10
117.8894936774048
20
-9.6572313191486021
30
0
0
SPLINE
5
126
100
AcDbEntity
8
0
100
AcDbSpline
70
1064
71
3
72
8
73
4
74
0
42
0.000000001
43
0.0000000001
44
0.0000000001
40
0
40
0
40
0
40
0
40
1
40
1
40
1
40
1
10
117.8894936774048
20
-9.6572313191486021
30
0
10
117.8894936774048
20
-10.149298106721004
30
0
10
117.81442765763688
20
-10.316727288667328
30
0
10
117.4242620356313
20
-10.694890203304126
30
0
0
SPLINE
5
127
100
AcDbEntity
8
0
100
AcDbSpline
70
1064
71
3
72
8
73
4
74
0
42
0.000000001
43
0.0000000001
44
0.0000000001
40
0
40
0
40
0
40
0
40
1
40
1
40
1
40
1
10
117.4242620356313
20
-10.694890203304126
30
0
10
116.99548374617839
20
-11.110478162068544
30
0
10
116.97436358774826
20
-11.167701041172489
30
0
10
117.15471370011488
20
-11.425188059338103
30
0
0
SPLINE
5
128
100
AcDbEntity
8
0
100
AcDbSpline
70
1064
71
3
72
8
73
4
74
0
42
0.000000001
43
0.0000000001
44
0.0000000001
40
0
40
0
40
0
40
0
40
1
40
1
40
1
40
1
10
117.15471370011488
20
-11.425188059338103
30
0
10
117.26233807901288
20
-11.578844923757012
30
0
10
117.35039700637199
20
-11.909330160395363
30
0
10
117.35039700637199
20
-12.15960095305647
30
0
0
SPLINE
5
129
100
AcDbEntity
8
0
100
AcDbSpline
70
1064
71
3
72
8
73
4
74
0
42
0.000000001
43
0.0000000001
44
0.0000000001
40
0
40
0
40
0
40
0
40
1
40
1
40
1
40
1
10
117.35039700637199
20
-12.15960095305647
30
0
10
117.35039700637199
20
-12.857830922967741
30
0
10
116.76552696763343
20
-13.320909419086291
30
0
10
115.50974538007279
20
-13.616959748924909
30
0
0
SPLINE
5
130
100
AcDbEntity
8
0
100
AcDbSpline
70
1064
71
3
72
8
73
4
74
0
42
0.000000001
43
0.0000000001
44
0.0000000001
40
0
40
0
40
0
40
0
40
1
40
1
40
1
40
1
10
115.50974538007279
20
-13.616959748924909
30
0
10
114.2066789042177
20
-13.924158314289301
30
0
10
112.9768461150087
20
-14.733213590712621
30
0
10
113.11288502448399
20
-15.193752320944004
30
0
0
SPLINE
5
131
100
AcDbEntity
8
0
100
AcDbSpline
70
1064
71
3
72
8
73
4
74
0
42
0.000000001
43
0.0000000001
44
0.0000000001
40
0
40
0
40
0
40
0
40
1
40
1
40
1
40
1
10
113.11288502448399
20
-15.193752320944004
30
0
10
113.25909944943274
20
-15.688739325163999
30
0
10
113.88880715265542
20
-16.390884853171762
30
0
10
115.00279371356004
20
-17.301071139433361
30
0
0
SPLINE
5
132
100
AcDbEntity
8
0
100
AcDbSpline
70
1064
71
3
72
8
73
4
74
0
42
0.000000001
43
0.0000000001
44
0.0000000001
40
0
40
0
40
0
40
0
40
1
40
1
40
1
40
1
10
115.00279371356004
20
-17.301071139433361
30
0
10
116.43806580041782
20
-18.473764337407598
30
0
10
117.66813508604545
20
-19.737457244294507
30
0
10
118.11260439875269
20
-20.495884806958134
30
0
0
SPLINE
5
133
100
AcDbEntity
8
0
100
AcDbSpline
70
1064
71
3
72
8
73
4
74
0
42
0.000000001
43
0.0000000001
44
0.0000000001
40
0
40
0
40
0
40
0
40
1
40
1
40
1
40
1
10
118.11260439875269
20
-20.495884806958134
30
0
10
118.9618897724778
20
-21.945081391647484
30
0
10
119.28182212761818
20
-23.808852085236992
30
0
10
118.92224063376965
20
-25.21243159550599
30
0
0
SPLINE
5
134
100
AcDbEntity
8
0
100
AcDbSpline
70
1064
71
3
72
8
73
4
74
0
42
0.000000001
43
0.0000000001
44
0.0000000001
40
0
40
0
40
0
40
0
40
1
40
1
40
1
40
1
10
118.92224063376965
20
-25.21243159550599
30
0
10
118.01928908142791
20
-28.736995304280725
30
0
10
114.04053091591324
20
-30.546371821582316
30
0
10
107.30971945189498
20
-30.493324646635372
30
0
0
SPLINE
5
135
100
AcDbEntity
8
0
100
AcDbSpline
70
1064
71
3
72
8
73
4
74
0
42
0.000000001
43
0.0000000001
44
0.0000000001
40
0
40
0
40
0
40
0
40
1
40
1
40
1
40
1
10
107.30971945189498
20
-30.493324646635372
30
0
10
106.04958016075952
20
-30.483391797052363
30
0
10
104.56369578382153
20
-30.428504063021194
30
0
10
104.00775234181893
20
-30.371348019861649
30
0
0
SPLINE
5
136
100
AcDbEntity
8
0
100
AcDbSpline
70
1064
71
3
72
8
73
4
74
0
42
0.000000001
43
0.0000000001
44
0.0000000001
40
0
40
0
40
0
40
0
40
1
40
1
40
1
40
1
10
108.45529987783975
20
-10.906792022653637
30
0
10
108.45529987783975
20
-10.871632202918498
30
0
10
108.27067226503158
20
-10.747392408242893
30
0
10
108.04501766481533
20
-10.630699934057899
30
0
0
SPLINE
5
137
100
AcDbEntity
8
0
100
AcDbSpline
70
1064
71
3
72
8
73
4
74
0
42
0.000000001
43
0.0000000001
44
0.0000000001
40
0
40
0
40
0
40
0
40
1
40
1
40
1
40
1
10
108.04501766481533
20
-10.630699934057899
30
0
10
107.50329485529025
20
-10.350563756703364
30
0
10
107.10868721359537
20
-9.6792388532712899
30
0
10
107.10806204045392
20
-9.0367079029316599
30
0
0
SPLINE
5
138
100
AcDbEntity
8
0
100
AcDbSpline
70
1064
71
3
72
8
73
4
74
0
42
0.000000001
43
0.0000000001
44
0.0000000001
40
0
40
0
40
0
40
0
40
1
40
1
40
1
40
1
10
107.10806204045392
20
-9.0367079029316599
30
0
10
107.10765691180633
20
-8.6259352168998742
30
0
10
107.20303077621861
20
-8.4223549867507064
30
0
10
107.56578954803935
20
-8.0595951866846622
30
0
0
SPLINE
5
139
100
AcDbEntity
8
0
100
AcDbSpline
70
1064
71
3
72
8
73
4
74
0
42
0.000000001
43
0.0000000001
44
0.0000000001
40
0
40
0
40
0
40
0
40
1
40
1
40
1
40
1
10
107.56578954803935
20
-8.0595951866846622
30
0
10
107.9545176831177
20
-7.6708660233610093
30
0
10
108.11835623248184
20
-7.6013628106577
30
0
10
108.64596329054982
20
-7.6013628106577
30
0
0
SPLINE
5
140
100
AcDbEntity
8
0
100
AcDbSpline
70
1064
71
3
72
8
73
4
74
0
42
0.000000001
43
0.0000000001
44
0.0000000001
40
0
40
0
40
0
40
0
40
1
40
1
40
1
40
1
10
108.64596329054982
20
-7.6013628106577
30
0
10
110.29951745883396
20
-7.6013628106577
30
0
10
110.94406891118503
20
-9.744227040869113
30
0
10
109.55063612552112
20
-10.609022466676013
30
0
0
SPLINE
5
141
100
AcDbEntity
8
0
100
AcDbSpline
70
1064
71
3
72
8
73
4
74
0
42
0.000000001
43
0.0000000001
44
0.0000000001
40
0
40
0
40
0
40
0
40
1
40
1
40
1
40
1
10
109.55063612552112
20
-10.609022466676013
30
0
10
109.30460170348962
20
-10.761715865250277
30
0
10
109.26426569692211
20
-10.829864878895529
30
0
10
109.41845107942441
20
-10.832356317253671
30
0
0
SPLINE
5
142
100
AcDbEntity
8
0
100
AcDbSpline
70
1064
71
3
72
8
73
4
74
0
42
0.000000001
43
0.0000000001
44
0.0000000001
40
0
40
0
40
0
40
0
40
1
40
1
40
1
40
1
10
109.41845107942441
20
-10.832356317253671
30
0
10
109.67533143286394
20
-10.836508371768804
30
0
10
110.41000652913341
20
-10.046093126115753
30
0
10
110.54520844693577
20
-9.6201137203652181
30
0
0
SPLINE
5
143
100
AcDbEntity
8
0
100
AcDbSpline
70
1064
71
3
72
8
73
4
74
0
42
0.000000001
43
0.0000000001
44
0.0000000001
40
0
40
0
40
0
40
0
40
1
40
1
40
1
40
1
10
110.54520844693577
20
-9.6201137203652181
30
0
10
110.79225671883154
20
-8.8417320294399069
30
0
10
110.2500650294504
20
-7.8650727693695233
30
0
10
109.34192495133271
20
-7.4526158175388799
30
0
0
SPLINE
5
144
100
AcDbEntity
8
0
100
AcDbSpline
70
1064
71
3
72
8
73
4
74
0
42
0.000000001
43
0.0000000001
44
0.0000000001
40
0
40
0
40
0
40
0
40
1
40
1
40
1
40
1
10
109.34192495133271
20
-7.4526158175388799
30
0
10
108.64521267148194
20
-7.1361846376397198
30
0
10
108.26117127847391
20
-7.1381321342349811
30
0
10
107.54835873374005
20
-7.461711675448953
30
0
0
SPLINE
5
145
100
AcDbEntity
8
0
100
AcDbSpline
70
1064
71
3
72
8
73
4
74
0
42
0.000000001
43
0.0000000001
44
0.0000000001
40
0
40
0
40
0
40
0
40
1
40
1
40
1
40
1
10
107.54835873374005
20
-7.461711675448953
30
0
10
106.44685301426797
20
-7.9617370816313437
30
0
10
106.07337992643738
20
-9.3088659250155352
30
0
10
106.79763478485241
20
-10.169593612421775
30
0
0
SPLINE
5
146
100
AcDbEntity
8
0
100
AcDbSpline
70
1064
71
3
72
8
73
4
74
0
42
0.000000001
43
0.0000000001
44
0.0000000001
40
0
40
0
40
0
40
0
40
1
40
1
40
1
40
1
10
106.79763478485241
20
-10.169593612421775
30
0
10
106.99780741008252
20
-10.407483303444264
30
0
10
107.34653474656064
20
-10.682679790385055
30
0
10
107.57258624946209
20
-10.781142503673859
30
0
0
SPLINE
5
147
100
AcDbEntity
8
0
100
AcDbSpline
70
1064
71
3
72
8
73
4
74
0
42
0.000000001
43
0.0000000001
44
0.0000000001
40
0
40
0
40
0
40
0
40
1
40
1
40
1
40
1
10
107.57258624946209
20
-10.781142503673859
30
0
10
107.98354710438349
20
-10.960146642944817
30
0
10
108.45529987783975
20
-11.027297230405278
30
0
10
108.45529987783975
20
-10.906792022653637
30
0
0
SPLINE
5
148
100
AcDbEntity
8
0
100
AcDbSpline
70
1064
71
3
72
8
73
4
74
0
42
0.000000001
43
0.0000000001
44
0.0000000001
40
0
40
0
40
0
40
0
40
1
40
1
40
1
40
1
10
110.63755104420821
20
-14.011606463941131
30
0
10
109.77728401069568
20
-13.122006676799762
30
0
10
109.668265331173
20
-12.951058839442148
30
0
10
109.668265331173
20
-12.491692308850997
30
0
0
SPLINE
5
149
100
AcDbEntity
8
0
100
AcDbSpline
70
1064
71
3
72
8
73
4
74
0
42
0.000000001
43
0.0000000001
44
0.0000000001
40
0
40
0
40
0
40
0
40
1
40
1
40
1
40
1
10
109.668265331173
20
-12.491692308850997
30
0
10
109.668265331173
20
-11.81759217135841
30
0
10
109.94374458557087
20
-11.444870730841
30
0
10
110.74030359688216
20
-11.041221728236863
30
0
0
SPLINE
5
150
100
AcDbEntity
8
0
100
AcDbSpline
70
1064
71
3
72
8
73
4
74
0
42
0.000000001
43
0.0000000001
44
0.0000000001
40
0
40
0
40
0
40
0
40
1
40
1
40
1
40
1
10
110.74030359688216
20
-11.041221728236863
30
0
10
111.4350272503257
20
-10.689179328916545
30
0
10
112.05555683601445
20
-10.142257711162529
30
0
10
112.71274542308346
20
-9.3027550632068579
30
0
0
SPLINE
5
151
100
AcDbEntity
8
0
100
AcDbSpline
70
1064
71
3
72
8
73
4
74
0
42
0.000000001
43
0.0000000001
44
0.0000000001
40
0
40
0
40
0
40
0
40
1
40
1
40
1
40
1
10
112.71274542308346
20
-9.3027550632068579
30
0
10
113.0823913819132
20
-8.8305632290081615
30
0
10
113.1484581988291
20
-8.7970969292795669
30
0
10
113.4003844664207
20
-8.9544266859045329
30
0
0
SPLINE
5
152
100
AcDbEntity
8
0
100
AcDbSpline
70
1064
71
3
72
8
73
4
74
0
42
0.000000001
43
0.0000000001
44
0.0000000001
40
0
40
0
40
0
40
0
40
1
40
1
40
1
40
1
10
113.4003844664207
20
-8.9544266859045329
30
0
10
113.64159847449308
20
-9.1050677068630943
30
0
10
113.76154328855706
20
-9.080157436262887
30
0
10
114.29207878923501
20
-8.7692427923899015
30
0
0
SPLINE
5
153
100
AcDbEntity
8
0
100
AcDbSpline
70
1064
71
3
72
8
73
4
74
0
42
0.000000001
43
0.0000000001
44
0.0000000001
40
0
40
0
40
0
40
0
40
1
40
1
40
1
40
1
10
114.29207878923501
20
-8.7692427923899015
30
0
10
114.97529432129835
20
-8.3688512708912519
30
0
10
115.79290973983123
20
-8.2897956593653568
30
0
10
115.91661587519695
20
-8.6121680405989505
30
0
0
SPLINE
5
154
100
AcDbEntity
8
0
100
AcDbSpline
70
1064
71
3
72
8
73
4
74
0
42
0.000000001
43
0.0000000001
44
0.0000000001
40
0
40
0
40
0
40
0
40
1
40
1
40
1
40
1
10
115.91661587519695
20
-8.6121680405989505
30
0
10
116.01734689761415
20
-8.8746718675756959
30
0
10
116.33190975580602
20
-8.8701393623001366
30
0
10
116.59972241325866
20
-8.6023267048475027
30
0
0
SPLINE
5
155
100
AcDbEntity
8
0
100
AcDbSpline
70
1064
71
3
72
8
73
4
74
0
42
0.000000001
43
0.0000000001
44
0.0000000001
40
0
40
0
40
0
40
0
40
1
40
1
40
1
40
1
10
116.59972241325866
20
-8.6023267048475027
30
0
10
116.9318065713361
20
-8.270243575015364
30
0
10
117.26677392923037
20
-8.4207540088210209
30
0
10
117.37471912066148
20
-8.9505553423558766
30
0
0
SPLINE
5
156
100
AcDbEntity
8
0
100
AcDbSpline
70
1064
71
3
72
8
73
4
74
0
42
0.000000001
43
0.0000000001
44
0.0000000001
40
0
40
0
40
0
40
0
40
1
40
1
40
1
40
1
10
117.37471912066148
20
-8.9505553423558766
30
0
10
117.42741669220695
20
-9.2091960517463516
30
0
10
117.50899767418582
20
-9.5759711497028359
30
0
10
117.55601110572147
20
-9.7656073453597454
30
0
0
SPLINE
5
157
100
AcDbEntity
8
0
100
AcDbSpline
70
1064
71
3
72
8
73
4
74
0
42
0.000000001
43
0.0000000001
44
0.0000000001
40
0
40
0
40
0
40
0
40
1
40
1
40
1
40
1
10
117.55601110572147
20
-9.7656073453597454
30
0
10
117.62534774268644
20
-10.045295207764157
30
0
10
117.54640112516216
20
-10.202756579787327
30
0
10
117.13795741473137
20
-10.599480350306415
30
0
0
SPLINE
5
158
100
AcDbEntity
8
0
100
AcDbSpline
70
1064
71
3
72
8
73
4
74
0
42
0.000000001
43
0.0000000001
44
0.0000000001
40
0
40
0
40
0
40
0
40
1
40
1
40
1
40
1
10
117.13795741473137
20
-10.599480350306415
30
0
10
116.64549989394557
20
-11.077804639465054
30
0
10
116.63933659162666
20
-11.096047767550123
30
0
10
116.85763718146842
20
-11.429217752662721
30
0
0
SPLINE
5
159
100
AcDbEntity
8
0
100
AcDbSpline
70
1064
71
3
72
8
73
4
74
0
42
0.000000001
43
0.0000000001
44
0.0000000001
40
0
40
0
40
0
40
0
40
1
40
1
40
1
40
1
10
116.85763718146842
20
-11.429217752662721
30
0
10
117.16026005525471
20
-11.891079834593206
30
0
10
117.13963551105846
20
-12.493024914757786
30
0
10
116.8109959747308
20
-12.790440754352744
30
0
0
SPLINE
5
160
100
AcDbEntity
8
0
100
AcDbSpline
70
1064
71
3
72
8
73
4
74
0
42
0.000000001
43
0.0000000001
44
0.0000000001
40
0
40
0
40
0
40
0
40
1
40
1
40
1
40
1
10
116.8109959747308
20
-12.790440754352744
30
0
10
116.6625790483528
20
-12.924756324707843
30
0
10
116.02310095830425
20
-13.172988106942125
30
0
10
115.38993629438819
20
-13.342064537856563
30
0
0
SPLINE
5
161
100
AcDbEntity
8
0
100
AcDbSpline
70
1064
71
3
72
8
73
4
74
0
42
0.000000001
43
0.0000000001
44
0.0000000001
40
0
40
0
40
0
40
0
40
1
40
1
40
1
40
1
10
115.38993629438819
20
-13.342064537856563
30
0
10
114.48511744858449
20
-13.583683674576525
30
0
10
114.04175864079959
20
-13.795496036585071
30
0
10
113.31844565507797
20
-14.331709507801049
30
0
0
SPLINE
5
162
100
AcDbEntity
8
0
100
AcDbSpline
70
1064
71
3
72
8
73
4
74
0
42
0.000000001
43
0.0000000001
44
0.0000000001
40
0
40
0
40
0
40
0
40
1
40
1
40
1
40
1
10
113.31844565507797
20
-14.331709507801049
30
0
10
112.03098999934392
20
-15.286140161009579
30
0
10
111.84905638921769
20
-15.264417450834561
30
0
10
110.63755104420821
20
-14.011606463941131
30
0
0
SPLINE
5
163
100
AcDbEntity
8
0
100
AcDbSpline
70
1064
71
3
72
8
73
4
74
0
42
0.000000001
43
0.0000000001
44
0.0000000001
40
0
40
0
40
0
40
0
40
1
40
1
40
1
40
1
10
117.15377388391211
20
-9.4792338320248248
30
0
10
117.2988263916736
20
-9.244532729672823
30
0
10
117.13362233255312
20
-9.194828380191133
30
0
10
116.94877467525109
20
-9.4175555660427062
30
0
0
SPLINE
5
164
100
AcDbEntity
8
0
100
AcDbSpline
70
1064
71
3
72
8
73
4
74
0
42
0.000000001
43
0.0000000001
44
0.0000000001
40
0
40
0
40
0
40
0
40
1
40
1
40
1
40
1
10
116.94877467525109
20
-9.4175555660427062
30
0
10
116.84247056331631
20
-9.5456440828704032
30
0
10
116.83224569206854
20
-9.6229742987855005
30
0
10
116.92161460393788
20
-9.6229742987855005
30
0
0
SPLINE
5
165
100
AcDbEntity
8
0
100
AcDbSpline
70
1064
71
3
72
8
73
4
74
0
42
0.000000001
43
0.0000000001
44
0.0000000001
40
0
40
0
40
0
40
0
40
1
40
1
40
1
40
1
10
116.92161460393788
20
-9.6229742987855005
30
0
10
117.00044194500751
20
-9.6229742987855005
30
0
10
117.10491372382045
20
-9.5582904717960187
30
0
10
117.15377388391211
20
-9.4792338320248248
30
0
0
SPLINE
5
166
100
AcDbEntity
8
0
100
AcDbSpline
70
1064
71
3
72
8
73
4
74
0
42
0.000000001
43
0.0000000001
44
0.0000000001
40
0
40
0
40
0
40
0
40
1
40
1
40
1
40
1
10
108.25313656971183
20
-10.572589679261394
30
0
10
107.68114633158164
20
-10.335998662050844
30
0
10
107.30971739540439
20
-9.767790310128353
30
0
10
107.30971739540439
20
-9.1293528043218473
30
0
0
SPLINE
5
167
100
AcDbEntity
8
0
100
AcDbSpline
70
1064
71
3
72
8
73
4
74
0
42
0.000000001
43
0.0000000001
44
0.0000000001
40
0
40
0
40
0
40
0
40
1
40
1
40
1
40
1
10
107.30971739540439
20
-9.1293528043218473
30
0
10
107.30971739540439
20
-7.605475791851493
30
0
10
109.33873739090751
20
-7.2267360316022646
30
0
10
110.00302292702642
20
-8.6266159152874486
30
0
0
SPLINE
5
168
100
AcDbEntity
8
0
100
AcDbSpline
70
1064
71
3
72
8
73
4
74
0
42
0.000000001
43
0.0000000001
44
0.0000000001
40
0
40
0
40
0
40
0
40
1
40
1
40
1
40
1
10
110.00302292702642
20
-8.6266159152874486
30
0
10
110.1154101381468
20
-8.8634537113696243
30
0
10
110.20713578824017
20
-9.1390357902973314
30
0
10
110.2068581620096
20
-9.23902133487314
30
0
0
SPLINE
5
169
100
AcDbEntity
8
0
100
AcDbSpline
70
1064
71
3
72
8
73
4
74
0
42
0.000000001
43
0.0000000001
44
0.0000000001
40
0
40
0
40
0
40
0
40
1
40
1
40
1
40
1
10
110.2068581620096
20
-9.23902133487314
30
0
10
110.20578056093683
20
-9.6156182319204024
30
0
10
109.64520590211001
20
-10.320234633380336
30
0
10
109.19793359271921
20
-10.507118216373302
30
0
0
SPLINE
5
170
100
AcDbEntity
8
0
100
AcDbSpline
70
1064
71
3
72
8
73
4
74
0
42
0.000000001
43
0.0000000001
44
0.0000000001
40
0
40
0
40
0
40
0
40
1
40
1
40
1
40
1
10
109.19793359271921
20
-10.507118216373302
30
0
10
108.67580708209196
20
-10.72527588011857
30
0
10
108.62995556774356
20
-10.728454186336073
30
0
10
108.25313656971183
20
-10.572589679261394
30
0
0
ENDSEC
0
SECTION
2
OBJECTS
0
DICTIONARY
5
C
100
AcDbDictionary
3
ACAD_GROUP
350
D
3
ACAD_MLINESTYLE
350
17
0
DICTIONARY
5
D
100
AcDbDictionary
0
DICTIONARY
5
1A
330
C
100
AcDbDictionary
0
DICTIONARY
5
17
100
AcDbDictionary
0
ENDSEC
0
EOF
