0
SECTION
2
HEADER
9
$INSUNITS
70
4
9
$ACADVER
1
AC1014
9
$HANDSEED
5
FFFF
0
ENDSEC
0
SECTION
2
TABLES
0
TABLE
2
VPORT
5
8
100
AcDbSymbolTable
0
ENDTAB
0
TABLE
2
LTYPE
5
5
100
AcDbSymbolTable
0
LTYPE
5
14
100
AcDbSymbolTableRecord
100
AcDbLinetypeTableRecord
2
BYBLOCK
70
0
0
LTYPE
5
15
100
AcDbSymbolTableRecord
100
AcDbLinetypeTableRecord
2
BYLAYER
70
0
0
ENDTAB
0
TABLE
2
LAYER
5
2
100
AcDbSymbolTable
70
2
0
LAYER
5
50
100
AcDbSymbolTableRecord
100
AcDbLayerTableRecord
2
0
70
0
6
CONTINUOUS
0
ENDTAB
0
TABLE
2
STYLE
5
3
100
AcDbSymbolTable
70
1
0
STYLE
5
11
100
AcDbSymbolTableRecord
100
AcDbTextStyleTableRecord
2
STANDARD
70
0
0
ENDTAB
0
TABLE
2
VIEW
5
6
100
AcDbSymbolTable
70
0
0
ENDTAB
0
TABLE
2
UCS
5
7
100
AcDbSymbolTable
70
0
0
ENDTAB
0
TABLE
2
APPID
5
9
100
AcDbSymbolTable
70
2
0
APPID
5
12
100
AcDbSymbolTableRecord
100
AcDbRegAppTableRecord
2
ACAD
70
0
0
ENDTAB
0
TABLE
2
DIMSTYLE
5
A
100
AcDbSymbolTable
70
1
0
ENDTAB
0
TABLE
2
BLOCK_RECORD
5
1
100
AcDbSymbolTable
70
1
0
BLOCK_RECORD
5
1F
100
AcDbSymbolTableRecord
100
AcDbBlockTableRecord
2
*MODEL_SPACE
0
BLOCK_RECORD
5
1B
100
AcDbSymbolTableRecord
100
AcDbBlockTableRecord
2
*PAPER_SPACE
0
ENDTAB
0
ENDSEC
0
SECTION
2
BLOCKS
0
BLOCK
5
20
100
AcDbEntity
100
AcDbBlockBegin
2
*MODEL_SPACE
0
ENDBLK
5
21
100
AcDbEntity
100
AcDbBlockEnd
0
BLOCK
5
1C
100
AcDbEntity
100
AcDbBlockBegin
2
*PAPER_SPACE
0
ENDBLK
5
1D
100
AcDbEntity
100
AcDbBlockEnd
0
ENDSEC
0
SECTION
2
ENTITIES
0
LWPOLYLINE
5
100
100
AcDbEntity
8
0
100
AcDbPolyline
90
4
70
1
43
0.0
10
355.78918738499368
20
-16.000000000000004
10
359.78918738499368
20
-16.000000000000004
10
359.78918738499368
20
-8.0000000000000018
10
355.78918738499368
20
-8.0000000000000018
0
LWPOLYLINE
5
101
100
AcDbEntity
8
0
100
AcDbPolyline
90
4
70
1
43
0.0
10
355.78918738499368
20
-32.000000000000007
10
359.78918738499368
20
-32.000000000000007
10
359.78918738499368
20
-24.000000000000004
10
355.78918738499368
20
-24.000000000000004
0
LWPOLYLINE
5
102
100
AcDbEntity
8
0
100
AcDbPolyline
90
130
70
1
43
0.0
10
214.64046900000002
20
-36
10
214.64046900000002
20
-40
10
204.81337222580646
20
-40
10
204.81337222580646
20
-36
10
194.640469
20
-36
10
194.640469
20
-31.200000000000003
10
206.640469
20
-31.200000000000003
10
206.640469
20
-22.400000000000002
10
194.640469
20
-22.400000000000002
10
194.640469
20
-13.599999999999998
10
206.640469
20
-13.599999999999998
10
206.640469
20
-4.7999999999999972
10
194.640469
20
-4.7999999999999972
10
194.640469
20
4.0000000000000036
10
217.98627545161293
20
4.0000000000000036
10
217.98627545161293
20
0
10
225.15917867741936
20
0
10
225.15917867741936
20
4.0000000000000036
10
235.33208190322583
20
4.0000000000000036
10
235.33208190322583
20
0
10
245.50498512903229
20
0
10
245.50498512903229
20
4.0000000000000036
10
255.67788835483873
20
4.0000000000000036
10
255.67788835483873
20
0
10
265.85079158064519
20
0
10
265.85079158064519
20
4.0000000000000036
10
276.02369480645166
20
4.0000000000000036
10
276.02369480645166
20
0
10
286.19659803225812
20
0
10
286.19659803225812
20
4.0000000000000036
10
296.36950125806459
20
4.0000000000000036
10
296.36950125806459
20
0
10
306.54240448387105
20
0
10
306.54240448387105
20
4.0000000000000036
10
316.71530770967752
20
4.0000000000000036
10
316.71530770967752
20
0
10
326.88821093548398
20
0
10
326.88821093548398
20
4.0000000000000036
10
337.06111416129039
20
4.0000000000000036
10
337.06111416129039
20
0
10
347.23401738709686
20
0
10
347.23401738709686
20
4.0000000000000036
10
357.40692061290332
20
4.0000000000000036
10
357.40692061290332
20
0
10
367.57982383870979
20
0
10
367.57982383870979
20
4.0000000000000036
10
377.75272706451625
20
4.0000000000000036
10
377.75272706451625
20
0
10
387.92563029032266
20
0
10
387.92563029032266
20
4.0000000000000036
10
398.09853351612912
20
4.0000000000000036
10
398.09853351612912
20
0
10
408.27143674193564
20
0
10
408.27143674193564
20
4.0000000000000036
10
418.44433996774205
20
4.0000000000000036
10
418.44433996774205
20
0
10
428.61724319354846
20
0
10
428.61724319354846
20
4.0000000000000036
10
438.79014641935498
20
4.0000000000000036
10
438.79014641935498
20
0
10
448.9630496451615
20
0
10
448.9630496451615
20
4.0000000000000036
10
459.13595287096791
20
4.0000000000000036
10
459.13595287096791
20
0
10
469.30885609677432
20
0
10
469.30885609677432
20
4.0000000000000036
10
479.48175932258084
20
4.0000000000000036
10
479.48175932258084
20
0
10
489.65466254838731
20
0
10
489.65466254838731
20
4.0000000000000036
10
499.82756577419372
20
4.0000000000000036
10
499.82756577419372
20
0
10
510
20
0
10
510
20
-36
10
499.82756577419372
20
-36
10
499.82756577419372
20
-40
10
489.65466254838731
20
-40
10
489.65466254838731
20
-36
10
479.48175932258084
20
-36
10
479.48175932258084
20
-40
10
469.30885609677432
20
-40
10
469.30885609677432
20
-36
10
459.13595287096791
20
-36
10
459.13595287096791
20
-40
10
448.9630496451615
20
-40
10
448.9630496451615
20
-36
10
438.79014641935498
20
-36
10
438.79014641935498
20
-40
10
428.61724319354846
20
-40
10
428.61724319354846
20
-36
10
418.44433996774205
20
-36
10
418.44433996774205
20
-40
10
408.27143674193564
20
-40
10
408.27143674193564
20
-36
10
398.09853351612912
20
-36
10
398.09853351612912
20
-40
10
387.92563029032266
20
-40
10
387.92563029032266
20
-36
10
377.75272706451625
20
-36
10
377.75272706451625
20
-40
10
367.57982383870979
20
-40
10
367.57982383870979
20
-36
10
357.40692061290332
20
-36
10
357.40692061290332
20
-40
10
347.23401738709686
20
-40
10
347.23401738709686
20
-36
10
337.06111416129039
20
-36
10
337.06111416129039
20
-40
10
326.88821093548398
20
-40
10
326.88821093548398
20
-36
10
316.71530770967752
20
-36
10
316.71530770967752
20
-40
10
306.54240448387105
20
-40
10
306.54240448387105
20
-36
10
296.36950125806459
20
-36
10
296.36950125806459
20
-40
10
286.19659803225812
20
-40
10
286.19659803225812
20
-36
10
276.02369480645166
20
-36
10
276.02369480645166
20
-40
10
265.85079158064519
20
-40
10
265.85079158064519
20
-36
10
255.67788835483873
20
-36
10
255.67788835483873
20
-40
10
245.50498512903229
20
-40
10
245.50498512903229
20
-36
10
235.33208190322583
20
-36
10
235.33208190322583
20
-40
10
225.15917867741936
20
-40
10
225.15917867741936
20
-36
0
ENDSEC
0
SECTION
2
OBJECTS
0
DICTIONARY
5
C
100
AcDbDictionary
3
ACAD_GROUP
350
D
3
ACAD_MLINESTYLE
350
17
0
DICTIONARY
5
D
100
AcDbDictionary
0
DICTIONARY
5
1A
330
C
100
AcDbDictionary
0
DICTIONARY
5
17
100
AcDbDictionary
0
ENDSEC
0
EOF
