0
SECTION
2
HEADER
9
$INSUNITS
70
4
9
$ACADVER
1
AC1014
9
$HANDSEED
5
FFFF
0
ENDSEC
0
SECTION
2
TABLES
0
TABLE
2
VPORT
5
8
100
AcDbSymbolTable
0
ENDTAB
0
TABLE
2
LTYPE
5
5
100
AcDbSymbolTable
0
LTYPE
5
14
100
AcDbSymbolTableRecord
100
AcDbLinetypeTableRecord
2
BYBLOCK
70
0
0
LTYPE
5
15
100
AcDbSymbolTableRecord
100
AcDbLinetypeTableRecord
2
BYLAYER
70
0
0
ENDTAB
0
TABLE
2
LAYER
5
2
100
AcDbSymbolTable
70
2
0
LAYER
5
50
100
AcDbSymbolTableRecord
100
AcDbLayerTableRecord
2
0
70
0
6
CONTINUOUS
0
ENDTAB
0
TABLE
2
STYLE
5
3
100
AcDbSymbolTable
70
1
0
STYLE
5
11
100
AcDbSymbolTableRecord
100
AcDbTextStyleTableRecord
2
STANDARD
70
0
0
ENDTAB
0
TABLE
2
VIEW
5
6
100
AcDbSymbolTable
70
0
0
ENDTAB
0
TABLE
2
UCS
5
7
100
AcDbSymbolTable
70
0
0
ENDTAB
0
TABLE
2
APPID
5
9
100
AcDbSymbolTable
70
2
0
APPID
5
12
100
AcDbSymbolTableRecord
100
AcDbRegAppTableRecord
2
ACAD
70
0
0
ENDTAB
0
TABLE
2
DIMSTYLE
5
A
100
AcDbSymbolTable
70
1
0
ENDTAB
0
TABLE
2
BLOCK_RECORD
5
1
100
AcDbSymbolTable
70
1
0
BLOCK_RECORD
5
1F
100
AcDbSymbolTableRecord
100
AcDbBlockTableRecord
2
*MODEL_SPACE
0
BLOCK_RECORD
5
1B
100
AcDbSymbolTableRecord
100
AcDbBlockTableRecord
2
*PAPER_SPACE
0
ENDTAB
0
ENDSEC
0
SECTION
2
BLOCKS
0
BLOCK
5
20
100
AcDbEntity
100
AcDbBlockBegin
2
*MODEL_SPACE
0
ENDBLK
5
21
100
AcDbEntity
100
AcDbBlockEnd
0
BLOCK
5
1C
100
AcDbEntity
100
AcDbBlockBegin
2
*PAPER_SPACE
0
ENDBLK
5
1D
100
AcDbEntity
100
AcDbBlockEnd
0
ENDSEC
0
SECTION
2
ENTITIES
0
LWPOLYLINE
5
100
100
AcDbEntity
8
0
100
AcDbPolyline
90
40
70
1
43
0.0
10
34
20
-36
10
34
20
-40
10
18
20
-40
10
18
20
-36
10
1.9999999999999929
20
-36
10
1.9999999999999929
20
-40
10
-14.000000000000004
20
-40
10
-14.000000000000004
20
-36
10
-30.000000000000004
20
-36
10
-30
20
-26.400000000000002
10
-26
20
-26.400000000000002
10
-26
20
-29.999999999999993
10
-22
20
-29.999999999999993
10
-22
20
-19.999999999999996
10
-26
20
-19.999999999999996
10
-26
20
-13.599999999999998
10
-30
20
-13.599999999999998
10
-30
20
-4.7999999999999972
10
-26
20
-4.7999999999999972
10
-26
20
-9.9999999999999964
10
-22
20
-9.9999999999999964
10
-22
20
4.4408920985006262e-15
10
-10.800000000000001
20
0
10
-10.800000000000001
20
4
10
4.399999999999995
20
4
10
4.399999999999995
20
0
10
19.600000000000001
20
0
10
19.600000000000001
20
4
10
34.799999999999997
20
4
10
34.799999999999997
20
0
10
50
20
0
10
50
20
-4.7999999999999972
10
46
20
-4.7999999999999972
10
46
20
-13.599999999999998
10
50
20
-13.599999999999998
10
50
20
-22.400000000000002
10
46
20
-22.400000000000002
10
46
20
-31.200000000000003
10
50
20
-31.200000000000003
10
50
20
-36
0
SPLINE
5
101
100
AcDbEntity
8
0
100
AcDbSpline
70
1064
71
3
72
8
73
4
74
0
42
0.000000001
43
0.0000000001
44
0.0000000001
40
0
40
0
40
0
40
0
40
1
40
1
40
1
40
1
10
10.350780714552492
20
-30.744266833034445
30
0
10
4.78289098518899
20
-30.171831790141027
30
0
10
1.7852518786362137
20
-29.379188897215208
30
0
10
-0.86104128792444889
20
-27.779609572983542
30
0
0
SPLINE
5
102
100
AcDbEntity
8
0
100
AcDbSpline
70
1064
71
3
72
8
73
4
74
0
42
0.000000001
43
0.0000000001
44
0.0000000001
40
0
40
0
40
0
40
0
40
1
40
1
40
1
40
1
10
-0.86104128792444889
20
-27.779609572983542
30
0
10
-2.2333627391725628
20
-26.950095826330077
30
0
10
-2.8707173819967977
20
-26.240662361898821
30
0
10
-3.4731648323773374
20
-24.872074740740864
30
0
0
SPLINE
5
103
100
AcDbEntity
8
0
100
AcDbSpline
70
1064
71
3
72
8
73
4
74
0
42
0.000000001
43
0.0000000001
44
0.0000000001
40
0
40
0
40
0
40
0
40
1
40
1
40
1
40
1
10
-3.4731648323773374
20
-24.872074740740864
30
0
10
-3.7673509871026538
20
-24.203770880314526
30
0
10
-4.0467644222004866
20
-23.406909468220654
30
0
10
-4.094083630254941
20
-23.101273731384602
30
0
0
SPLINE
5
104
100
AcDbEntity
8
0
100
AcDbSpline
70
1064
71
3
72
8
73
4
74
0
42
0.000000001
43
0.0000000001
44
0.0000000001
40
0
40
0
40
0
40
0
40
1
40
1
40
1
40
1
10
-4.094083630254941
20
-23.101273731384602
30
0
10
-4.1814514707245927
20
-22.536963456788964
30
0
10
-3.9384103109649899
20
-20.461628276682763
30
0
10
-3.7033590973930544
20
-19.764871443193822
30
0
0
SPLINE
5
105
100
AcDbEntity
8
0
100
AcDbSpline
70
1064
71
3
72
8
73
4
74
0
42
0.000000001
43
0.0000000001
44
0.0000000001
40
0
40
0
40
0
40
0
40
1
40
1
40
1
40
1
10
-3.7033590973930544
20
-19.764871443193822
30
0
10
-3.6334738291227313
20
-19.557711882922348
30
0
10
-3.5413943989260495
20
-18.766735707378999
30
0
10
-3.4987384074791916
20
-18.007147460105092
30
0
0
SPLINE
5
106
100
AcDbEntity
8
0
100
AcDbSpline
70
1064
71
3
72
8
73
4
74
0
42
0.000000001
43
0.0000000001
44
0.0000000001
40
0
40
0
40
0
40
0
40
1
40
1
40
1
40
1
10
-3.4987384074791916
20
-18.007147460105092
30
0
10
-3.4505832065537305
20
-17.149634777193214
30
0
10
-3.3293606481944011
20
-16.364300535777886
30
0
10
-3.1789710145835959
20
-15.935544194321945
30
0
0
SPLINE
5
107
100
AcDbEntity
8
0
100
AcDbSpline
70
1064
71
3
72
8
73
4
74
0
42
0.000000001
43
0.0000000001
44
0.0000000001
40
0
40
0
40
0
40
0
40
1
40
1
40
1
40
1
10
-3.1789710145835959
20
-15.935544194321945
30
0
10
-3.0457543173135666
20
-15.55575007068499
30
0
10
-2.8043547304931646
20
-14.671081389041463
30
0
10
-2.642526051490707
20
-13.969612726354601
30
0
0
SPLINE
5
108
100
AcDbEntity
8
0
100
AcDbSpline
70
1064
71
3
72
8
73
4
74
0
42
0.000000001
43
0.0000000001
44
0.0000000001
40
0
40
0
40
0
40
0
40
1
40
1
40
1
40
1
10
-2.642526051490707
20
-13.969612726354601
30
0
10
-2.3081504554678789
20
-12.520213259235602
30
0
10
-2.1000737216942711
20
-12.051576393928041
30
0
10
-1.624984552772728
20
-11.677872493921981
30
0
0
SPLINE
5
109
100
AcDbEntity
8
0
100
AcDbSpline
70
1064
71
3
72
8
73
4
74
0
42
0.000000001
43
0.0000000001
44
0.0000000001
40
0
40
0
40
0
40
0
40
1
40
1
40
1
40
1
10
-1.624984552772728
20
-11.677872493921981
30
0
10
-0.94753003076320175
20
-11.144987505054353
30
0
10
-0.4908772465890332
20
-11.332863911517473
30
0
10
1.256148614036402
20
-12.86323519115089
30
0
0
SPLINE
5
110
100
AcDbEntity
8
0
100
AcDbSpline
70
1064
71
3
72
8
73
4
74
0
42
0.000000001
43
0.0000000001
44
0.0000000001
40
0
40
0
40
0
40
0
40
1
40
1
40
1
40
1
10
1.256148614036402
20
-12.86323519115089
30
0
10
2.1664157757541647
20
-13.66061769189767
30
0
10
2.8081527358340352
20
-14.100116697402125
30
0
10
3.6907581363040909
20
-14.530597229253726
30
0
0
SPLINE
5
111
100
AcDbEntity
8
0
100
AcDbSpline
70
1064
71
3
72
8
73
4
74
0
42
0.000000001
43
0.0000000001
44
0.0000000001
40
0
40
0
40
0
40
0
40
1
40
1
40
1
40
1
10
3.6907581363040909
20
-14.530597229253726
30
0
10
4.8534027093030696
20
-15.097662376948211
30
0
10
4.9297469863722458
20
-15.116583450773476
30
0
10
6.2409736667172444
20
-15.162655733912624
30
0
0
LINE
5
112
100
AcDbEntity
8
0
100
AcDbLine
10
6.2409736667172444
20
-15.162655733912626
30
0
11
7.5926661377648372
21
-15.210149516244639
31
0
0
LINE
5
113
100
AcDbEntity
8
0
100
AcDbLine
10
7.5926661377648372
20
-15.210149516244639
30
0
11
7.154125015813527
21
-14.346921142171144
31
0
0
SPLINE
5
114
100
AcDbEntity
8
0
100
AcDbSpline
70
1064
71
3
72
8
73
4
74
0
42
0.000000001
43
0.0000000001
44
0.0000000001
40
0
40
0
40
0
40
0
40
1
40
1
40
1
40
1
10
7.1541250158135261
20
-14.346921142171144
30
0
10
6.5383419106061087
20
-13.134809546720676
30
0
10
6.3360541460859299
20
-12.378271200679979
30
0
10
6.3344860907094329
20
-11.281530931904452
30
0
0
SPLINE
5
115
100
AcDbEntity
8
0
100
AcDbSpline
70
1064
71
3
72
8
73
4
74
0
42
0.000000001
43
0.0000000001
44
0.0000000001
40
0
40
0
40
0
40
0
40
1
40
1
40
1
40
1
10
6.3344860907094329
20
-11.281530931904452
30
0
10
6.3294265497817221
20
-7.7452442090283338
30
0
10
9.253672618492562
20
-4.8869939224202739
30
0
10
12.876666002715776
20
-4.8869939224202739
30
0
0
SPLINE
5
116
100
AcDbEntity
8
0
100
AcDbSpline
70
1064
71
3
72
8
73
4
74
0
42
0.000000001
43
0.0000000001
44
0.0000000001
40
0
40
0
40
0
40
0
40
1
40
1
40
1
40
1
10
12.876666002715776
20
-4.8869939224202739
30
0
10
14.348203116631497
20
-4.8869939224202739
30
0
10
16.177149573430739
20
-5.5127586531932362
30
0
10
17.349805945327187
20
-6.417456679933017
30
0
0
SPLINE
5
117
100
AcDbEntity
8
0
100
AcDbSpline
70
1064
71
3
72
8
73
4
74
0
42
0.000000001
43
0.0000000001
44
0.0000000001
40
0
40
0
40
0
40
0
40
1
40
1
40
1
40
1
10
17.349805945327187
20
-6.417456679933017
30
0
10
18.047926804995807
20
-6.9560535284280443
30
0
10
19.294623744016114
20
-8.4179035659708177
30
0
10
19.916671407661099
20
-9.4273068860212792
30
0
0
LINE
5
118
100
AcDbEntity
8
0
100
AcDbLine
10
19.916671407661099
20
-9.4273068860212792
30
0
11
20.277446753350368
21
-10.012742324497971
31
0
0
LINE
5
119
100
AcDbEntity
8
0
100
AcDbLine
10
20.277446753350368
20
-10.012742324497971
30
0
11
21.322120303711166
21
-9.9826839386002959
31
0
0
SPLINE
5
120
100
AcDbEntity
8
0
100
AcDbSpline
70
1064
71
3
72
8
73
4
74
0
42
0.000000001
43
0.0000000001
44
0.0000000001
40
0
40
0
40
0
40
0
40
1
40
1
40
1
40
1
10
21.322120303711166
20
-9.9826839386002941
30
0
10
21.896689511160989
20
-9.9661527842401263
30
0
10
22.485146114364298
20
-9.9964075362661973
30
0
10
22.629799941258874
20
-10.049919700962619
30
0
0
SPLINE
5
121
100
AcDbEntity
8
0
100
AcDbSpline
70
1064
71
3
72
8
73
4
74
0
42
0.000000001
43
0.0000000001
44
0.0000000001
40
0
40
0
40
0
40
0
40
1
40
1
40
1
40
1
10
22.629799941258874
20
-10.049919700962619
30
0
10
22.995903035270729
20
-10.185350067123963
30
0
10
23.282609077329543
20
-10.799189626602052
30
0
10
23.282609077329543
20
-11.447595371978919
30
0
0
SPLINE
5
122
100
AcDbEntity
8
0
100
AcDbSpline
70
1064
71
3
72
8
73
4
74
0
42
0.000000001
43
0.0000000001
44
0.0000000001
40
0
40
0
40
0
40
0
40
1
40
1
40
1
40
1
10
23.282609077329543
20
-11.447595371978919
30
0
10
23.282609077329543
20
-11.905990546336255
30
0
10
23.212679746415773
20
-12.061962725294787
30
0
10
22.849212747942175
20
-12.414248349052537
30
0
0
SPLINE
5
123
100
AcDbEntity
8
0
100
AcDbSpline
70
1064
71
3
72
8
73
4
74
0
42
0.000000001
43
0.0000000001
44
0.0000000001
40
0
40
0
40
0
40
0
40
1
40
1
40
1
40
1
10
22.849212747942175
20
-12.414248349052537
30
0
10
22.44977530628088
20
-12.801398060494087
30
0
10
22.430100378099294
20
-12.854705238110139
30
0
10
22.598109321786637
20
-13.094572690187283
30
0
0
SPLINE
5
124
100
AcDbEntity
8
0
100
AcDbSpline
70
1064
71
3
72
8
73
4
74
0
42
0.000000001
43
0.0000000001
44
0.0000000001
40
0
40
0
40
0
40
0
40
1
40
1
40
1
40
1
10
22.598109321786637
20
-13.094572690187283
30
0
10
22.698369077527175
20
-13.237714976834997
30
0
10
22.780402225018477
20
-13.545585456000538
30
0
10
22.780402225018477
20
-13.778730481301714
30
0
0
SPLINE
5
125
100
AcDbEntity
8
0
100
AcDbSpline
70
1064
71
3
72
8
73
4
74
0
42
0.000000001
43
0.0000000001
44
0.0000000001
40
0
40
0
40
0
40
0
40
1
40
1
40
1
40
1
10
22.780402225018477
20
-13.778730481301714
30
0
10
22.780402225018477
20
-14.429181308064543
30
0
10
22.235554228455626
20
-14.860571829291631
30
0
10
21.065704455369897
20
-15.136363746145911
30
0
0
SPLINE
5
126
100
AcDbEntity
8
0
100
AcDbSpline
70
1064
71
3
72
8
73
4
74
0
42
0.000000001
43
0.0000000001
44
0.0000000001
40
0
40
0
40
0
40
0
40
1
40
1
40
1
40
1
10
21.065704455369897
20
-15.136363746145911
30
0
10
19.851805449209259
20
-15.422541036483386
30
0
10
18.706128825470682
20
-16.176233510487691
30
0
10
18.832858735318815
20
-16.60525805933851
30
0
0
SPLINE
5
127
100
AcDbEntity
8
0
100
AcDbSpline
70
1064
71
3
72
8
73
4
74
0
42
0.000000001
43
0.0000000001
44
0.0000000001
40
0
40
0
40
0
40
0
40
1
40
1
40
1
40
1
10
18.832858735318815
20
-16.60525805933851
30
0
10
18.96906786080887
20
-17.066373622986781
30
0
10
19.55568532759014
20
-17.720472070319982
30
0
10
20.593442958697239
20
-18.568375265426713
30
0
0
SPLINE
5
128
100
AcDbEntity
8
0
100
AcDbSpline
70
1064
71
3
72
8
73
4
74
0
42
0.000000001
43
0.0000000001
44
0.0000000001
40
0
40
0
40
0
40
0
40
1
40
1
40
1
40
1
10
20.593442958697239
20
-18.568375265426713
30
0
10
21.930500884819885
20
-19.660822300117044
30
0
10
23.076397821775686
20
-20.838042029260674
30
0
10
23.490452566457961
20
-21.544571190758795
30
0
0
SPLINE
5
129
100
AcDbEntity
8
0
100
AcDbSpline
70
1064
71
3
72
8
73
4
74
0
42
0.000000001
43
0.0000000001
44
0.0000000001
40
0
40
0
40
0
40
0
40
1
40
1
40
1
40
1
10
23.490452566457961
20
-21.544571190758795
30
0
10
24.281622234479045
20
-22.894600775958128
30
0
10
24.579661954738661
20
-24.630835599415612
30
0
10
24.24468624466979
20
-25.938369638663239
30
0
0
SPLINE
5
130
100
AcDbEntity
8
0
100
AcDbSpline
70
1064
71
3
72
8
73
4
74
0
42
0.000000001
43
0.0000000001
44
0.0000000001
40
0
40
0
40
0
40
0
40
1
40
1
40
1
40
1
10
24.24468624466979
20
-25.938369638663239
30
0
10
23.403522718242982
20
-29.221751156420368
30
0
10
19.697026793157942
20
-30.907313939916499
30
0
10
13.426797684957773
20
-30.857896727409774
30
0
0
SPLINE
5
131
100
AcDbEntity
8
0
100
AcDbSpline
70
1064
71
3
72
8
73
4
74
0
42
0.000000001
43
0.0000000001
44
0.0000000001
40
0
40
0
40
0
40
0
40
1
40
1
40
1
40
1
10
13.426797684957773
20
-30.857896727409774
30
0
10
12.252888401373813
20
-30.848643572286395
30
0
10
10.868681530998279
20
-30.797511748219538
30
0
10
10.350780714552492
20
-30.744266833034445
30
0
0
SPLINE
5
132
100
AcDbEntity
8
0
100
AcDbSpline
70
1064
71
3
72
8
73
4
74
0
42
0.000000001
43
0.0000000001
44
0.0000000001
40
0
40
0
40
0
40
0
40
1
40
1
40
1
40
1
10
14.493987246118785
20
-12.611649949568125
30
0
10
14.493987246118785
20
-12.5788960793519
30
0
10
14.321993506850358
20
-12.4631578832761
30
0
10
14.111780213811462
20
-12.35445055248038
30
0
0
SPLINE
5
133
100
AcDbEntity
8
0
100
AcDbSpline
70
1064
71
3
72
8
73
4
74
0
42
0.000000001
43
0.0000000001
44
0.0000000001
40
0
40
0
40
0
40
0
40
1
40
1
40
1
40
1
10
14.111780213811462
20
-12.35445055248038
30
0
10
13.607126926905661
20
-12.093483799378117
30
0
10
13.239521871482474
20
-11.468096953666871
30
0
10
13.238939478282163
20
-10.869533721094333
30
0
0
SPLINE
5
134
100
AcDbEntity
8
0
100
AcDbSpline
70
1064
71
3
72
8
73
4
74
0
42
0.000000001
43
0.0000000001
44
0.0000000001
40
0
40
0
40
0
40
0
40
1
40
1
40
1
40
1
10
13.238939478282163
20
-10.869533721094333
30
0
10
13.238562072162221
20
-10.486869778332156
30
0
10
13.327409603250597
20
-10.29722032941217
30
0
10
13.665345173498684
20
-9.9592838012805256
30
0
0
SPLINE
5
135
100
AcDbEntity
8
0
100
AcDbSpline
70
1064
71
3
72
8
73
4
74
0
42
0.000000001
43
0.0000000001
44
0.0000000001
40
0
40
0
40
0
40
0
40
1
40
1
40
1
40
1
10
13.665345173498684
20
-9.9592838012805256
30
0
10
14.027473050764993
20
-9.5971549661306632
30
0
10
14.180100300355942
20
-9.5324077852394087
30
0
10
14.671603761844171
20
-9.5324077852394087
30
0
0
SPLINE
5
136
100
AcDbEntity
8
0
100
AcDbSpline
70
1064
71
3
72
8
73
4
74
0
42
0.000000001
43
0.0000000001
44
0.0000000001
40
0
40
0
40
0
40
0
40
1
40
1
40
1
40
1
10
14.671603761844171
20
-9.5324077852394087
30
0
10
16.212006955929674
20
-9.5324077852394087
30
0
10
16.812452429684139
20
-11.528638067876267
30
0
10
15.514370785338944
20
-12.334256451412987
30
0
0
SPLINE
5
137
100
AcDbEntity
8
0
100
AcDbSpline
70
1064
71
3
72
8
73
4
74
0
42
0.000000001
43
0.0000000001
44
0.0000000001
40
0
40
0
40
0
40
0
40
1
40
1
40
1
40
1
10
15.514370785338944
20
-12.334256451412987
30
0
10
15.285172240276722
20
-12.476501201171404
30
0
10
15.247596384253965
20
-12.539986849423165
30
0
10
15.391231023047993
20
-12.542307801272436
30
0
0
SPLINE
5
138
100
AcDbEntity
8
0
100
AcDbSpline
70
1064
71
3
72
8
73
4
74
0
42
0.000000001
43
0.0000000001
44
0.0000000001
40
0
40
0
40
0
40
0
40
1
40
1
40
1
40
1
10
15.391231023047993
20
-12.542307801272436
30
0
10
15.630533323828786
20
-12.546175735060032
30
0
10
16.31493537524927
20
-11.809847774107133
30
0
10
16.440885567885143
20
-11.413017691477505
30
0
0
SPLINE
5
139
100
AcDbEntity
8
0
100
AcDbSpline
70
1064
71
3
72
8
73
4
74
0
42
0.000000001
43
0.0000000001
44
0.0000000001
40
0
40
0
40
0
40
0
40
1
40
1
40
1
40
1
10
16.440885567885143
20
-11.413017691477505
30
0
10
16.67102858613077
20
-10.687899841747058
30
0
10
16.165938504324735
20
-9.7780723485801868
30
0
10
15.319941497488765
20
-9.3938393925579611
30
0
0
SPLINE
5
140
100
AcDbEntity
8
0
100
AcDbSpline
70
1064
71
3
72
8
73
4
74
0
42
0.000000001
43
0.0000000001
44
0.0000000001
40
0
40
0
40
0
40
0
40
1
40
1
40
1
40
1
10
15.319941497488765
20
-9.3938393925579611
30
0
10
14.670904506850375
20
-9.0990612657968004
30
0
10
14.313142662819303
20
-9.1008754972464558
30
0
10
13.649107131505778
20
-9.4023128304690768
30
0
0
SPLINE
5
141
100
AcDbEntity
8
0
100
AcDbSpline
70
1064
71
3
72
8
73
4
74
0
42
0.000000001
43
0.0000000001
44
0.0000000001
40
0
40
0
40
0
40
0
40
1
40
1
40
1
40
1
10
13.649107131505778
20
-9.4023128304690768
30
0
10
12.622976290966754
20
-9.8681220235277554
30
0
10
12.275059574094897
20
-11.123068255707746
30
0
10
12.949754433587813
20
-11.924897251908224
30
0
0
SPLINE
5
142
100
AcDbEntity
8
0
100
AcDbSpline
70
1064
71
3
72
8
73
4
74
0
42
0.000000001
43
0.0000000001
44
0.0000000001
40
0
40
0
40
0
40
0
40
1
40
1
40
1
40
1
10
12.949754433587813
20
-11.924897251908224
30
0
10
13.13622945641268
20
-12.146508401345988
30
0
10
13.461093747694562
20
-12.402873481858945
30
0
10
13.671676783784971
20
-12.494598495140963
30
0
0
SPLINE
5
143
100
AcDbEntity
8
0
100
AcDbSpline
70
1064
71
3
72
8
73
4
74
0
42
0.000000001
43
0.0000000001
44
0.0000000001
40
0
40
0
40
0
40
0
40
1
40
1
40
1
40
1
10
13.671676783784971
20
-12.494598495140963
30
0
10
14.054516019237372
20
-12.661353569257244
30
0
10
14.493987246118785
20
-12.723909112578903
30
0
10
14.493987246118785
20
-12.611649949568125
30
0
0
SPLINE
5
144
100
AcDbEntity
8
0
100
AcDbSpline
70
1064
71
3
72
8
73
4
74
0
42
0.000000001
43
0.0000000001
44
0.0000000001
40
0
40
0
40
0
40
0
40
1
40
1
40
1
40
1
10
16.526909258258847
20
-15.504005201144119
30
0
10
15.725509393890178
20
-14.675279792654896
30
0
10
15.623950748051577
20
-14.516029736177503
30
0
10
15.623950748051577
20
-14.088097174577268
30
0
0
SPLINE
5
145
100
AcDbEntity
8
0
100
AcDbSpline
70
1064
71
3
72
8
73
4
74
0
42
0.000000001
43
0.0000000001
44
0.0000000001
40
0
40
0
40
0
40
0
40
1
40
1
40
1
40
1
10
15.623950748051577
20
-14.088097174577268
30
0
10
15.623950748051577
20
-13.460125001156085
30
0
10
15.880579246541648
20
-13.112908497161577
30
0
10
16.622630561724584
20
-12.736880771655589
30
0
0
SPLINE
5
146
100
AcDbEntity
8
0
100
AcDbSpline
70
1064
71
3
72
8
73
4
74
0
42
0.000000001
43
0.0000000001
44
0.0000000001
40
0
40
0
40
0
40
0
40
1
40
1
40
1
40
1
10
16.622630561724584
20
-12.736880771655589
30
0
10
17.269815005571193
20
-12.408928263798371
30
0
10
17.847882403757094
20
-11.899431917647876
30
0
10
18.460100266379705
20
-11.117375553751408
30
0
0
SPLINE
5
147
100
AcDbEntity
8
0
100
AcDbSpline
70
1064
71
3
72
8
73
4
74
0
42
0.000000001
43
0.0000000001
44
0.0000000001
40
0
40
0
40
0
40
0
40
1
40
1
40
1
40
1
10
18.460100266379705
20
-11.117375553751408
30
0
10
18.80445174066676
20
-10.6774953105928
30
0
10
18.865997674723406
20
-10.646319074588604
30
0
10
19.100684892545146
20
-10.79288292128815
30
0
0
SPLINE
5
148
100
AcDbEntity
8
0
100
AcDbSpline
70
1064
71
3
72
8
73
4
74
0
42
0.000000001
43
0.0000000001
44
0.0000000001
40
0
40
0
40
0
40
0
40
1
40
1
40
1
40
1
10
19.100684892545146
20
-10.79288292128815
30
0
10
19.325392879510229
20
-10.933215735474491
30
0
10
19.437129995984542
20
-10.910010048516011
30
0
10
19.931361509832129
20
-10.62037096701747
30
0
0
SPLINE
5
149
100
AcDbEntity
8
0
100
AcDbSpline
70
1064
71
3
72
8
73
4
74
0
42
0.000000001
43
0.0000000001
44
0.0000000001
40
0
40
0
40
0
40
0
40
1
40
1
40
1
40
1
10
19.931361509832129
20
-10.62037096701747
30
0
10
20.56782532095194
20
-10.247377816607841
30
0
10
21.329492175536167
20
-10.173731897507876
30
0
10
21.444733230047888
20
-10.474044675439105
30
0
0
SPLINE
5
150
100
AcDbEntity
8
0
100
AcDbSpline
70
1064
71
3
72
8
73
4
74
0
42
0.000000001
43
0.0000000001
44
0.0000000001
40
0
40
0
40
0
40
0
40
1
40
1
40
1
40
1
10
21.444733230047888
20
-10.474044675439105
30
0
10
21.538571334448143
20
-10.718585641372043
30
0
10
21.831608986793238
20
-10.714363290669782
30
0
10
22.081095505511065
20
-10.464876771951957
30
0
0
SPLINE
5
151
100
AcDbEntity
8
0
100
AcDbSpline
70
1064
71
3
72
8
73
4
74
0
42
0.000000001
43
0.0000000001
44
0.0000000001
40
0
40
0
40
0
40
0
40
1
40
1
40
1
40
1
10
22.081095505511065
20
-10.464876771951957
30
0
10
22.390455493601742
20
-10.155517741744831
30
0
10
22.702501387175438
20
-10.295728904719921
30
0
10
22.803060002584559
20
-10.789276489710559
30
0
0
SPLINE
5
152
100
AcDbEntity
8
0
100
AcDbSpline
70
1064
71
3
72
8
73
4
74
0
42
0.000000001
43
0.0000000001
44
0.0000000001
40
0
40
0
40
0
40
0
40
1
40
1
40
1
40
1
10
22.803060002584559
20
-10.789276489710559
30
0
10
22.85215153468322
20
-11.030218687134337
30
0
10
22.928150015789711
20
-11.371895750541007
30
0
10
22.971946367606584
20
-11.548555340596803
30
0
0
SPLINE
5
153
100
AcDbEntity
8
0
100
AcDbSpline
70
1064
71
3
72
8
73
4
74
0
42
0.000000001
43
0.0000000001
44
0.0000000001
40
0
40
0
40
0
40
0
40
1
40
1
40
1
40
1
10
22.971946367606584
20
-11.548555340596803
30
0
10
23.036538371362234
20
-11.809104456469894
30
0
10
22.962993987918896
20
-11.955790912264243
30
0
10
22.582499651404593
20
-12.325367292039804
30
0
0
SPLINE
5
154
100
AcDbEntity
8
0
100
AcDbSpline
70
1064
71
3
72
8
73
4
74
0
42
0.000000001
43
0.0000000001
44
0.0000000001
40
0
40
0
40
0
40
0
40
1
40
1
40
1
40
1
10
22.582499651404593
20
-12.325367292039804
30
0
10
22.123740481297062
20
-12.770960352709366
30
0
10
22.117998927279512
20
-12.787955122709256
30
0
10
22.321361437146319
20
-13.098326635832059
30
0
0
SPLINE
5
155
100
AcDbEntity
8
0
100
AcDbSpline
70
1064
71
3
72
8
73
4
74
0
42
0.000000001
43
0.0000000001
44
0.0000000001
40
0
40
0
40
0
40
0
40
1
40
1
40
1
40
1
10
22.321361437146319
20
-13.098326635832059
30
0
10
22.603276145672304
20
-13.528583980815775
30
0
10
22.584062917363326
20
-14.089338591662145
30
0
10
22.27791183917568
20
-14.366402577875002
30
0
0
SPLINE
5
156
100
AcDbEntity
8
0
100
AcDbSpline
70
1064
71
3
72
8
73
4
74
0
42
0.000000001
43
0.0000000001
44
0.0000000001
40
0
40
0
40
0
40
0
40
1
40
1
40
1
40
1
10
22.27791183917568
20
-14.366402577875002
30
0
10
22.139650927114793
20
-14.491527074888065
30
0
10
21.543931650811537
20
-14.722772617103356
30
0
10
20.954093779524598
20
-14.880279325514028
30
0
0
SPLINE
5
157
100
AcDbEntity
8
0
100
AcDbSpline
70
1064
71
3
72
8
73
4
74
0
42
0.000000001
43
0.0000000001
44
0.0000000001
40
0
40
0
40
0
40
0
40
1
40
1
40
1
40
1
10
20.954093779524598
20
-14.880279325514028
30
0
10
20.111190736565277
20
-15.105364718599045
30
0
10
19.698170506120398
20
-15.302682983245511
30
0
10
19.02435306796216
20
-15.80220393007356
30
0
0
SPLINE
5
158
100
AcDbEntity
8
0
100
AcDbSpline
70
1064
71
3
72
8
73
4
74
0
42
0.000000001
43
0.0000000001
44
0.0000000001
40
0
40
0
40
0
40
0
40
1
40
1
40
1
40
1
10
19.02435306796216
20
-15.80220393007356
30
0
10
17.824996649905366
20
-16.69132389658855
30
0
10
17.655512565546175
20
-16.671087648644818
30
0
10
16.526909258258847
20
-15.504005201144119
30
0
0
SPLINE
5
159
100
AcDbEntity
8
0
100
AcDbSpline
70
1064
71
3
72
8
73
4
74
0
42
0.000000001
43
0.0000000001
44
0.0000000001
40
0
40
0
40
0
40
0
40
1
40
1
40
1
40
1
10
22.597233816219067
20
-11.281778065861165
30
0
10
22.732360533294063
20
-11.063137313321702
30
0
10
22.578461214344539
20
-11.016834180246246
30
0
10
22.406262487995736
20
-11.22432037880934
30
0
0
SPLINE
5
160
100
AcDbEntity
8
0
100
AcDbSpline
70
1064
71
3
72
8
73
4
74
0
42
0.000000001
43
0.0000000001
44
0.0000000001
40
0
40
0
40
0
40
0
40
1
40
1
40
1
40
1
10
22.406262487995736
20
-11.22432037880934
30
0
10
22.307232654737437
20
-11.343643933024561
30
0
10
22.297707460684965
20
-11.415682523522353
30
0
10
22.380960951822978
20
-11.415682523522353
30
0
0
SPLINE
5
161
100
AcDbEntity
8
0
100
AcDbSpline
70
1064
71
3
72
8
73
4
74
0
42
0.000000001
43
0.0000000001
44
0.0000000001
40
0
40
0
40
0
40
0
40
1
40
1
40
1
40
1
10
22.380960951822978
20
-11.415682523522353
30
0
10
22.454394220774144
20
-11.415682523522353
30
0
10
22.551717105540739
20
-11.355424942844687
30
0
10
22.597233816219067
20
-11.281778065861165
30
0
0
SPLINE
5
162
100
AcDbEntity
8
0
100
AcDbSpline
70
1064
71
3
72
8
73
4
74
0
42
0.000000001
43
0.0000000001
44
0.0000000001
40
0
40
0
40
0
40
0
40
1
40
1
40
1
40
1
10
14.305657760735029
20
-12.300316721357966
30
0
10
13.772808213558868
20
-12.079915378847822
30
0
10
13.426795769190662
20
-11.550588927380129
30
0
10
13.426795769190662
20
-10.95583902923266
30
0
0
SPLINE
5
163
100
AcDbEntity
8
0
100
AcDbSpline
70
1064
71
3
72
8
73
4
74
0
42
0.000000001
43
0.0000000001
44
0.0000000001
40
0
40
0
40
0
40
0
40
1
40
1
40
1
40
1
10
13.426795769190662
20
-10.95583902923266
30
0
10
13.426795769190662
20
-9.5362393194519868
30
0
10
15.316972058474017
20
-9.1834163230209249
30
0
10
15.935801233380431
20
-10.48750389724434
30
0
0
SPLINE
5
164
100
AcDbEntity
8
0
100
AcDbSpline
70
1064
71
3
72
8
73
4
74
0
42
0.000000001
43
0.0000000001
44
0.0000000001
40
0
40
0
40
0
40
0
40
1
40
1
40
1
40
1
10
15.935801233380431
20
-10.48750389724434
30
0
10
16.040497905739137
20
-10.708135131807238
30
0
10
16.125946865980954
20
-10.964859418652622
30
0
10
16.125688237421603
20
-11.058003057476846
30
0
0
SPLINE
5
165
100
AcDbEntity
8
0
100
AcDbSpline
70
1064
71
3
72
8
73
4
74
0
42
0.000000001
43
0.0000000001
44
0.0000000001
40
0
40
0
40
0
40
0
40
1
40
1
40
1
40
1
10
16.125688237421603
20
-11.058003057476846
30
0
10
16.124684375457903
20
-11.408829824583155
30
0
10
15.602469251488756
20
-12.065230066094566
30
0
10
15.185803316240607
20
-12.239325401878592
30
0
0
SPLINE
5
166
100
AcDbEntity
8
0
100
AcDbSpline
70
1064
71
3
72
8
73
4
74
0
42
0.000000001
43
0.0000000001
44
0.0000000001
40
0
40
0
40
0
40
0
40
1
40
1
40
1
40
1
10
15.185803316240607
20
-12.239325401878592
30
0
10
14.699405374090642
20
-12.442554765931513
30
0
10
14.656691430688817
20
-12.445515583994283
30
0
10
14.305657760735029
20
-12.300316721357966
30
0
0
ENDSEC
0
SECTION
2
OBJECTS
0
DICTIONARY
5
C
100
AcDbDictionary
3
ACAD_GROUP
350
D
3
ACAD_MLINESTYLE
350
17
0
DICTIONARY
5
D
100
AcDbDictionary
0
DICTIONARY
5
1A
330
C
100
AcDbDictionary
0
DICTIONARY
5
17
100
AcDbDictionary
0
ENDSEC
0
EOF
