0
SECTION
2
HEADER
9
$INSUNITS
70
4
9
$ACADVER
1
AC1014
9
$HANDSEED
5
FFFF
0
ENDSEC
0
SECTION
2
TABLES
0
TABLE
2
VPORT
5
8
100
AcDbSymbolTable
0
ENDTAB
0
TABLE
2
LTYPE
5
5
100
AcDbSymbolTable
0
LTYPE
5
14
100
AcDbSymbolTableRecord
100
AcDbLinetypeTableRecord
2
BYBLOCK
70
0
0
LTYPE
5
15
100
AcDbSymbolTableRecord
100
AcDbLinetypeTableRecord
2
BYLAYER
70
0
0
ENDTAB
0
TABLE
2
LAYER
5
2
100
AcDbSymbolTable
70
2
0
LAYER
5
50
100
AcDbSymbolTableRecord
100
AcDbLayerTableRecord
2
0
70
0
6
CONTINUOUS
0
ENDTAB
0
TABLE
2
STYLE
5
3
100
AcDbSymbolTable
70
1
0
STYLE
5
11
100
AcDbSymbolTableRecord
100
AcDbTextStyleTableRecord
2
STANDARD
70
0
0
ENDTAB
0
TABLE
2
VIEW
5
6
100
AcDbSymbolTable
70
0
0
ENDTAB
0
TABLE
2
UCS
5
7
100
AcDbSymbolTable
70
0
0
ENDTAB
0
TABLE
2
APPID
5
9
100
AcDbSymbolTable
70
2
0
APPID
5
12
100
AcDbSymbolTableRecord
100
AcDbRegAppTableRecord
2
ACAD
70
0
0
ENDTAB
0
TABLE
2
DIMSTYLE
5
A
100
AcDbSymbolTable
70
1
0
ENDTAB
0
TABLE
2
BLOCK_RECORD
5
1
100
AcDbSymbolTable
70
1
0
BLOCK_RECORD
5
1F
100
AcDbSymbolTableRecord
100
AcDbBlockTableRecord
2
*MODEL_SPACE
0
BLOCK_RECORD
5
1B
100
AcDbSymbolTableRecord
100
AcDbBlockTableRecord
2
*PAPER_SPACE
0
ENDTAB
0
ENDSEC
0
SECTION
2
BLOCKS
0
BLOCK
5
20
100
AcDbEntity
100
AcDbBlockBegin
2
*MODEL_SPACE
0
ENDBLK
5
21
100
AcDbEntity
100
AcDbBlockEnd
0
BLOCK
5
1C
100
AcDbEntity
100
AcDbBlockBegin
2
*PAPER_SPACE
0
ENDBLK
5
1D
100
AcDbEntity
100
AcDbBlockEnd
0
ENDSEC
0
SECTION
2
ENTITIES
0
LWPOLYLINE
5
100
100
AcDbEntity
8
0
100
AcDbPolyline
90
32
70
1
43
0.0
10
-26
20
0
10
-30
20
0
10
-30
20
4
10
-14
20
4
10
-14
20
0
10
2.0000000000000018
20
0
10
2.0000000000000018
20
4
10
18.000000000000007
20
4
10
18.000000000000007
20
0
10
34
20
0
10
34
20
4
10
50
20
4
10
50
20
-4.8000000000000007
10
46
20
-4.8000000000000007
10
46
20
-13.600000000000003
10
50
20
-13.600000000000003
10
50
20
-22.400000000000006
10
46
20
-22.400000000000006
10
46
20
-31.200000000000006
10
50
20
-31.200000000000006
10
50
20
-40
10
34
20
-40
10
34
20
-36
10
18.000000000000007
20
-36
10
18.000000000000007
20
-40
10
2.0000000000000018
20
-40
10
2.0000000000000018
20
-36
10
-14
20
-36
10
-14
20
-40
10
-30
20
-40
10
-30
20
-36
10
-26
20
-36
0
SPLINE
5
101
100
AcDbEntity
8
0
100
AcDbSpline
70
1064
71
3
72
8
73
4
74
0
42
0.000000001
43
0.0000000001
44
0.0000000001
40
0
40
0
40
0
40
0
40
1
40
1
40
1
40
1
10
8.9628955266943393
20
-29.33392114008749
30
0
10
3.3984902782191662
20
-28.761844336861838
30
0
10
0.40272714563221901
20
-27.969697493453147
30
0
10
-2.2419099252778474
20
-26.371119213397201
30
0
0
SPLINE
5
102
100
AcDbEntity
8
0
100
AcDbSpline
70
1064
71
3
72
8
73
4
74
0
42
0.000000001
43
0.0000000001
44
0.0000000001
40
0
40
0
40
0
40
0
40
1
40
1
40
1
40
1
10
-2.2419099252778474
20
-26.371119213397201
30
0
10
-3.6133725542248851
20
-25.542124590673506
30
0
10
-4.2503283295822767
20
-24.833135101871889
30
0
10
-4.8523987580157044
20
-23.4654039663201
30
0
0
SPLINE
5
103
100
AcDbEntity
8
0
100
AcDbSpline
70
1064
71
3
72
8
73
4
74
0
42
0.000000001
43
0.0000000001
44
0.0000000001
40
0
40
0
40
0
40
0
40
1
40
1
40
1
40
1
10
-4.8523987580157044
20
-23.4654039663201
30
0
10
-5.1464008059997646
20
-22.797518341911793
30
0
10
-5.4256393793776514
20
-22.001155619356698
30
0
10
-5.4729289742601273
20
-21.695711154606762
30
0
0
SPLINE
5
104
100
AcDbEntity
8
0
100
AcDbSpline
70
1064
71
3
72
8
73
4
74
0
42
0.000000001
43
0.0000000001
44
0.0000000001
40
0
40
0
40
0
40
0
40
1
40
1
40
1
40
1
10
-5.4729289742601273
20
-21.695711154606762
30
0
10
-5.5602421384367551
20
-21.131754035059529
30
0
10
-5.3173530780033644
20
-19.057717635303423
30
0
10
-5.0824489635122783
20
-18.361396844191052
30
0
0
SPLINE
5
105
100
AcDbEntity
8
0
100
AcDbSpline
70
1064
71
3
72
8
73
4
74
0
42
0.000000001
43
0.0000000001
44
0.0000000001
40
0
40
0
40
0
40
0
40
1
40
1
40
1
40
1
10
-5.0824489635122783
20
-18.361396844191052
30
0
10
-5.0126074306414514
20
-18.154366927925423
30
0
10
-4.920585625331455
20
-17.363885758838876
30
0
10
-4.8779563287356433
20
-16.60477287491792
30
0
0
SPLINE
5
106
100
AcDbEntity
8
0
100
AcDbSpline
70
1064
71
3
72
8
73
4
74
0
42
0.000000001
43
0.0000000001
44
0.0000000001
40
0
40
0
40
0
40
0
40
1
40
1
40
1
40
1
10
-4.8779563287356433
20
-16.60477287491792
30
0
10
-4.8298312641608385
20
-15.747796838150336
30
0
10
-4.7086845689576364
20
-14.962954072372668
30
0
10
-4.5583890517588994
20
-14.534466053988876
30
0
0
SPLINE
5
107
100
AcDbEntity
8
0
100
AcDbSpline
70
1064
71
3
72
8
73
4
74
0
42
0.000000001
43
0.0000000001
44
0.0000000001
40
0
40
0
40
0
40
0
40
1
40
1
40
1
40
1
10
-4.5583890517588994
20
-14.534466053988876
30
0
10
-4.4252557237828407
20
-14.154909612028398
30
0
10
-4.1840072089641511
20
-13.270794571218925
30
0
10
-4.0222798051245601
20
-12.569764899652165
30
0
0
SPLINE
5
108
100
AcDbEntity
8
0
100
AcDbSpline
70
1064
71
3
72
8
73
4
74
0
42
0.000000001
43
0.0000000001
44
0.0000000001
40
0
40
0
40
0
40
0
40
1
40
1
40
1
40
1
10
-4.0222798051245601
20
-12.569764899652165
30
0
10
-3.6881134670846483
20
-11.121272491578551
30
0
10
-3.4801669512997901
20
-10.652928907258959
30
0
10
-3.0053751013284833
20
-10.279458877562973
30
0
0
SPLINE
5
109
100
AcDbEntity
8
0
100
AcDbSpline
70
1064
71
3
72
8
73
4
74
0
42
0.000000001
43
0.0000000001
44
0.0000000001
40
0
40
0
40
0
40
0
40
1
40
1
40
1
40
1
10
-3.0053751013284833
20
-10.279458877562973
30
0
10
-2.3283445419779527
20
-9.7469073772609676
30
0
10
-1.8719775389482385
20
-9.9346662074466252
30
0
10
-0.12604499706987959
20
-11.464079754485626
30
0
0
SPLINE
5
110
100
AcDbEntity
8
0
100
AcDbSpline
70
1064
71
3
72
8
73
4
74
0
42
0.000000001
43
0.0000000001
44
0.0000000001
40
0
40
0
40
0
40
0
40
1
40
1
40
1
40
1
10
-0.12604499706987959
20
-11.464079754485626
30
0
10
0.7836525038459552
20
-12.260963239587415
30
0
10
1.4249878539296845
20
-12.700187199076314
30
0
10
2.3070409048024287
20
-13.130398328827846
30
0
0
SPLINE
5
111
100
AcDbEntity
8
0
100
AcDbSpline
70
1064
71
3
72
8
73
4
74
0
42
0.000000001
43
0.0000000001
44
0.0000000001
40
0
40
0
40
0
40
0
40
1
40
1
40
1
40
1
10
2.3070409048024287
20
-13.130398328827846
30
0
10
3.4689578748869376
20
-13.697108597427087
30
0
10
3.5452543743981324
20
-13.716017830119833
30
0
10
4.8556604665975307
20
-13.762061280434001
30
0
0
LINE
5
112
100
AcDbEntity
8
0
100
AcDbLine
10
4.8556604665975307
20
-13.762061280434001
30
0
11
6.2065070253136669
21
-13.809525340342459
31
0
0
LINE
5
113
100
AcDbEntity
8
0
100
AcDbLine
10
6.2065070253136669
20
-13.809525340342459
30
0
11
5.7682403499179546
21
-12.946837189390818
31
0
0
SPLINE
5
114
100
AcDbEntity
8
0
100
AcDbSpline
70
1064
71
3
72
8
73
4
74
0
42
0.000000001
43
0.0000000001
44
0.0000000001
40
0
40
0
40
0
40
0
40
1
40
1
40
1
40
1
10
5.7682403499179546
20
-12.946837189390818
30
0
10
5.1528426123391613
20
-11.735484154165885
30
0
10
4.9506814429714874
20
-10.979419262797641
30
0
10
4.9491143689109389
20
-9.8833653528926675
30
0
0
SPLINE
5
115
100
AcDbEntity
8
0
100
AcDbSpline
70
1064
71
3
72
8
73
4
74
0
42
0.000000001
43
0.0000000001
44
0.0000000001
40
0
40
0
40
0
40
0
40
1
40
1
40
1
40
1
10
4.9491143689109389
20
-9.8833653528926675
30
0
10
4.9440579943307172
20
-6.3492916988990959
30
0
10
7.8664740196975824
20
-3.4928301543426654
30
0
10
11.487200072522461
20
-3.4928301543426654
30
0
0
SPLINE
5
116
100
AcDbEntity
8
0
100
AcDbSpline
70
1064
71
3
72
8
73
4
74
0
42
0.000000001
43
0.0000000001
44
0.0000000001
40
0
40
0
40
0
40
0
40
1
40
1
40
1
40
1
10
11.487200072522461
20
-3.4928301543426654
30
0
10
12.957816273273746
20
-3.4928301543426654
30
0
10
14.785618144011796
20
-4.1182032708145266
30
0
10
15.957540647438309
20
-5.0223351220125654
30
0
0
SPLINE
5
117
100
AcDbEntity
8
0
100
AcDbSpline
70
1064
71
3
72
8
73
4
74
0
42
0.000000001
43
0.0000000001
44
0.0000000001
40
0
40
0
40
0
40
0
40
1
40
1
40
1
40
1
10
15.957540647438309
20
-5.0223351220125654
30
0
10
16.655224611099374
20
-5.560594907362252
30
0
10
17.901141345792965
20
-7.0215300940791261
30
0
10
18.522799721341208
20
-8.030301712219476
30
0
0
LINE
5
118
100
AcDbEntity
8
0
100
AcDbLine
10
18.522799721341208
20
-8.030301712219476
30
0
11
18.883349287631432
21
-8.6153707751578814
31
0
0
LINE
5
119
100
AcDbEntity
8
0
100
AcDbLine
10
18.883349287631432
20
-8.6153707751578814
30
0
11
19.927369063367063
21
-8.5853312003136342
31
0
0
SPLINE
5
120
100
AcDbEntity
8
0
100
AcDbSpline
70
1064
71
3
72
8
73
4
74
0
42
0.000000001
43
0.0000000001
44
0.0000000001
40
0
40
0
40
0
40
0
40
1
40
1
40
1
40
1
10
19.927369063367067
20
-8.5853312003136342
30
0
10
20.501578695552347
20
-8.5688103914333915
30
0
10
21.089667032520659
20
-8.5990462095167413
30
0
10
21.234230332569393
20
-8.6525248853827019
30
0
0
SPLINE
5
121
100
AcDbEntity
8
0
100
AcDbSpline
70
1064
71
3
72
8
73
4
74
0
42
0.000000001
43
0.0000000001
44
0.0000000001
40
0
40
0
40
0
40
0
40
1
40
1
40
1
40
1
10
21.234230332569393
20
-8.6525248853827019
30
0
10
21.60010431298593
20
-8.7878704968981189
30
0
10
21.886630929486284
20
-9.4013259050518343
30
0
10
21.886630929486284
20
-10.049325866992337
30
0
0
SPLINE
5
122
100
AcDbEntity
8
0
100
AcDbSpline
70
1064
71
3
72
8
73
4
74
0
42
0.000000001
43
0.0000000001
44
0.0000000001
40
0
40
0
40
0
40
0
40
1
40
1
40
1
40
1
10
21.886630929486284
20
-10.049325866992337
30
0
10
21.886630929486284
20
-10.507434169787562
30
0
10
21.816745361547163
20
-10.663308738681398
30
0
10
21.453505826955084
20
-11.015373896053697
30
0
0
SPLINE
5
123
100
AcDbEntity
8
0
100
AcDbSpline
70
1064
71
3
72
8
73
4
74
0
42
0.000000001
43
0.0000000001
44
0.0000000001
40
0
40
0
40
0
40
0
40
1
40
1
40
1
40
1
10
21.453505826955084
20
-11.015373896053697
30
0
10
21.054318360095596
20
-11.402281322565766
30
0
10
21.034655744821507
20
-11.455555139635784
30
0
10
21.202559545630351
20
-11.69527247854742
30
0
0
SPLINE
5
124
100
AcDbEntity
8
0
100
AcDbSpline
70
1064
71
3
72
8
73
4
74
0
42
0.000000001
43
0.0000000001
44
0.0000000001
40
0
40
0
40
0
40
0
40
1
40
1
40
1
40
1
10
21.202559545630351
20
-11.69527247854742
30
0
10
21.302756557096174
20
-11.838325184297096
30
0
10
21.384738366836817
20
-12.146002992836442
30
0
10
21.384738366836817
20
-12.379002111982082
30
0
0
SPLINE
5
125
100
AcDbEntity
8
0
100
AcDbSpline
70
1064
71
3
72
8
73
4
74
0
42
0.000000001
43
0.0000000001
44
0.0000000001
40
0
40
0
40
0
40
0
40
1
40
1
40
1
40
1
10
21.384738366836817
20
-12.379002111982082
30
0
10
21.384738366836817
20
-13.029045875461545
30
0
10
20.840231345494978
20
-13.460166425101605
30
0
10
19.671113684461513
20
-13.735785746644172
30
0
0
SPLINE
5
126
100
AcDbEntity
8
0
100
AcDbSpline
70
1064
71
3
72
8
73
4
74
0
42
0.000000001
43
0.0000000001
44
0.0000000001
40
0
40
0
40
0
40
0
40
1
40
1
40
1
40
1
10
19.671113684461513
20
-13.735785746644172
30
0
10
18.457974357118687
20
-14.021783942325083
30
0
10
17.313014717460916
20
-14.775004742652465
30
0
10
17.439665317557903
20
-15.203760800582351
30
0
0
SPLINE
5
127
100
AcDbEntity
8
0
100
AcDbSpline
70
1064
71
3
72
8
73
4
74
0
42
0.000000001
43
0.0000000001
44
0.0000000001
40
0
40
0
40
0
40
0
40
1
40
1
40
1
40
1
10
17.439665317557903
20
-15.203760800582351
30
0
10
17.575789201041083
20
-15.66458779020223
30
0
10
18.162039552550478
20
-16.318276891508553
30
0
10
19.199147737133295
20
-17.165649454253273
30
0
0
SPLINE
5
128
100
AcDbEntity
8
0
100
AcDbSpline
70
1064
71
3
72
8
73
4
74
0
42
0.000000001
43
0.0000000001
44
0.0000000001
40
0
40
0
40
0
40
0
40
1
40
1
40
1
40
1
10
19.199147737133295
20
-17.165649454253273
30
0
10
20.535368909473704
20
-18.257412816852575
30
0
10
21.680548724472899
20
-19.433895821699036
30
0
10
22.094344346594443
20
-20.139982825130108
30
0
0
SPLINE
5
129
100
AcDbEntity
8
0
100
AcDbSpline
70
1064
71
3
72
8
73
4
74
0
42
0.000000001
43
0.0000000001
44
0.0000000001
40
0
40
0
40
0
40
0
40
1
40
1
40
1
40
1
10
22.094344346594443
20
-20.139982825130108
30
0
10
22.885018887067822
20
-21.489167538660471
30
0
10
23.182872088958774
20
-23.224315796587018
30
0
10
22.848106012434481
20
-24.531031558607175
30
0
0
SPLINE
5
130
100
AcDbEntity
8
0
100
AcDbSpline
70
1064
71
3
72
8
73
4
74
0
42
0.000000001
43
0.0000000001
44
0.0000000001
40
0
40
0
40
0
40
0
40
1
40
1
40
1
40
1
10
22.848106012434481
20
-24.531031558607175
30
0
10
22.007468900569425
20
-27.812358279896728
30
0
10
18.303292564204959
20
-29.496866209293621
30
0
10
12.03698747292232
20
-29.447479922926036
30
0
0
SPLINE
5
131
100
AcDbEntity
8
0
100
AcDbSpline
70
1064
71
3
72
8
73
4
74
0
42
0.000000001
43
0.0000000001
44
0.0000000001
40
0
40
0
40
0
40
0
40
1
40
1
40
1
40
1
10
12.03698747292232
20
-29.447479922926036
30
0
10
10.863812841901918
20
-29.438232558585842
30
0
10
9.4804722319266013
20
-29.387132733691455
30
0
10
8.9628955266943393
20
-29.33392114008749
30
0
0
SPLINE
5
132
100
AcDbEntity
8
0
100
AcDbSpline
70
1064
71
3
72
8
73
4
74
0
42
0.000000001
43
0.0000000001
44
0.0000000001
40
0
40
0
40
0
40
0
40
1
40
1
40
1
40
1
10
13.103509168552437
20
-11.212651959262018
30
0
10
13.103509168552437
20
-11.179918586979539
30
0
10
12.931623065915929
20
-11.064252821851888
30
0
10
12.721541327961219
20
-10.955613521968237
30
0
0
SPLINE
5
133
100
AcDbEntity
8
0
100
AcDbSpline
70
1064
71
3
72
8
73
4
74
0
42
0.000000001
43
0.0000000001
44
0.0000000001
40
0
40
0
40
0
40
0
40
1
40
1
40
1
40
1
10
12.721541327961219
20
-10.955613521968237
30
0
10
12.217203861737749
20
-10.694810086335945
30
0
10
11.849828859863091
20
-10.069814618438846
30
0
10
11.84924683113443
20
-9.4716259770032973
30
0
0
SPLINE
5
134
100
AcDbEntity
8
0
100
AcDbSpline
70
1064
71
3
72
8
73
4
74
0
42
0.000000001
43
0.0000000001
44
0.0000000001
40
0
40
0
40
0
40
0
40
1
40
1
40
1
40
1
10
11.84924683113443
20
-9.4716259770032973
30
0
10
11.848869661201718
20
-9.0892015118996277
30
0
10
11.937661589981296
20
-8.8996707488574778
30
0
10
12.27538567435354
20
-8.5619457072011382
30
0
0
SPLINE
5
135
100
AcDbEntity
8
0
100
AcDbSpline
70
1064
71
3
72
8
73
4
74
0
42
0.000000001
43
0.0000000001
44
0.0000000001
40
0
40
0
40
0
40
0
40
1
40
1
40
1
40
1
10
12.27538567435354
20
-8.5619457072011382
30
0
10
12.637286925783348
20
-8.2000434984872381
30
0
10
12.789818658623775
20
-8.1353368374922734
30
0
10
13.281014528815954
20
-8.1353368374922734
30
0
0
SPLINE
5
136
100
AcDbEntity
8
0
100
AcDbSpline
70
1064
71
3
72
8
73
4
74
0
42
0.000000001
43
0.0000000001
44
0.0000000001
40
0
40
0
40
0
40
0
40
1
40
1
40
1
40
1
10
13.281014528815954
20
-8.1353368374922734
30
0
10
14.820453712162916
20
-8.1353368374922734
30
0
10
15.420523416841581
20
-10.13031784498062
30
0
10
14.123254134253001
20
-10.935432058715641
30
0
0
SPLINE
5
137
100
AcDbEntity
8
0
100
AcDbSpline
70
1064
71
3
72
8
73
4
74
0
42
0.000000001
43
0.0000000001
44
0.0000000001
40
0
40
0
40
0
40
0
40
1
40
1
40
1
40
1
10
14.123254134253001
20
-10.935432058715641
30
0
10
13.894199025571298
20
-11.07758778927
30
0
10
13.856646685163707
20
-11.141033707114236
30
0
10
14.000191434937282
20
-11.143353206472032
30
0
0
SPLINE
5
138
100
AcDbEntity
8
0
100
AcDbSpline
70
1064
71
3
72
8
73
4
74
0
42
0.000000001
43
0.0000000001
44
0.0000000001
40
0
40
0
40
0
40
0
40
1
40
1
40
1
40
1
10
14.000191434937282
20
-11.143353206472032
30
0
10
14.239343976233936
20
-11.147218719640325
30
0
10
14.923317717112361
20
-10.411351565354259
30
0
10
15.049189087957496
20
-10.01476982579643
30
0
0
SPLINE
5
139
100
AcDbEntity
8
0
100
AcDbSpline
70
1064
71
3
72
8
73
4
74
0
42
0.000000001
43
0.0000000001
44
0.0000000001
40
0
40
0
40
0
40
0
40
1
40
1
40
1
40
1
10
15.049189087957496
20
-10.01476982579643
30
0
10
15.279188078755082
20
-9.2901057672529461
30
0
10
14.77441409098512
20
-8.3808476597358847
30
0
10
13.928946523585843
20
-7.9968551632875728
30
0
0
SPLINE
5
140
100
AcDbEntity
8
0
100
AcDbSpline
70
1064
71
3
72
8
73
4
74
0
42
0.000000001
43
0.0000000001
44
0.0000000001
40
0
40
0
40
0
40
0
40
1
40
1
40
1
40
1
10
13.928946523585843
20
-7.9968551632875728
30
0
10
13.280315711427926
20
-7.7022615137339221
30
0
10
12.922777760894871
20
-7.7040746098064217
30
0
10
12.259157794405812
20
-8.0053232983759166
30
0
0
SPLINE
5
141
100
AcDbEntity
8
0
100
AcDbSpline
70
1064
71
3
72
8
73
4
74
0
42
0.000000001
43
0.0000000001
44
0.0000000001
40
0
40
0
40
0
40
0
40
1
40
1
40
1
40
1
10
12.259157794405812
20
-8.0053232983759166
30
0
10
11.23366912414612
20
-8.4708409800524169
30
0
10
10.885970139522854
20
-9.725001845356541
30
0
10
11.560242763400909
20
-10.52632904321891
30
0
0
SPLINE
5
142
100
AcDbEntity
8
0
100
AcDbSpline
70
1064
71
3
72
8
73
4
74
0
42
0.000000001
43
0.0000000001
44
0.0000000001
40
0
40
0
40
0
40
0
40
1
40
1
40
1
40
1
10
11.560242763400909
20
-10.52632904321891
30
0
10
11.746601086958231
20
-10.747801504598471
30
0
10
12.071262072594832
20
-11.004006147447088
30
0
10
12.281713322209516
20
-11.095673757642606
30
0
0
SPLINE
5
143
100
AcDbEntity
8
0
100
AcDbSpline
70
1064
71
3
72
8
73
4
74
0
42
0.000000001
43
0.0000000001
44
0.0000000001
40
0
40
0
40
0
40
0
40
1
40
1
40
1
40
1
10
12.281713322209516
20
-11.095673757642606
30
0
10
12.664312970302241
20
-11.262324473573461
30
0
10
13.103509168552437
20
-11.324840868563212
30
0
10
13.103509168552437
20
-11.212651959262018
30
0
0
SPLINE
5
144
100
AcDbEntity
8
0
100
AcDbSpline
70
1064
71
3
72
8
73
4
74
0
42
0.000000001
43
0.0000000001
44
0.0000000001
40
0
40
0
40
0
40
0
40
1
40
1
40
1
40
1
10
15.135158943230358
20
-14.103197125314368
30
0
10
14.334260608641738
20
-13.274990347399369
30
0
10
14.232765519945547
20
-13.115839952338639
30
0
10
14.232765519945547
20
-12.688175198274989
30
0
0
SPLINE
5
145
100
AcDbEntity
8
0
100
AcDbSpline
70
1064
71
3
72
8
73
4
74
0
42
0.000000001
43
0.0000000001
44
0.0000000001
40
0
40
0
40
0
40
0
40
1
40
1
40
1
40
1
10
14.232765519945547
20
-12.688175198274989
30
0
10
14.232765519945547
20
-12.060596020610374
30
0
10
14.489233415919792
20
-11.713596810659228
30
0
10
15.230820342662657
20
-11.337804409753167
30
0
0
SPLINE
5
146
100
AcDbEntity
8
0
100
AcDbSpline
70
1064
71
3
72
8
73
4
74
0
42
0.000000001
43
0.0000000001
44
0.0000000001
40
0
40
0
40
0
40
0
40
1
40
1
40
1
40
1
10
15.230820342662657
20
-11.337804409753167
30
0
10
15.877599767384345
20
-11.010057140200129
30
0
10
16.455305401077947
20
-10.500879645601502
30
0
10
17.06714012726189
20
-9.7193127059907241
30
0
0
SPLINE
5
147
100
AcDbEntity
8
0
100
AcDbSpline
70
1064
71
3
72
8
73
4
74
0
42
0.000000001
43
0.0000000001
44
0.0000000001
40
0
40
0
40
0
40
0
40
1
40
1
40
1
40
1
10
17.06714012726189
20
-9.7193127059907241
30
0
10
17.411276100490312
20
-9.2797077474327345
30
0
10
17.472783518045841
20
-9.2485510220517391
30
0
10
17.707323864581518
20
-9.3950231465822824
30
0
0
SPLINE
5
148
100
AcDbEntity
8
0
100
AcDbSpline
70
1064
71
3
72
8
73
4
74
0
42
0.000000001
43
0.0000000001
44
0.0000000001
40
0
40
0
40
0
40
0
40
1
40
1
40
1
40
1
10
17.707323864581518
20
-9.3950231465822824
30
0
10
17.931891225434356
20
-9.5352681380866358
30
0
10
18.043558414904759
20
-9.5120769736450583
30
0
10
18.537480630194342
20
-9.2226191532513635
30
0
0
SPLINE
5
149
100
AcDbEntity
8
0
100
AcDbSpline
70
1064
71
3
72
8
73
4
74
0
42
0.000000001
43
0.0000000001
44
0.0000000001
40
0
40
0
40
0
40
0
40
1
40
1
40
1
40
1
10
18.537480630194342
20
-9.2226191532513635
30
0
10
19.17354613134507
20
-8.8498594283525218
30
0
10
19.93473632174824
20
-8.7762595981318388
30
0
10
20.049905256431533
20
-9.07638443517593
30
0
0
SPLINE
5
150
100
AcDbEntity
8
0
100
AcDbSpline
70
1064
71
3
72
8
73
4
74
0
42
0.000000001
43
0.0000000001
44
0.0000000001
40
0
40
0
40
0
40
0
40
1
40
1
40
1
40
1
10
20.049905256431533
20
-9.07638443517593
30
0
10
20.143684635336623
20
-9.3207723631782322
30
0
10
20.436538899692948
20
-9.3165526548954567
30
0
10
20.685869285468385
20
-9.067222269120025
30
0
0
SPLINE
5
151
100
AcDbEntity
8
0
100
AcDbSpline
70
1064
71
3
72
8
73
4
74
0
42
0.000000001
43
0.0000000001
44
0.0000000001
40
0
40
0
40
0
40
0
40
1
40
1
40
1
40
1
10
20.685869285468385
20
-9.067222269120025
30
0
10
20.995035670772637
20
-8.7580568410998634
30
0
10
21.306886280674185
20
-8.8981802575243822
30
0
10
21.407381964777088
20
-9.3914189719714276
30
0
0
SPLINE
5
152
100
AcDbEntity
8
0
100
AcDbSpline
70
1064
71
3
72
8
73
4
74
0
42
0.000000001
43
0.0000000001
44
0.0000000001
40
0
40
0
40
0
40
0
40
1
40
1
40
1
40
1
10
21.407381964777088
20
-9.3914189719714276
30
0
10
21.456442774552986
20
-9.6322103836356199
30
0
10
21.532393694506531
20
-9.9736736196758571
30
0
10
21.57616263781529
20
-10.150222653130283
30
0
0
SPLINE
5
153
100
AcDbEntity
8
0
100
AcDbSpline
70
1064
71
3
72
8
73
4
74
0
42
0.000000001
43
0.0000000001
44
0.0000000001
40
0
40
0
40
0
40
0
40
1
40
1
40
1
40
1
10
21.57616263781529
20
-10.150222653130283
30
0
10
21.64071421878716
20
-10.410608712897947
30
0
10
21.567215860680349
20
-10.557203369792417
30
0
10
21.186959644047754
20
-10.926548462330857
30
0
0
SPLINE
5
154
100
AcDbEntity
8
0
100
AcDbSpline
70
1064
71
3
72
8
73
4
74
0
42
0.000000001
43
0.0000000001
44
0.0000000001
40
0
40
0
40
0
40
0
40
1
40
1
40
1
40
1
10
21.186959644047754
20
-10.926548462330857
30
0
10
20.728487573297123
20
-11.371862663220618
30
0
10
20.722749612442549
20
-11.388846797601964
30
0
10
20.925984854562785
20
-11.699024074908625
30
0
0
SPLINE
5
155
100
AcDbEntity
8
0
100
AcDbSpline
70
1064
71
3
72
8
73
4
74
0
42
0.000000001
43
0.0000000001
44
0.0000000001
40
0
40
0
40
0
40
0
40
1
40
1
40
1
40
1
10
20.925984854562785
20
-11.699024074908625
30
0
10
21.207723136029006
20
-12.129012157466443
30
0
10
21.188521931687838
20
-12.689415838459761
30
0
10
20.882562448095765
20
-12.966306433278081
30
0
0
SPLINE
5
156
100
AcDbEntity
8
0
100
AcDbSpline
70
1064
71
3
72
8
73
4
74
0
42
0.000000001
43
0.0000000001
44
0.0000000001
40
0
40
0
40
0
40
0
40
1
40
1
40
1
40
1
10
20.882562448095765
20
-12.966306433278081
30
0
10
20.74438806208498
20
-13.091352625234885
30
0
10
20.1490415971221
20
-13.322453450023733
30
0
10
19.559572856491403
20
-13.479861588034858
30
0
0
SPLINE
5
157
100
AcDbEntity
8
0
100
AcDbSpline
70
1064
71
3
72
8
73
4
74
0
42
0.000000001
43
0.0000000001
44
0.0000000001
40
0
40
0
40
0
40
0
40
1
40
1
40
1
40
1
10
19.559572856491403
20
-13.479861588034858
30
0
10
18.717197316713122
20
-13.704806118820414
30
0
10
18.30443556141223
20
-13.902000898312627
30
0
10
17.631039809763532
20
-14.401209236364794
30
0
0
SPLINE
5
158
100
AcDbEntity
8
0
100
AcDbSpline
70
1064
71
3
72
8
73
4
74
0
42
0.000000001
43
0.0000000001
44
0.0000000001
40
0
40
0
40
0
40
0
40
1
40
1
40
1
40
1
10
17.631039809763532
20
-14.401209236364794
30
0
10
16.432433969523494
20
-15.289772776355314
30
0
10
16.263055951211143
20
-15.269549192602618
30
0
10
15.135158943230358
20
-14.103197125314368
30
0
0
SPLINE
5
159
100
AcDbEntity
8
0
100
AcDbSpline
70
1064
71
3
72
8
73
4
74
0
42
0.000000001
43
0.0000000001
44
0.0000000001
40
0
40
0
40
0
40
0
40
1
40
1
40
1
40
1
10
21.201684587969176
20
-9.8836123321887115
30
0
10
21.33672674042705
20
-9.6651084087821264
30
0
10
21.182923734310872
20
-9.6188342530015021
30
0
10
21.010832772878423
20
-9.8261906031429085
30
0
0
SPLINE
5
160
100
AcDbEntity
8
0
100
AcDbSpline
70
1064
71
3
72
8
73
4
74
0
42
0.000000001
43
0.0000000001
44
0.0000000001
40
0
40
0
40
0
40
0
40
1
40
1
40
1
40
1
10
21.010832772878423
20
-9.8261906031429085
30
0
10
20.91186491418825
20
-9.9454394826313663
30
0
10
20.902345681165588
20
-10.01743299014368
30
0
10
20.985547070840951
20
-10.01743299014368
30
0
0
SPLINE
5
161
100
AcDbEntity
8
0
100
AcDbSpline
70
1064
71
3
72
8
73
4
74
0
42
0.000000001
43
0.0000000001
44
0.0000000001
40
0
40
0
40
0
40
0
40
1
40
1
40
1
40
1
10
20.985547070840951
20
-10.01743299014368
30
0
10
21.058934383992948
20
-10.01743299014368
30
0
10
21.156196362429061
20
-9.9572131196934865
30
0
10
21.201684587969176
20
-9.8836123321887115
30
0
0
SPLINE
5
162
100
AcDbEntity
8
0
100
AcDbSpline
70
1064
71
3
72
8
73
4
74
0
42
0.000000001
43
0.0000000001
44
0.0000000001
40
0
40
0
40
0
40
0
40
1
40
1
40
1
40
1
10
12.915297542990698
20
-10.901513568725798
30
0
10
12.382781462200143
20
-10.681250157155933
30
0
10
12.036985558354132
20
-10.152254967260122
30
0
10
12.036985558354132
20
-9.557877273799555
30
0
0
SPLINE
5
163
100
AcDbEntity
8
0
100
AcDbSpline
70
1064
71
3
72
8
73
4
74
0
42
0.000000001
43
0.0000000001
44
0.0000000001
40
0
40
0
40
0
40
0
40
1
40
1
40
1
40
1
10
12.036985558354132
20
-9.557877273799555
30
0
10
12.036985558354132
20
-8.1391659738650262
30
0
10
13.925978942896961
20
-7.7865637801164498
30
0
10
14.544420843892089
20
-9.0898352339693176
30
0
0
SPLINE
5
164
100
AcDbEntity
8
0
100
AcDbSpline
70
1064
71
3
72
8
73
4
74
0
42
0.000000001
43
0.0000000001
44
0.0000000001
40
0
40
0
40
0
40
0
40
1
40
1
40
1
40
1
10
14.544420843892089
20
-9.0898352339693176
30
0
10
14.649051995277562
20
-9.310328393721548
30
0
10
14.734447480094513
20
-9.5668920181051078
30
0
10
14.734189013389354
20
-9.6599773660426376
30
0
0
SPLINE
5
165
100
AcDbEntity
8
0
100
AcDbSpline
70
1064
71
3
72
8
73
4
74
0
42
0.000000001
43
0.0000000001
44
0.0000000001
40
0
40
0
40
0
40
0
40
1
40
1
40
1
40
1
10
14.734189013389354
20
-9.6599773660426376
30
0
10
14.73318577965969
20
-10.01058457974101
30
0
10
14.211297466871711
20
-10.666574034723265
30
0
10
13.794892288312138
20
-10.840560418660223
30
0
0
SPLINE
5
166
100
AcDbEntity
8
0
100
AcDbSpline
70
1064
71
3
72
8
73
4
74
0
42
0.000000001
43
0.0000000001
44
0.0000000001
40
0
40
0
40
0
40
0
40
1
40
1
40
1
40
1
10
13.794892288312138
20
-10.840560418660223
30
0
10
13.308798742336652
20
-11.043662598291501
30
0
10
13.2661115300532
20
-11.046621563423546
30
0
10
12.915297542990698
20
-10.901513568725798
30
0
0
ENDSEC
0
SECTION
2
OBJECTS
0
DICTIONARY
5
C
100
AcDbDictionary
3
ACAD_GROUP
350
D
3
ACAD_MLINESTYLE
350
17
0
DICTIONARY
5
D
100
AcDbDictionary
0
DICTIONARY
5
1A
330
C
100
AcDbDictionary
0
DICTIONARY
5
17
100
AcDbDictionary
0
ENDSEC
0
EOF
