0
SECTION
2
HEADER
9
$INSUNITS
70
4
9
$ACADVER
1
AC1014
9
$HANDSEED
5
FFFF
0
ENDSEC
0
SECTION
2
TABLES
0
TABLE
2
VPORT
5
8
100
AcDbSymbolTable
0
ENDTAB
0
TABLE
2
LTYPE
5
5
100
AcDbSymbolTable
0
LTYPE
5
14
100
AcDbSymbolTableRecord
100
AcDbLinetypeTableRecord
2
BYBLOCK
70
0
0
LTYPE
5
15
100
AcDbSymbolTableRecord
100
AcDbLinetypeTableRecord
2
BYLAYER
70
0
0
ENDTAB
0
TABLE
2
LAYER
5
2
100
AcDbSymbolTable
70
2
0
LAYER
5
50
100
AcDbSymbolTableRecord
100
AcDbLayerTableRecord
2
0
70
0
6
CONTINUOUS
0
ENDTAB
0
TABLE
2
STYLE
5
3
100
AcDbSymbolTable
70
1
0
STYLE
5
11
100
AcDbSymbolTableRecord
100
AcDbTextStyleTableRecord
2
STANDARD
70
0
0
ENDTAB
0
TABLE
2
VIEW
5
6
100
AcDbSymbolTable
70
0
0
ENDTAB
0
TABLE
2
UCS
5
7
100
AcDbSymbolTable
70
0
0
ENDTAB
0
TABLE
2
APPID
5
9
100
AcDbSymbolTable
70
2
0
APPID
5
12
100
AcDbSymbolTableRecord
100
AcDbRegAppTableRecord
2
ACAD
70
0
0
ENDTAB
0
TABLE
2
DIMSTYLE
5
A
100
AcDbSymbolTable
70
1
0
ENDTAB
0
TABLE
2
BLOCK_RECORD
5
1
100
AcDbSymbolTable
70
1
0
BLOCK_RECORD
5
1F
100
AcDbSymbolTableRecord
100
AcDbBlockTableRecord
2
*MODEL_SPACE
0
BLOCK_RECORD
5
1B
100
AcDbSymbolTableRecord
100
AcDbBlockTableRecord
2
*PAPER_SPACE
0
ENDTAB
0
ENDSEC
0
SECTION
2
BLOCKS
0
BLOCK
5
20
100
AcDbEntity
100
AcDbBlockBegin
2
*MODEL_SPACE
0
ENDBLK
5
21
100
AcDbEntity
100
AcDbBlockEnd
0
BLOCK
5
1C
100
AcDbEntity
100
AcDbBlockBegin
2
*PAPER_SPACE
0
ENDBLK
5
1D
100
AcDbEntity
100
AcDbBlockEnd
0
ENDSEC
0
SECTION
2
ENTITIES
0
LWPOLYLINE
5
100
100
AcDbEntity
8
0
100
AcDbPolyline
90
4
70
1
43
0.0
10
-500
20
0
10
0
20
0
10
0
20
20
10
-500
20
20
0
LWPOLYLINE
5
101
100
AcDbEntity
8
0
100
AcDbPolyline
90
8
70
1
43
0.0
10
-185
20
-15
10
-185
20
-35
42
0.41421356237309509
10
-180
20
-40
10
-5
20
-40
42
0.41421356237309509
10
0
20
-35
10
-5.5511151231257827e-16
20
-15
42
0.41421356237309509
10
-5
20
-10
10
-180
20
-10
42
0.41421356237309509
0
LWPOLYLINE
5
102
100
AcDbEntity
8
0
100
AcDbPolyline
90
4
70
1
43
0.0
10
11
20
20.000000298023224
10
3.0000000000000004
20
20.000000298023224
10
3.0000000000000004
20
0
10
11
20
0
0
CIRCLE
5
103
100
AcDbEntity
8
0
100
AcDbCircle
10
9.9998764310014803
20
-25.035152165166764
30
0
40
1.5000000000000002
0
CIRCLE
5
104
100
AcDbEntity
8
0
100
AcDbCircle
10
-190
20
-25
30
0
40
1.4999999999999858
0
LWPOLYLINE
5
105
100
AcDbEntity
8
0
100
AcDbPolyline
90
240
70
1
43
0.0
10
-217.98627545161293
20
26
10
-214.64046900000002
20
26
10
-214.64046900000002
20
22
10
-206.64046900000002
20
22
10
-206.64046900000002
20
26
10
-198.64046900000002
20
26
10
-198.64046900000002
20
22
10
-190.640469
20
22
10
-190.640469
20
26
10
-194.640469
20
26
10
-194.640469
20
30
10
-184.4190476190476
20
30
10
-184.4190476190476
20
26
10
-174.19809523809519
20
26
10
-174.19809523809519
20
30
10
-163.97714285714284
20
30
10
-163.97714285714284
20
26
10
-153.75619047619045
20
26
10
-153.75619047619045
20
30
10
-143.53523809523807
20
30
10
-143.53523809523807
20
26
10
-133.31428571428569
20
26
10
-133.31428571428569
20
30
10
-123.09333333333331
20
30
10
-123.09333333333331
20
26
10
-112.87238095238094
20
26
10
-112.87238095238094
20
30
10
-102.65142857142855
20
30
10
-102.65142857142855
20
26
10
-92.43047619047617
20
26
10
-92.43047619047617
20
30
10
-82.209523809523802
20
30
10
-82.209523809523802
20
26
10
-71.988571428571419
20
26
10
-71.988571428571419
20
30
10
-61.767619047619036
20
30
10
-61.767619047619036
20
26
10
-51.546666666666653
20
26
10
-51.546666666666653
20
30
10
-41.325714285714277
20
30
10
-41.325714285714277
20
26
10
-31.104761904761897
20
26
10
-31.104761904761897
20
30
10
-20.883809523809518
20
30
10
-20.883809523809518
20
26
10
-10.662857142857138
20
26
10
-10.662857142857138
20
30
10
-0.44190476190475891
20
30
10
-0.44190476190475891
20
26
10
-3.9999999999999991
20
26
10
-3.9999999999999991
20
22
10
2.0000000000000018
20
22
10
2.0000000000000018
20
26
10
9.7790476190476205
20
26
10
9.7790476190476205
20
30
10
20
20
30
10
20.000000000000004
20
26
10
14.000000000000004
20
26
10
14.000000000000004
20
22
10
20.000000000000004
20
22
10
20
20
10.800000000000001
10
16
20
10.800000000000001
10
16
20
-4.399999999999995
10
20
20
-4.399999999999995
10
20
20
-19.600000000000001
10
16
20
-19.600000000000001
10
16
20
-34.799999999999997
10
20
20
-34.799999999999997
10
20
20
-50
10
10
20
-50
10
10
20
-46
10
0
20
-46
10
0
20
-50
10
-10
20
-50
10
-10
20
-46
10
-20
20
-46
10
-20
20
-50
10
-30
20
-50
10
-30
20
-46
10
-40
20
-46
10
-40
20
-50
10
-50
20
-50
10
-50
20
-46
10
-60
20
-46
10
-60
20
-50
10
-70
20
-50
10
-70
20
-46
10
-80
20
-46
10
-80
20
-50
10
-90
20
-50
10
-90
20
-46
10
-100
20
-46
10
-100
20
-50
10
-110
20
-50
10
-110
20
-46
10
-120
20
-46
10
-120
20
-50
10
-130
20
-50
10
-130
20
-46
10
-140
20
-46
10
-140
20
-50
10
-150
20
-50
10
-150
20
-46
10
-160
20
-46
10
-160
20
-50
10
-170
20
-50
10
-170
20
-46
10
-180
20
-46
10
-180
20
-50
10
-190
20
-50
10
-190
20
-46
10
-200
20
-46
10
-200
20
-50
10
-210
20
-50
10
-210
20
-46
10
-220
20
-46
10
-220
20
-50
10
-230
20
-50
10
-230
20
-46
10
-240
20
-46
10
-240
20
-50
10
-250
20
-50
10
-250
20
-46
10
-260
20
-46
10
-260
20
-50
10
-270
20
-50
10
-270
20
-46
10
-280
20
-46
10
-280
20
-50
10
-290
20
-50
10
-290
20
-46
10
-300
20
-46
10
-300
20
-50
10
-310
20
-50
10
-310
20
-46
10
-320
20
-46
10
-320
20
-50
10
-330
20
-50
10
-330
20
-46
10
-340
20
-46
10
-340
20
-50
10
-350
20
-50
10
-350
20
-46
10
-360
20
-46
10
-360
20
-50
10
-370
20
-50
10
-370
20
-46
10
-380
20
-46
10
-380
20
-50
10
-390
20
-50
10
-390
20
-46
10
-400
20
-46
10
-400
20
-50
10
-410
20
-50
10
-410
20
-46
10
-420
20
-46
10
-420
20
-50
10
-430
20
-50
10
-430
20
-46
10
-440
20
-46
10
-440
20
-50
10
-450
20
-50
10
-450
20
-46
10
-460
20
-46
10
-460
20
-50
10
-470
20
-50
10
-470
20
-46
10
-480
20
-46
10
-480
20
-50
10
-490
20
-50
10
-490
20
-46
10
-500
20
-46
10
-500
20
-50
10
-506
20
-50
10
-506
20
-34
10
-510
20
-34
10
-510
20
-18.000000000000007
10
-506
20
-18.000000000000007
10
-506
20
-2.0000000000000018
10
-510
20
-2.0000000000000018
10
-510
20
14
10
-506
20
14
10
-506
20
30
10
-499.82756577419372
20
30
10
-499.82756577419372
20
26
10
-489.65466254838731
20
26
10
-489.65466254838731
20
30
10
-479.48175932258084
20
30
10
-479.48175932258084
20
26
10
-469.30885609677432
20
26
10
-469.30885609677432
20
30
10
-459.13595287096791
20
30
10
-459.13595287096791
20
26
10
-448.9630496451615
20
26
10
-448.9630496451615
20
30
10
-438.79014641935498
20
30
10
-438.79014641935498
20
26
10
-428.61724319354846
20
26
10
-428.61724319354846
20
30
10
-418.44433996774205
20
30
10
-418.44433996774205
20
26
10
-408.27143674193564
20
26
10
-408.27143674193564
20
30
10
-398.09853351612912
20
30
10
-398.09853351612912
20
26
10
-387.92563029032266
20
26
10
-387.92563029032266
20
30
10
-377.75272706451625
20
30
10
-377.75272706451625
20
26
10
-367.57982383870979
20
26
10
-367.57982383870979
20
30
10
-357.40692061290332
20
30
10
-357.40692061290332
20
26
10
-347.23401738709686
20
26
10
-347.23401738709686
20
30
10
-337.06111416129039
20
30
10
-337.06111416129039
20
26
10
-326.88821093548398
20
26
10
-326.88821093548398
20
30
10
-316.71530770967752
20
30
10
-316.71530770967752
20
26
10
-306.54240448387105
20
26
10
-306.54240448387105
20
30
10
-296.36950125806459
20
30
10
-296.36950125806459
20
26
10
-286.19659803225812
20
26
10
-286.19659803225812
20
30
10
-276.02369480645166
20
30
10
-276.02369480645166
20
26
10
-265.85079158064519
20
26
10
-265.85079158064519
20
30
10
-255.67788835483873
20
30
10
-255.67788835483873
20
26
10
-245.50498512903229
20
26
10
-245.50498512903229
20
30
10
-235.33208190322583
20
30
10
-235.33208190322583
20
26
10
-225.15917867741936
20
26
10
-225.15917867741936
20
30
10
-217.98627545161293
20
30
0
CIRCLE
5
106
100
AcDbEntity
8
0
100
AcDbCircle
10
7.0000000000000009
20
23.000000149011612
30
0
40
1.5000000000000002
0
CIRCLE
5
107
100
AcDbEntity
8
0
100
AcDbCircle
10
7.0000000000000009
20
-3.0000000000000004
30
0
40
1.5000000000000002
0
LWPOLYLINE
5
108
100
AcDbEntity
8
0
100
AcDbPolyline
90
4
70
1
43
0.0
10
-10
20
-10
10
0
20
-10
10
0
20
0
10
-10
20
0
0
ELLIPSE
5
109
100
AcDbEntity
8
0
100
AcDbEllipse
10
-15
20
-5
30
0
11
-15
21
0
31
0.0
40
0.29999999999999954
41
0
42
6.2831853071795862
0
LINE
5
110
100
AcDbEntity
8
0
100
AcDbLine
10
0
20
-5
30
0
11
-30
21
-5
31
0
0
LINE
5
111
100
AcDbEntity
8
0
100
AcDbLine
10
-15
20
-0.49999999999997158
30
0
11
-15
21
-9.5000000000000284
31
0
0
LINE
5
112
100
AcDbEntity
8
0
100
AcDbLine
10
0
20
-10
30
0
11
-50
21
-10
31
0
0
LINE
5
113
100
AcDbEntity
8
0
100
AcDbLine
10
-50
20
-10
30
0
11
-50
21
-5
31
0
0
LINE
5
114
100
AcDbEntity
8
0
100
AcDbLine
10
-50
20
-5
30
0
11
0
21
-5
31
0
0
LINE
5
115
100
AcDbEntity
8
0
100
AcDbLine
10
0
20
-5
30
0
11
0
21
-10
31
0
0
LINE
5
116
100
AcDbEntity
8
0
100
AcDbLine
10
-50
20
-5
30
0
11
-100
21
-5
31
0
0
LINE
5
117
100
AcDbEntity
8
0
100
AcDbLine
10
-100
20
-5
30
0
11
-100
21
0
31
0
0
LINE
5
118
100
AcDbEntity
8
0
100
AcDbLine
10
-100
20
0
30
0
11
-50
21
0
31
0
0
LINE
5
119
100
AcDbEntity
8
0
100
AcDbLine
10
-50
20
0
30
0
11
-50
21
-5
31
0
0
SPLINE
5
120
100
AcDbEntity
8
0
100
AcDbSpline
70
1064
71
5
72
36
73
30
74
0
42
0.000000001
43
0.0000000001
44
0.0000000001
40
0
40
0
40
0
40
0
40
0
40
0
40
0.040000000000000001
40
0.080000000000000002
40
0.12
40
0.16
40
0.20000000000000001
40
0.24000000000000002
40
0.28000000000000003
40
0.32000000000000001
40
0.35999999999999999
40
0.39999999999999997
40
0.43999999999999995
40
0.47999999999999993
40
0.51999999999999991
40
0.55999999999999994
40
0.59999999999999998
40
0.64000000000000001
40
0.68000000000000005
40
0.72000000000000008
40
0.76000000000000012
40
0.80000000000000016
40
0.84000000000000019
40
0.88000000000000023
40
0.92000000000000026
40
0.9600000000000003
40
1
40
1
40
1
40
1
40
1
40
1
10
0
20
0
30
0
10
-4.8807096117464415
20
-0.62669111586926241
30
0
10
-14.443610748353118
20
-1.8462969563634479
30
0
10
-28.191824516044967
20
-3.5748966093640711
30
0
10
-45.332449795779766
20
-5.6730422957887248
30
0
10
-64.854754434680217
20
-7.9111475980736348
30
0
10
-82.841646739084524
20
-9.5652465401296798
30
0
10
-99.890641124145546
20
-10.387011338693604
30
0
10
-117.38670174843935
20
-9.642880062837861
30
0
10
-136.4258706960884
20
-7.1348123709919067
30
0
10
-156.93566631744693
20
-3.7968262925571556
30
0
10
-178.42325600671006
20
-0.84342416857524927
30
0
10
-200.112879072711
20
0.53921556216287014
30
0
10
-221.33793593642596
20
-0.26870683149543445
30
0
10
-241.82332436208509
20
-2.8759948083545046
30
0
10
-261.59508920546068
20
-6.2633213870771911
30
0
10
-280.87218751086692
20
-9.1787948367114787
30
0
10
-299.96879273682316
20
-10.523655490949118
30
0
10
-319.19370449051604
20
-9.7426528236785739
30
0
10
-338.75139812825438
20
-7.2177770401393824
30
0
10
-358.74511192722827
20
-3.9072790153547072
30
0
10
-379.17933409298371
20
-0.98954096582868423
30
0
10
-399.96125604953443
20
0.49101782237766284
30
0
10
-420.90138585050977
20
-0.020788687805066999
30
0
10
-441.71327027267785
20
-2.2313262670931953
30
0
10
-462.07119971207055
20
-5.3304541787426079
30
0
10
-477.74835308670197
20
-7.7214671497551457
30
0
10
-489.05931134145965
20
-9.0772489324124681
30
0
10
-496.38836771746855
20
-9.733657923905783
30
0
10
-500
20
-10
30
0
0
LINE
5
121
100
AcDbEntity
8
0
100
AcDbLine
10
-132.5
20
-0.49999999999997158
30
0
11
-132.5
21
-9.5000000000000284
31
0
0
ELLIPSE
5
122
100
AcDbEntity
8
0
100
AcDbEllipse
10
-132.5
20
-5
30
0
11
-15
21
0
31
0.0
40
0.29999999999999954
41
0
42
6.2831853071795862
0
LINE
5
123
100
AcDbEntity
8
0
100
AcDbLine
10
-117.5
20
-5
30
0
11
-147.5
21
-5
31
0
0
LINE
5
124
100
AcDbEntity
8
0
100
AcDbLine
10
-250
20
-0.49999999999997158
30
0
11
-250
21
-9.5000000000000284
31
0
0
ELLIPSE
5
125
100
AcDbEntity
8
0
100
AcDbEllipse
10
-250
20
-5
30
0
11
-15
21
0
31
0.0
40
0.29999999999999954
41
0
42
6.2831853071795862
0
LINE
5
126
100
AcDbEntity
8
0
100
AcDbLine
10
-235
20
-5
30
0
11
-265
21
-5
31
0
0
LINE
5
127
100
AcDbEntity
8
0
100
AcDbLine
10
-367.5
20
-0.49999999999997158
30
0
11
-367.5
21
-9.5000000000000284
31
0
0
ELLIPSE
5
128
100
AcDbEntity
8
0
100
AcDbEllipse
10
-367.5
20
-5
30
0
11
-15
21
0
31
0.0
40
0.29999999999999954
41
0
42
6.2831853071795862
0
LINE
5
129
100
AcDbEntity
8
0
100
AcDbLine
10
-352.5
20
-5
30
0
11
-382.5
21
-5
31
0
0
LINE
5
130
100
AcDbEntity
8
0
100
AcDbLine
10
-485
20
-0.49999999999997158
30
0
11
-485
21
-9.5000000000000284
31
0
0
ELLIPSE
5
131
100
AcDbEntity
8
0
100
AcDbEllipse
10
-485
20
-5
30
0
11
-15
21
0
31
0.0
40
0.29999999999999954
41
0
42
6.2831853071795862
0
LINE
5
132
100
AcDbEntity
8
0
100
AcDbLine
10
-470
20
-5
30
0
11
-500
21
-5
31
0
0
LWPOLYLINE
5
133
100
AcDbEntity
8
0
100
AcDbPolyline
90
4
70
1
43
0.0
10
-30.416666666666664
20
0
10
-30.416666666666664
20
-10
10
-20.416666666666664
20
-10
10
-20.416666666666664
20
0
0
LWPOLYLINE
5
134
100
AcDbEntity
8
0
100
AcDbPolyline
90
4
70
1
43
0.0
10
-50.833333333333329
20
0
10
-50.833333333333329
20
-10
10
-40.833333333333329
20
-10
10
-40.833333333333329
20
0
0
LINE
5
135
100
AcDbEntity
8
0
100
AcDbLine
10
-71.25
20
-10
30
0
11
-71.25
21
0
31
0
0
LINE
5
136
100
AcDbEntity
8
0
100
AcDbLine
10
-61.25
20
-10
30
0
11
-71.25
21
-10
31
0
0
LINE
5
137
100
AcDbEntity
8
0
100
AcDbLine
10
-71.25
20
0
30
0
11
-61.25
21
0
31
0
0
LINE
5
138
100
AcDbEntity
8
0
100
AcDbLine
10
-61.25
20
0
30
0
11
-61.25
21
-10
31
0
0
LINE
5
139
100
AcDbEntity
8
0
100
AcDbLine
10
-91.666666666666657
20
-10
30
0
11
-91.666666666666657
21
0
31
0
0
LINE
5
140
100
AcDbEntity
8
0
100
AcDbLine
10
-81.666666666666657
20
-10
30
0
11
-91.666666666666657
21
-10
31
0
0
LINE
5
141
100
AcDbEntity
8
0
100
AcDbLine
10
-91.666666666666657
20
0
30
0
11
-81.666666666666657
21
0
31
0
0
LINE
5
142
100
AcDbEntity
8
0
100
AcDbLine
10
-81.666666666666657
20
0
30
0
11
-81.666666666666657
21
-10
31
0
0
LWPOLYLINE
5
143
100
AcDbEntity
8
0
100
AcDbPolyline
90
4
70
1
43
0.0
10
-112.08333333333331
20
0
10
-112.08333333333331
20
-10
10
-102.08333333333331
20
-10
10
-102.08333333333331
20
0
0
LWPOLYLINE
5
144
100
AcDbEntity
8
0
100
AcDbPolyline
90
4
70
1
43
0.0
10
-132.5
20
0
10
-132.5
20
-10
10
-122.5
20
-10
10
-122.5
20
0
0
LWPOLYLINE
5
145
100
AcDbEntity
8
0
100
AcDbPolyline
90
4
70
1
43
0.0
10
-152.91666666666666
20
0
10
-152.91666666666666
20
-10
10
-142.91666666666666
20
-10
10
-142.91666666666666
20
0
0
LWPOLYLINE
5
146
100
AcDbEntity
8
0
100
AcDbPolyline
90
4
70
1
43
0.0
10
-173.33333333333331
20
0
10
-173.33333333333331
20
-10
10
-163.33333333333331
20
-10
10
-163.33333333333331
20
0
0
LWPOLYLINE
5
147
100
AcDbEntity
8
0
100
AcDbPolyline
90
4
70
1
43
0.0
10
-193.75
20
0
10
-193.75
20
-10
10
-183.75
20
-10
10
-183.75
20
0
0
LWPOLYLINE
5
148
100
AcDbEntity
8
0
100
AcDbPolyline
90
4
70
1
43
0.0
10
-214.16666666666663
20
0
10
-214.16666666666663
20
-10
10
-204.16666666666663
20
-10
10
-204.16666666666663
20
0
0
LWPOLYLINE
5
149
100
AcDbEntity
8
0
100
AcDbPolyline
90
4
70
1
43
0.0
10
-234.58333333333331
20
0
10
-234.58333333333331
20
-10
10
-224.58333333333331
20
-10
10
-224.58333333333331
20
0
0
LWPOLYLINE
5
150
100
AcDbEntity
8
0
100
AcDbPolyline
90
4
70
1
43
0.0
10
-255
20
0
10
-255
20
-10
10
-245
20
-10
10
-245
20
0
0
LWPOLYLINE
5
151
100
AcDbEntity
8
0
100
AcDbPolyline
90
4
70
1
43
0.0
10
-275.41666666666663
20
0
10
-275.41666666666663
20
-10
10
-265.41666666666663
20
-10
10
-265.41666666666663
20
0
0
LWPOLYLINE
5
152
100
AcDbEntity
8
0
100
AcDbPolyline
90
4
70
1
43
0.0
10
-295.83333333333331
20
0
10
-295.83333333333331
20
-10
10
-285.83333333333331
20
-10
10
-285.83333333333331
20
0
0
LINE
5
153
100
AcDbEntity
8
0
100
AcDbLine
10
-316.24999999999994
20
-10
30
0
11
-316.24999999999994
21
0
31
0
0
LINE
5
154
100
AcDbEntity
8
0
100
AcDbLine
10
-306.24999999999994
20
-10
30
0
11
-316.24999999999994
21
-10
31
0
0
LINE
5
155
100
AcDbEntity
8
0
100
AcDbLine
10
-316.24999999999994
20
0
30
0
11
-306.24999999999994
21
0
31
0
0
LINE
5
156
100
AcDbEntity
8
0
100
AcDbLine
10
-306.24999999999994
20
0
30
0
11
-306.24999999999994
21
-10
31
0
0
LINE
5
157
100
AcDbEntity
8
0
100
AcDbLine
10
-336.66666666666663
20
-10
30
0
11
-336.66666666666663
21
0
31
0
0
LINE
5
158
100
AcDbEntity
8
0
100
AcDbLine
10
-326.66666666666663
20
-10
30
0
11
-336.66666666666663
21
-10
31
0
0
LINE
5
159
100
AcDbEntity
8
0
100
AcDbLine
10
-336.66666666666663
20
0
30
0
11
-326.66666666666663
21
0
31
0
0
LINE
5
160
100
AcDbEntity
8
0
100
AcDbLine
10
-326.66666666666663
20
0
30
0
11
-326.66666666666663
21
-10
31
0
0
LWPOLYLINE
5
161
100
AcDbEntity
8
0
100
AcDbPolyline
90
4
70
1
43
0.0
10
-357.08333333333326
20
0
10
-357.08333333333326
20
-10
10
-347.08333333333326
20
-10
10
-347.08333333333326
20
0
0
LWPOLYLINE
5
162
100
AcDbEntity
8
0
100
AcDbPolyline
90
4
70
1
43
0.0
10
-377.5
20
0
10
-377.5
20
-10
10
-367.5
20
-10
10
-367.5
20
0
0
LWPOLYLINE
5
163
100
AcDbEntity
8
0
100
AcDbPolyline
90
4
70
1
43
0.0
10
-397.91666666666663
20
0
10
-397.91666666666663
20
-10
10
-387.91666666666663
20
-10
10
-387.91666666666663
20
0
0
LWPOLYLINE
5
164
100
AcDbEntity
8
0
100
AcDbPolyline
90
4
70
1
43
0.0
10
-418.33333333333326
20
0
10
-418.33333333333326
20
-10
10
-408.33333333333326
20
-10
10
-408.33333333333326
20
0
0
LWPOLYLINE
5
165
100
AcDbEntity
8
0
100
AcDbPolyline
90
4
70
1
43
0.0
10
-438.75
20
0
10
-438.75
20
-10
10
-428.75
20
-10
10
-428.75
20
0
0
LWPOLYLINE
5
166
100
AcDbEntity
8
0
100
AcDbPolyline
90
4
70
1
43
0.0
10
-459.16666666666663
20
0
10
-459.16666666666663
20
-10
10
-449.16666666666663
20
-10
10
-449.16666666666663
20
0
0
LWPOLYLINE
5
167
100
AcDbEntity
8
0
100
AcDbPolyline
90
4
70
1
43
0.0
10
-479.58333333333326
20
0
10
-479.58333333333326
20
-10
10
-469.58333333333326
20
-10
10
-469.58333333333326
20
0
0
LWPOLYLINE
5
168
100
AcDbEntity
8
0
100
AcDbPolyline
90
4
70
1
43
0.0
10
-500
20
0
10
-500
20
-10
10
-490
20
-10
10
-490
20
0
0
LWPOLYLINE
5
169
100
AcDbEntity
8
0
100
AcDbPolyline
90
8
70
1
43
0.0
10
-100
20
-10
10
-100
20
-5
10
-150
20
-5
10
-150
20
0
10
-200
20
0
10
-200
20
-5
10
-150
20
-5
10
-150
20
-10
0
LWPOLYLINE
5
170
100
AcDbEntity
8
0
100
AcDbPolyline
90
8
70
1
43
0.0
10
-200
20
-10
10
-200
20
-5
10
-250
20
-5
10
-250
20
0
10
-300
20
0
10
-300
20
-5
10
-250
20
-5
10
-250
20
-10
0
LWPOLYLINE
5
171
100
AcDbEntity
8
0
100
AcDbPolyline
90
8
70
1
43
0.0
10
-300
20
-10
10
-300
20
-5
10
-350
20
-5
10
-350
20
0
10
-400
20
0
10
-400
20
-5
10
-350
20
-5
10
-350
20
-10
0
LWPOLYLINE
5
172
100
AcDbEntity
8
0
100
AcDbPolyline
90
8
70
1
43
0.0
10
-400
20
-10
10
-400
20
-5
10
-450
20
-5
10
-450
20
0
10
-500
20
0
10
-500
20
-5
10
-450
20
-5
10
-450
20
-10
0
LINE
5
173
100
AcDbEntity
8
0
100
AcDbLine
10
-40.833333333333329
20
-10
30
0
11
-61.25
21
0
31
0
0
LINE
5
174
100
AcDbEntity
8
0
100
AcDbLine
10
-71.25
20
0
30
0
11
-91.666666666666657
21
-10
31
0
0
LINE
5
175
100
AcDbEntity
8
0
100
AcDbLine
10
-163.33333333333331
20
0
30
0
11
-183.75
21
-10
31
0
0
LINE
5
176
100
AcDbEntity
8
0
100
AcDbLine
10
-204.16666666666663
20
-10
30
0
11
-224.58333333333331
21
0
31
0
0
LINE
5
177
100
AcDbEntity
8
0
100
AcDbLine
10
-285.83333333333331
20
-10
30
0
11
-306.24999999999994
21
0
31
0
0
LINE
5
178
100
AcDbEntity
8
0
100
AcDbLine
10
-316.24999999999994
20
0
30
0
11
-336.66666666666663
21
-10
31
0
0
LINE
5
179
100
AcDbEntity
8
0
100
AcDbLine
10
-400
20
0
30
0
11
-418.33333333333326
21
-10
31
0
0
LINE
5
180
100
AcDbEntity
8
0
100
AcDbLine
10
-428.75
20
-10
30
0
11
-449.16666666666663
21
0
31
0
0
SPLINE
5
181
100
AcDbEntity
8
0
100
AcDbSpline
70
1064
71
3
72
8
73
4
74
0
42
0.000000001
43
0.0000000001
44
0.0000000001
40
0
40
0
40
0
40
0
40
1
40
1
40
1
40
1
10
-483.48223873204961
20
-15.375234210491131
30
0
10
-488.73632621087012
20
-15.915407227108718
30
0
10
-491.56502053875903
20
-16.663377338106894
30
0
10
-494.06217053050364
20
-18.172805524966222
30
0
0
SPLINE
5
182
100
AcDbEntity
8
0
100
AcDbSpline
70
1064
71
3
72
8
73
4
74
0
42
0.000000001
43
0.0000000001
44
0.0000000001
40
0
40
0
40
0
40
0
40
1
40
1
40
1
40
1
10
-494.06217053050364
20
-18.172805524966222
30
0
10
-495.35714893424148
20
-18.955568474960863
30
0
10
-495.95858272894657
20
-19.625018780858113
30
0
10
-496.52707667540517
20
-20.91647379047749
30
0
0
SPLINE
5
183
100
AcDbEntity
8
0
100
AcDbSpline
70
1064
71
3
72
8
73
4
74
0
42
0.000000001
43
0.0000000001
44
0.0000000001
40
0
40
0
40
0
40
0
40
1
40
1
40
1
40
1
10
-496.52707667540517
20
-20.91647379047749
30
0
10
-496.80468271056662
20
-21.547112527195939
30
0
10
-497.06834860592721
20
-22.299063404663528
30
0
10
-497.11300093753414
20
-22.587473731743401
30
0
0
SPLINE
5
184
100
AcDbEntity
8
0
100
AcDbSpline
70
1064
71
3
72
8
73
4
74
0
42
0.000000001
43
0.0000000001
44
0.0000000001
40
0
40
0
40
0
40
0
40
1
40
1
40
1
40
1
10
-497.11300093753414
20
-22.587473731743401
30
0
10
-497.19544478950957
20
-23.11997988614629
30
0
10
-496.96610125427463
20
-25.078350671876315
30
0
10
-496.74429735762112
20
-25.735838792610949
30
0
0
SPLINE
5
185
100
AcDbEntity
8
0
100
AcDbSpline
70
1064
71
3
72
8
73
4
74
0
42
0.000000001
43
0.0000000001
44
0.0000000001
40
0
40
0
40
0
40
0
40
1
40
1
40
1
40
1
10
-496.74429735762112
20
-25.735838792610949
30
0
10
-496.67835077268126
20
-25.931322989433347
30
0
10
-496.59146087277861
20
-26.677720318038979
30
0
10
-496.55120894225354
20
-27.394498719380866
30
0
0
SPLINE
5
186
100
AcDbEntity
8
0
100
AcDbSpline
70
1064
71
3
72
8
73
4
74
0
42
0.000000001
43
0.0000000001
44
0.0000000001
40
0
40
0
40
0
40
0
40
1
40
1
40
1
40
1
10
-496.55120894225354
20
-27.394498719380866
30
0
10
-496.50576773373098
20
-28.203682605774418
30
0
10
-496.39137719135596
20
-28.944755975591487
30
0
10
-496.2494634090603
20
-29.349347918788268
30
0
0
SPLINE
5
187
100
AcDbEntity
8
0
100
AcDbSpline
70
1064
71
3
72
8
73
4
74
0
42
0.000000001
43
0.0000000001
44
0.0000000001
40
0
40
0
40
0
40
0
40
1
40
1
40
1
40
1
10
-496.2494634090603
20
-29.349347918788268
30
0
10
-496.1237547087955
20
-29.707737119459207
30
0
10
-495.89596022863242
20
-30.542546512076125
30
0
10
-495.74325209729551
20
-31.204480906712444
30
0
0
SPLINE
5
188
100
AcDbEntity
8
0
100
AcDbSpline
70
1064
71
3
72
8
73
4
74
0
42
0.000000001
43
0.0000000001
44
0.0000000001
40
0
40
0
40
0
40
0
40
1
40
1
40
1
40
1
10
-495.74325209729551
20
-31.204480906712444
30
0
10
-495.42772166877046
20
-32.572193264922106
30
0
10
-495.23137198968311
20
-33.014418094401194
30
0
10
-494.7830585037695
20
-33.367060312053852
30
0
0
SPLINE
5
189
100
AcDbEntity
8
0
100
AcDbSpline
70
1064
71
3
72
8
73
4
74
0
42
0.000000001
43
0.0000000001
44
0.0000000001
40
0
40
0
40
0
40
0
40
1
40
1
40
1
40
1
10
-494.7830585037695
20
-33.367060312053852
30
0
10
-494.14378483015685
20
-33.869912287173854
30
0
10
-493.71286866763921
20
-33.69262445951486
30
0
10
-492.06430392486425
20
-32.248503801761167
30
0
0
SPLINE
5
190
100
AcDbEntity
8
0
100
AcDbSpline
70
1064
71
3
72
8
73
4
74
0
42
0.000000001
43
0.0000000001
44
0.0000000001
40
0
40
0
40
0
40
0
40
1
40
1
40
1
40
1
10
-492.06430392486425
20
-32.248503801761167
30
0
10
-491.2053387640529
20
-31.496061203821426
30
0
10
-490.59976963633284
20
-31.081332045376154
30
0
10
-489.76690723985018
20
-30.675113085911228
30
0
0
SPLINE
5
191
100
AcDbEntity
8
0
100
AcDbSpline
70
1064
71
3
72
8
73
4
74
0
42
0.000000001
43
0.0000000001
44
0.0000000001
40
0
40
0
40
0
40
0
40
1
40
1
40
1
40
1
10
-489.76690723985018
20
-30.675113085911228
30
0
10
-488.66978847668622
20
-30.140007321070996
30
0
10
-488.59774690802624
20
-30.122152625323903
30
0
10
-487.36042001795448
20
-30.078676942843074
30
0
0
LINE
5
192
100
AcDbEntity
8
0
100
AcDbLine
10
-487.36042001795448
20
-30.078676942843071
30
0
11
-486.0849079599671
21
-30.033859875838949
31
0
0
LINE
5
193
100
AcDbEntity
8
0
100
AcDbLine
10
-486.0849079599671
20
-30.033859875838949
30
0
11
-486.49873322048563
21
-30.84843732116142
31
0
0
SPLINE
5
194
100
AcDbEntity
8
0
100
AcDbSpline
70
1064
71
3
72
8
73
4
74
0
42
0.000000001
43
0.0000000001
44
0.0000000001
40
0
40
0
40
0
40
0
40
1
40
1
40
1
40
1
10
-486.49873322048563
20
-30.84843732116142
30
0
10
-487.07981123388038
20
-31.992235181058604
30
0
10
-487.27069820584734
20
-32.706135571401717
30
0
10
-487.27217788675341
20
-33.741064349409406
30
0
0
SPLINE
5
195
100
AcDbEntity
8
0
100
AcDbSpline
70
1064
71
3
72
8
73
4
74
0
42
0.000000001
43
0.0000000001
44
0.0000000001
40
0
40
0
40
0
40
0
40
1
40
1
40
1
40
1
10
-487.27217788675341
20
-33.741064349409406
30
0
10
-487.27695227560253
20
-37.078048502345681
30
0
10
-484.5175146068612
20
-39.775209863678775
30
0
10
-481.09871051749337
20
-39.775209863678775
30
0
0
SPLINE
5
196
100
AcDbEntity
8
0
100
AcDbSpline
70
1064
71
3
72
8
73
4
74
0
42
0.000000001
43
0.0000000001
44
0.0000000001
40
0
40
0
40
0
40
0
40
1
40
1
40
1
40
1
10
-481.09871051749337
20
-39.775209863678775
30
0
10
-479.71010817429857
20
-39.775209863678775
30
0
10
-477.98423982108312
20
-39.184712781938337
30
0
10
-476.87767351678878
20
-38.331002883673065
30
0
0
SPLINE
5
197
100
AcDbEntity
8
0
100
AcDbSpline
70
1064
71
3
72
8
73
4
74
0
42
0.000000001
43
0.0000000001
44
0.0000000001
40
0
40
0
40
0
40
0
40
1
40
1
40
1
40
1
10
-476.87767351678878
20
-38.331002883673065
30
0
10
-476.21889824540642
20
-37.822760965215856
30
0
10
-475.04246424696601
20
-36.443299741754302
30
0
10
-474.45547474113033
20
-35.490785665013917
30
0
0
LINE
5
198
100
AcDbEntity
8
0
100
AcDbLine
10
-474.45547474113033
20
-35.490785665013917
30
0
11
-474.11503243379502
21
-34.938344945734471
31
0
0
LINE
5
199
100
AcDbEntity
8
0
100
AcDbLine
10
-474.11503243379502
20
-34.938344945734471
30
0
11
-473.12923593149372
21
-34.966709262675892
31
0
0
SPLINE
5
200
100
AcDbEntity
8
0
100
AcDbSpline
70
1064
71
3
72
8
73
4
74
0
42
0.000000001
43
0.0000000001
44
0.0000000001
40
0
40
0
40
0
40
0
40
1
40
1
40
1
40
1
10
-473.12923593149378
20
-34.966709262675892
30
0
10
-472.58704903029536
20
-34.982308733095742
30
0
10
-472.03175741695497
20
-34.953759117079343
30
0
10
-471.89525617544467
20
-34.903262859401437
30
0
0
SPLINE
5
201
100
AcDbEntity
8
0
100
AcDbSpline
70
1064
71
3
72
8
73
4
74
0
42
0.000000001
43
0.0000000001
44
0.0000000001
40
0
40
0
40
0
40
0
40
1
40
1
40
1
40
1
10
-471.89525617544467
20
-34.903262859401437
30
0
10
-471.54978638784081
20
-34.775465251027875
30
0
10
-471.27923889158933
20
-34.196221246526513
30
0
10
-471.27923889158933
20
-33.584359181440448
30
0
0
SPLINE
5
202
100
AcDbEntity
8
0
100
AcDbSpline
70
1064
71
3
72
8
73
4
74
0
42
0.000000001
43
0.0000000001
44
0.0000000001
40
0
40
0
40
0
40
0
40
1
40
1
40
1
40
1
10
-471.27923889158933
20
-33.584359181440448
30
0
10
-471.27923889158933
20
-33.151798828594167
30
0
10
-471.34522705583379
20
-33.00461712918144
30
0
10
-471.68820931634332
20
-32.672186069170905
30
0
0
SPLINE
5
203
100
AcDbEntity
8
0
100
AcDbSpline
70
1064
71
3
72
8
73
4
74
0
42
0.000000001
43
0.0000000001
44
0.0000000001
40
0
40
0
40
0
40
0
40
1
40
1
40
1
40
1
10
-471.68820931634332
20
-32.672186069170905
30
0
10
-472.0651347517981
20
-32.306855836320452
30
0
10
-472.0837008152136
20
-32.256553012798875
30
0
10
-471.92516073445336
20
-32.030204317369673
30
0
0
SPLINE
5
204
100
AcDbEntity
8
0
100
AcDbSpline
70
1064
71
3
72
8
73
4
74
0
42
0.000000001
43
0.0000000001
44
0.0000000001
40
0
40
0
40
0
40
0
40
1
40
1
40
1
40
1
10
-471.92516073445336
20
-32.030204317369673
30
0
10
-471.83055154625617
20
-31.895129426787836
30
0
10
-471.75314172780935
20
-31.604610305844854
30
0
10
-471.75314172780935
20
-31.384605166065576
30
0
0
SPLINE
5
205
100
AcDbEntity
8
0
100
AcDbSpline
70
1064
71
3
72
8
73
4
74
0
42
0.000000001
43
0.0000000001
44
0.0000000001
40
0
40
0
40
0
40
0
40
1
40
1
40
1
40
1
10
-471.75314172780935
20
-31.384605166065576
30
0
10
-471.75314172780935
20
-30.770813278905898
30
0
10
-472.2672824841365
20
-30.363735616410558
30
0
10
-473.37120036750548
20
-30.103487133136511
30
0
0
SPLINE
5
206
100
AcDbEntity
8
0
100
AcDbSpline
70
1064
71
3
72
8
73
4
74
0
42
0.000000001
43
0.0000000001
44
0.0000000001
40
0
40
0
40
0
40
0
40
1
40
1
40
1
40
1
10
-473.37120036750548
20
-30.103487133136511
30
0
10
-474.51668490093397
20
-29.833438588540638
30
0
10
-475.59779201622348
20
-29.122223678937903
30
0
10
-475.47820451271861
20
-28.717378644321634
30
0
0
SPLINE
5
207
100
AcDbEntity
8
0
100
AcDbSpline
70
1064
71
3
72
8
73
4
74
0
42
0.000000001
43
0.0000000001
44
0.0000000001
40
0
40
0
40
0
40
0
40
1
40
1
40
1
40
1
10
-475.47820451271861
20
-28.717378644321634
30
0
10
-475.34967203533057
20
-28.282251221363389
30
0
10
-474.7961159060095
20
-27.665017290898646
30
0
10
-473.81684554673939
20
-26.864901308506255
30
0
0
SPLINE
5
208
100
AcDbEntity
8
0
100
AcDbSpline
70
1064
71
3
72
8
73
4
74
0
42
0.000000001
43
0.0000000001
44
0.0000000001
40
0
40
0
40
0
40
0
40
1
40
1
40
1
40
1
10
-473.81684554673939
20
-26.864901308506255
30
0
10
-472.55514324127694
20
-25.834023801006257
30
0
10
-471.47382822946429
20
-24.723151326988877
30
0
10
-471.08310931164726
20
-24.056441639605531
30
0
0
SPLINE
5
209
100
AcDbEntity
8
0
100
AcDbSpline
70
1064
71
3
72
8
73
4
74
0
42
0.000000001
43
0.0000000001
44
0.0000000001
40
0
40
0
40
0
40
0
40
1
40
1
40
1
40
1
10
-471.08310931164726
20
-24.056441639605531
30
0
10
-470.33652939566036
20
-22.782498748419009
30
0
10
-470.05528697913968
20
-21.144116867737807
30
0
10
-470.37138369971592
20
-19.910274504173625
30
0
0
SPLINE
5
210
100
AcDbEntity
8
0
100
AcDbSpline
70
1064
71
3
72
8
73
4
74
0
42
0.000000001
43
0.0000000001
44
0.0000000001
40
0
40
0
40
0
40
0
40
1
40
1
40
1
40
1
10
-470.37138369971592
20
-19.910274504173625
30
0
10
-471.1651398562957
20
-16.81194200134755
30
0
10
-474.66274034353
20
-15.221376320991427
30
0
10
-480.57958386020226
20
-15.268008415032469
30
0
0
SPLINE
5
211
100
AcDbEntity
8
0
100
AcDbSpline
70
1064
71
3
72
8
73
4
74
0
42
0.000000001
43
0.0000000001
44
0.0000000001
40
0
40
0
40
0
40
0
40
1
40
1
40
1
40
1
10
-480.57958386020226
20
-15.268008415032469
30
0
10
-481.68733246298478
20
-15.276740069004875
30
0
10
-482.99352643219777
20
-15.324990140334798
30
0
10
-483.48223873204961
20
-15.375234210491131
30
0
0
SPLINE
5
212
100
AcDbEntity
8
0
100
AcDbSpline
70
1064
71
3
72
8
73
4
74
0
42
0.000000001
43
0.0000000001
44
0.0000000001
40
0
40
0
40
0
40
0
40
1
40
1
40
1
40
1
10
-479.57254033323477
20
-32.485909880528311
30
0
10
-479.57254033323477
20
-32.516817766235604
30
0
10
-479.7348406293703
20
-32.626033041031043
30
0
10
-479.93320645278322
20
-32.72861370504414
30
0
0
SPLINE
5
213
100
AcDbEntity
8
0
100
AcDbSpline
70
1064
71
3
72
8
73
4
74
0
42
0.000000001
43
0.0000000001
44
0.0000000001
40
0
40
0
40
0
40
0
40
1
40
1
40
1
40
1
10
-479.93320645278322
20
-32.72861370504414
30
0
10
-480.40941784430811
20
-32.974872560105872
30
0
10
-480.75630494386121
20
-33.56501305411421
30
0
10
-480.75685451380059
20
-34.129841694479765
30
0
0
SPLINE
5
214
100
AcDbEntity
8
0
100
AcDbSpline
70
1064
71
3
72
8
73
4
74
0
42
0.000000001
43
0.0000000001
44
0.0000000001
40
0
40
0
40
0
40
0
40
1
40
1
40
1
40
1
10
-480.75685451380059
20
-34.129841694479765
30
0
10
-480.75721064958378
20
-34.490938973339247
30
0
10
-480.673370501286
20
-34.66989991606065
30
0
10
-480.3544807361161
20
-34.98879058512847
30
0
0
SPLINE
5
215
100
AcDbEntity
8
0
100
AcDbSpline
70
1064
71
3
72
8
73
4
74
0
42
0.000000001
43
0.0000000001
44
0.0000000001
40
0
40
0
40
0
40
0
40
1
40
1
40
1
40
1
10
-480.3544807361161
20
-34.98879058512847
30
0
10
-480.01276212490825
20
-35.330510100234285
30
0
10
-479.86873683705568
20
-35.39160817669503
30
0
10
-479.40493415626923
20
-35.39160817669503
30
0
0
SPLINE
5
216
100
AcDbEntity
8
0
100
AcDbSpline
70
1064
71
3
72
8
73
4
74
0
42
0.000000001
43
0.0000000001
44
0.0000000001
40
0
40
0
40
0
40
0
40
1
40
1
40
1
40
1
10
-479.40493415626923
20
-35.39160817669503
30
0
10
-477.95134697552868
20
-35.39160817669503
30
0
10
-477.38474217573702
20
-33.507883993449816
30
0
10
-478.60966487456005
20
-32.747669681135882
30
0
0
SPLINE
5
217
100
AcDbEntity
8
0
100
AcDbSpline
70
1064
71
3
72
8
73
4
74
0
42
0.000000001
43
0.0000000001
44
0.0000000001
40
0
40
0
40
0
40
0
40
1
40
1
40
1
40
1
10
-478.60966487456005
20
-32.747669681135882
30
0
10
-478.82594595488115
20
-32.613441742911419
30
0
10
-478.86140406275166
20
-32.553534100020194
30
0
10
-478.72586456863553
20
-32.551343955343683
30
0
0
SPLINE
5
218
100
AcDbEntity
8
0
100
AcDbSpline
70
1064
71
3
72
8
73
4
74
0
42
0.000000001
43
0.0000000001
44
0.0000000001
40
0
40
0
40
0
40
0
40
1
40
1
40
1
40
1
10
-478.72586456863553
20
-32.551343955343683
30
0
10
-478.50004917298304
20
-32.547694015515461
30
0
10
-477.8542195277077
20
-33.242523063502077
30
0
10
-477.73536779711515
20
-33.616988088800269
30
0
0
SPLINE
5
219
100
AcDbEntity
8
0
100
AcDbSpline
70
1064
71
3
72
8
73
4
74
0
42
0.000000001
43
0.0000000001
44
0.0000000001
40
0
40
0
40
0
40
0
40
1
40
1
40
1
40
1
10
-477.73536779711515
20
-33.616988088800269
30
0
10
-477.51819547343825
20
-34.301238819350118
30
0
10
-477.99481904241782
20
-35.159789091013131
30
0
10
-478.79313626793595
20
-35.522366954676635
30
0
0
SPLINE
5
220
100
AcDbEntity
8
0
100
AcDbSpline
70
1064
71
3
72
8
73
4
74
0
42
0.000000001
43
0.0000000001
44
0.0000000001
40
0
40
0
40
0
40
0
40
1
40
1
40
1
40
1
10
-478.79313626793595
20
-35.522366954676635
30
0
10
-479.40559400175573
20
-35.800531598756791
30
0
10
-479.74319264621352
20
-35.798819616083527
30
0
10
-480.36980361377033
20
-35.514371073616601
30
0
0
SPLINE
5
221
100
AcDbEntity
8
0
100
AcDbSpline
70
1064
71
3
72
8
73
4
74
0
42
0.000000001
43
0.0000000001
44
0.0000000001
40
0
40
0
40
0
40
0
40
1
40
1
40
1
40
1
10
-480.36980361377033
20
-35.514371073616601
30
0
10
-481.33810246000559
20
-35.07481455081728
30
0
10
-481.6664108415722
20
-33.890596183431683
30
0
10
-481.02974129788652
20
-33.13395769131597
30
0
0
SPLINE
5
222
100
AcDbEntity
8
0
100
AcDbSpline
70
1064
71
3
72
8
73
4
74
0
42
0.000000001
43
0.0000000001
44
0.0000000001
40
0
40
0
40
0
40
0
40
1
40
1
40
1
40
1
10
-481.02974129788652
20
-33.13395769131597
30
0
10
-480.85377587289435
20
-32.924836386472691
30
0
10
-480.54722069883292
20
-32.682919857051061
30
0
10
-480.34850597082027
20
-32.596364399381329
30
0
0
SPLINE
5
223
100
AcDbEntity
8
0
100
AcDbSpline
70
1064
71
3
72
8
73
4
74
0
42
0.000000001
43
0.0000000001
44
0.0000000001
40
0
40
0
40
0
40
0
40
1
40
1
40
1
40
1
10
-480.34850597082027
20
-32.596364399381329
30
0
10
-479.98724327864016
20
-32.43900752100717
30
0
10
-479.57254033323477
20
-32.379977563002825
30
0
10
-479.57254033323477
20
-32.485909880528311
30
0
0
SPLINE
5
224
100
AcDbEntity
8
0
100
AcDbSpline
70
1064
71
3
72
8
73
4
74
0
42
0.000000001
43
0.0000000001
44
0.0000000001
40
0
40
0
40
0
40
0
40
1
40
1
40
1
40
1
10
-477.65419233990542
20
-29.756565685462249
30
0
10
-478.41042588574993
20
-30.538584727463174
30
0
10
-478.50626075953573
20
-30.68885956558124
30
0
10
-478.50626075953573
20
-31.092674156561017
30
0
0
SPLINE
5
225
100
AcDbEntity
8
0
100
AcDbSpline
70
1064
71
3
72
8
73
4
74
0
42
0.000000001
43
0.0000000001
44
0.0000000001
40
0
40
0
40
0
40
0
40
1
40
1
40
1
40
1
10
-478.50626075953573
20
-31.092674156561017
30
0
10
-478.50626075953573
20
-31.685254271073649
30
0
10
-478.26409565818426
20
-32.012901903255823
30
0
10
-477.56386582008531
20
-32.367736977278774
30
0
0
SPLINE
5
226
100
AcDbEntity
8
0
100
AcDbSpline
70
1064
71
3
72
8
73
4
74
0
42
0.000000001
43
0.0000000001
44
0.0000000001
40
0
40
0
40
0
40
0
40
1
40
1
40
1
40
1
10
-477.56386582008531
20
-32.367736977278774
30
0
10
-476.95315622485577
20
-32.677206318256076
30
0
10
-476.40766828842891
20
-33.157987817698626
30
0
10
-475.82995458311757
20
-33.89596804881036
30
0
0
SPLINE
5
227
100
AcDbEntity
8
0
100
AcDbSpline
70
1064
71
3
72
8
73
4
74
0
42
0.000000001
43
0.0000000001
44
0.0000000001
40
0
40
0
40
0
40
0
40
1
40
1
40
1
40
1
10
-475.82995458311757
20
-33.89596804881036
30
0
10
-475.5050105096343
20
-34.311056958630481
30
0
10
-475.44693326004477
20
-34.340476124452415
30
0
10
-475.22547284460336
20
-34.202172510476231
30
0
0
SPLINE
5
228
100
AcDbEntity
8
0
100
AcDbSpline
70
1064
71
3
72
8
73
4
74
0
42
0.000000001
43
0.0000000001
44
0.0000000001
40
0
40
0
40
0
40
0
40
1
40
1
40
1
40
1
10
-475.22547284460336
20
-34.202172510476231
30
0
10
-475.01342923776292
20
-34.069748752513561
30
0
10
-474.90798954460757
20
-34.091646583687009
30
0
10
-474.44161256252573
20
-34.364961815390153
30
0
0
SPLINE
5
229
100
AcDbEntity
8
0
100
AcDbSpline
70
1064
71
3
72
8
73
4
74
0
42
0.000000001
43
0.0000000001
44
0.0000000001
40
0
40
0
40
0
40
0
40
1
40
1
40
1
40
1
10
-474.44161256252573
20
-34.364961815390153
30
0
10
-473.84101939289235
20
-34.716933340781168
30
0
10
-473.12227953304949
20
-34.786428628981426
30
0
10
-473.01353338127802
20
-34.503041262680505
30
0
0
SPLINE
5
230
100
AcDbEntity
8
0
100
AcDbSpline
70
1064
71
3
72
8
73
4
74
0
42
0.000000001
43
0.0000000001
44
0.0000000001
40
0
40
0
40
0
40
0
40
1
40
1
40
1
40
1
10
-473.01353338127802
20
-34.503041262680505
30
0
10
-472.92498392478188
20
-34.272282449266683
30
0
10
-472.64846166323457
20
-34.276266831327796
30
0
10
-472.41303602482498
20
-34.511692469737426
30
0
0
SPLINE
5
231
100
AcDbEntity
8
0
100
AcDbSpline
70
1064
71
3
72
8
73
4
74
0
42
0.000000001
43
0.0000000001
44
0.0000000001
40
0
40
0
40
0
40
0
40
1
40
1
40
1
40
1
10
-472.41303602482498
20
-34.511692469737426
30
0
10
-472.1211113426059
20
-34.803616248058582
30
0
10
-471.82665213060022
20
-34.671307285132606
30
0
10
-471.73176092624999
20
-34.205575686170448
30
0
0
SPLINE
5
232
100
AcDbEntity
8
0
100
AcDbSpline
70
1064
71
3
72
8
73
4
74
0
42
0.000000001
43
0.0000000001
44
0.0000000001
40
0
40
0
40
0
40
0
40
1
40
1
40
1
40
1
10
-471.73176092624999
20
-34.205575686170448
30
0
10
-471.685436157504
20
-33.978212817267426
30
0
10
-471.6137208959957
20
-33.655792426795649
30
0
10
-471.57239287498885
20
-33.489089243858899
30
0
0
SPLINE
5
233
100
AcDbEntity
8
0
100
AcDbSpline
70
1064
71
3
72
8
73
4
74
0
42
0.000000001
43
0.0000000001
44
0.0000000001
40
0
40
0
40
0
40
0
40
1
40
1
40
1
40
1
10
-471.57239287498885
20
-33.489089243858899
30
0
10
-471.51144122999222
20
-33.243224488293237
30
0
10
-471.58084070501224
20
-33.104805175382424
30
0
10
-471.93989065506764
20
-32.756057853896124
30
0
0
SPLINE
5
234
100
AcDbEntity
8
0
100
AcDbSpline
70
1064
71
3
72
8
73
4
74
0
42
0.000000001
43
0.0000000001
44
0.0000000001
40
0
40
0
40
0
40
0
40
1
40
1
40
1
40
1
10
-471.93989065506764
20
-32.756057853896124
30
0
10
-472.37279448912608
20
-32.335578096840862
30
0
10
-472.37821245329894
20
-32.319541139824459
30
0
10
-472.1863113078582
20
-32.026661941394735
30
0
0
SPLINE
5
235
100
AcDbEntity
8
0
100
AcDbSpline
70
1064
71
3
72
8
73
4
74
0
42
0.000000001
43
0.0000000001
44
0.0000000001
40
0
40
0
40
0
40
0
40
1
40
1
40
1
40
1
10
-472.1863113078582
20
-32.026661941394735
30
0
10
-471.9202851090364
20
-31.620653590146741
30
0
10
-471.93841549365118
20
-31.09150270484794
30
0
10
-472.22731211781564
20
-30.830053845127175
30
0
0
SPLINE
5
236
100
AcDbEntity
8
0
100
AcDbSpline
70
1064
71
3
72
8
73
4
74
0
42
0.000000001
43
0.0000000001
44
0.0000000001
40
0
40
0
40
0
40
0
40
1
40
1
40
1
40
1
10
-472.22731211781564
20
-30.830053845127175
30
0
10
-472.35778074456277
20
-30.711981274547512
30
0
10
-472.91992571198375
20
-30.49376856435698
30
0
10
-473.47652074613455
20
-30.345138820465603
30
0
0
SPLINE
5
237
100
AcDbEntity
8
0
100
AcDbSpline
70
1064
71
3
72
8
73
4
74
0
42
0.000000001
43
0.0000000001
44
0.0000000001
40
0
40
0
40
0
40
0
40
1
40
1
40
1
40
1
10
-473.47652074613455
20
-30.345138820465603
30
0
10
-474.27191838134934
20
-30.132739077842
30
0
10
-474.66166108940541
20
-29.946541528319031
30
0
10
-475.29750266259032
20
-29.475173221885665
30
0
0
SPLINE
5
238
100
AcDbEntity
8
0
100
AcDbSpline
70
1064
71
3
72
8
73
4
74
0
42
0.000000001
43
0.0000000001
44
0.0000000001
40
0
40
0
40
0
40
0
40
1
40
1
40
1
40
1
10
-475.29750266259032
20
-29.475173221885665
30
0
10
-476.42926421769488
20
-28.636163415603136
30
0
10
-476.58919630126229
20
-28.65525916320366
30
0
10
-477.65419233990542
20
-29.756565685462249
30
0
0
SPLINE
5
239
100
AcDbEntity
8
0
100
AcDbSpline
70
1064
71
3
72
8
73
4
74
0
42
0.000000001
43
0.0000000001
44
0.0000000001
40
0
40
0
40
0
40
0
40
1
40
1
40
1
40
1
10
-471.9259868971584
20
-33.740831143744302
30
0
10
-471.79847582442756
20
-33.94714946111673
30
0
10
-471.94370148872679
20
-33.990842982997904
30
0
10
-472.10619521901867
20
-33.795050556982488
30
0
0
SPLINE
5
240
100
AcDbEntity
8
0
100
AcDbSpline
70
1064
71
3
72
8
73
4
74
0
42
0.000000001
43
0.0000000001
44
0.0000000001
40
0
40
0
40
0
40
0
40
1
40
1
40
1
40
1
10
-472.10619521901867
20
-33.795050556982488
30
0
10
-472.19964380227782
20
-33.682451992247223
30
0
10
-472.20863216326143
20
-33.614473444768052
30
0
10
-472.13007077885584
20
-33.614473444768052
30
0
0
SPLINE
5
241
100
AcDbEntity
8
0
100
AcDbSpline
70
1064
71
3
72
8
73
4
74
0
42
0.000000001
43
0.0000000001
44
0.0000000001
40
0
40
0
40
0
40
0
40
1
40
1
40
1
40
1
10
-472.13007077885584
20
-33.614473444768052
30
0
10
-472.06077615599531
20
-33.614473444768052
30
0
10
-471.96893831884165
20
-33.671334951646116
30
0
10
-471.9259868971584
20
-33.740831143744302
30
0
0
SPLINE
5
242
100
AcDbEntity
8
0
100
AcDbSpline
70
1064
71
3
72
8
73
4
74
0
42
0.000000001
43
0.0000000001
44
0.0000000001
40
0
40
0
40
0
40
0
40
1
40
1
40
1
40
1
10
-479.7502557046131
20
-32.779696592476498
30
0
10
-480.25307423550987
20
-32.987676274238289
30
0
10
-480.57958566799812
20
-33.487170268560419
30
0
10
-480.57958566799812
20
-34.048400491279573
30
0
0
SPLINE
5
243
100
AcDbEntity
8
0
100
AcDbSpline
70
1064
71
3
72
8
73
4
74
0
42
0.000000001
43
0.0000000001
44
0.0000000001
40
0
40
0
40
0
40
0
40
1
40
1
40
1
40
1
10
-480.57958566799812
20
-34.048400491279573
30
0
10
-480.57958566799812
20
-35.387992584988034
30
0
10
-478.79593835150888
20
-35.720930731735471
30
0
10
-478.21198594270703
20
-34.490340592911735
30
0
0
SPLINE
5
244
100
AcDbEntity
8
0
100
AcDbSpline
70
1064
71
3
72
8
73
4
74
0
42
0.000000001
43
0.0000000001
44
0.0000000001
40
0
40
0
40
0
40
0
40
1
40
1
40
1
40
1
10
-478.21198594270703
20
-34.490340592911735
30
0
10
-478.11318989931328
20
-34.282143975647521
30
0
10
-478.03255678085964
20
-34.039888484503365
30
0
10
-478.0328008332998
20
-33.951994354004114
30
0
0
SPLINE
5
245
100
AcDbEntity
8
0
100
AcDbSpline
70
1064
71
3
72
8
73
4
74
0
42
0.000000001
43
0.0000000001
44
0.0000000001
40
0
40
0
40
0
40
0
40
1
40
1
40
1
40
1
10
-478.0328008332998
20
-33.951994354004114
30
0
10
-478.03374811832703
20
-33.620939930536018
30
0
10
-478.52653157444104
20
-33.001533933353294
30
0
10
-478.91971451800634
20
-32.83725048516645
30
0
0
SPLINE
5
246
100
AcDbEntity
8
0
100
AcDbSpline
70
1064
71
3
72
8
73
4
74
0
42
0.000000001
43
0.0000000001
44
0.0000000001
40
0
40
0
40
0
40
0
40
1
40
1
40
1
40
1
10
-478.91971451800634
20
-32.83725048516645
30
0
10
-479.37869942284323
20
-32.645474981537518
30
0
10
-479.41900603919288
20
-32.642681033045932
30
0
10
-479.7502557046131
20
-32.779696592476498
30
0
0
ENDSEC
0
SECTION
2
OBJECTS
0
DICTIONARY
5
C
100
AcDbDictionary
3
ACAD_GROUP
350
D
3
ACAD_MLINESTYLE
350
17
0
DICTIONARY
5
D
100
AcDbDictionary
0
DICTIONARY
5
1A
330
C
100
AcDbDictionary
0
DICTIONARY
5
17
100
AcDbDictionary
0
ENDSEC
0
EOF
